<svg xmlns="http://www.w3.org/2000/svg" width="29.374" height="22" viewBox="0 0 29.374 22">
  <g id="email_15_" data-name="email(15)" transform="translate(0 -64.267)">
    <path id="Path_3505" data-name="Path 3505" d="M16.1,75.116a2.9,2.9,0,0,0,2.88,0h0L32.05,66.4a3.17,3.17,0,0,0-2.991-2.134H6.015A3.17,3.17,0,0,0,3.023,66.4L16.1,75.116h0Z" transform="translate(-2.85)" fill="#fff"/>
    <path id="Path_3506" data-name="Path 3506" d="M17.082,143.689h0a4.606,4.606,0,0,1-4.789,0h0L0,135.494v14.749a3.168,3.168,0,0,0,3.165,3.165H26.209a3.168,3.168,0,0,0,3.165-3.165V135.494Z" transform="translate(0 -67.141)" fill="#fff"/>
  </g>
</svg>
