<svg xmlns="http://www.w3.org/2000/svg" width="98" height="98" viewBox="0 0 98 98"><defs><mask id="7s5jb" width="2" height="2" x="-1" y="-1">
<path fill="#fff" d="M6 3h86v86H6z"/>
<path d="M6 46C6 22.252 25.252 3 49 3s43 19.252 43 43-19.252 43-43 43S6 69.748 6 46z"/></mask>
<filter id="7s5ja" width="118" height="121" x="-10" y="-13" filterUnits="userSpaceOnUse"><feOffset dy="3" in="SourceGraphic" result="FeOffset1027Out"/>
<feGaussianBlur in="FeOffset1027Out" result="FeGaussianBlur1028Out" stdDeviation="2.4 2.4"/></filter>
<clipPath id="7s5jc"><path fill="#fff" d="M6 46C6 22.252 25.252 3 49 3s43 19.252 43 43-19.252 43-43 43S6 69.748 6 46z"/></clipPath>
<clipPath id="7s5jd"><path fill="#fff" d="M6 46C6 22.252 25.252 3 49 3s43 19.252 43 43-19.252 43-43 43S6 69.748 6 46z"/></clipPath><clipPath id="7s5je">
<path d="M6 46C6 22.252 25.252 3 49 3s43 19.252 43 43-19.252 43-43 43S6 69.748 6 46z"/></clipPath></defs><g><g><g><g>
<g filter="url(#7s5ja)">
<path fill="none" d="M6 46C6 22.252 25.252 3 49 3s43 19.252 43 43-19.252 43-43 43S6 69.748 6 46z" mask="url(&quot;#7s5jb&quot;)"/>
<path fill-opacity=".16" d="M6 46C6 22.252 25.252 3 49 3s43 19.252 43 43-19.252 43-43 43S6 69.748 6 46z"/></g>
<path fill="#fff" d="M6 46C6 22.252 25.252 3 49 3s43 19.252 43 43-19.252 43-43 43S6 69.748 6 46z"/>
<path fill="none" stroke="#ddd" stroke-miterlimit="20" stroke-opacity=".43" stroke-width="2" d="M6 46C6 22.252 25.252 3 49 3s43 19.252 43 43-19.252 43-43 43S6 69.748 6 46z" clip-path="url(&quot;#7s5jc&quot;)"/></g><g><g><g><path fill="#fff" d="M6 46C6 22.252 25.252 3 49 3s43 19.252 43 43-19.252 43-43 43S6 69.748 6 46z"/><path fill="none" stroke="#707070" stroke-miterlimit="20" stroke-width="2" d="M6 46C6 22.252 25.252 3 49 3s43 19.252 43 43-19.252 43-43 43S6 69.748 6 46z" clip-path="url(&quot;#7s5jd&quot;)"/></g><g clip-path="url(#7s5je)"><path fill="#011f34" d="M79 34h13v23H79z"/></g></g><g><g><path fill="#294960" d="M45.09 20.56l-1.228-2.453a.712.712 0 0 0-.636-.394H41.53a.712.712 0 0 0-.712.712v2.847h4.271z"/></g><g><path fill="#ff7811" d="M37.26 27.679v1.423l.76 6.407 2.371 19.932.128 1.046A2.852 2.852 0 0 0 43.345 59h9.183a2.852 2.852 0 0 0 2.826-2.513l.128-1.046.997-.712 2.847-22.067-.968-1.41.256-2.15V27.68z"/></g><g><path fill="#1b3b4f" d="M37.26 24.831l1.098-3.297a1.424 1.424 0 0 1 1.351-.974h16.455c.614 0 1.159.392 1.353.974l1.097 3.297v.712H37.26z"/></g><g><path fill="#f2c199" d="M34.412 43.119a2.59 2.59 0 0 0 2.634 2.356h1.28a2.495 2.495 0 0 0-2.49 2.627 2.59 2.59 0 0 0 2.633 2.356h1.282a2.495 2.495 0 0 0-2.492 2.627 2.59 2.59 0 0 0 2.634 2.356h16.586c4.271 0 5.915-2.136 12.101-2.136h5.695a1.428 1.428 0 0 0 1.424-1.423V38.356a1.428 1.428 0 0 0-1.424-1.423h-3.003a8.937 8.937 0 0 1-5.567-1.95l-2.242-1.795a8.859 8.859 0 0 0-5.103-1.936l-.506 4.257H37.046a2.59 2.59 0 0 0-2.634 2.356 2.495 2.495 0 0 0 2.491 2.627 2.495 2.495 0 0 0-2.491 2.627z"/></g><g><path fill="#294960" d="M36 29a1 1 0 0 1-1-1v-2a1 1 0 0 1 1-1h24a1 1 0 0 1 1 1v2a1 1 0 0 1-1 1z"/></g><g><path fill="#e7ae83" d="M57.853 35.51h2.185a.712.712 0 1 0 0-1.425h-2.014z"/></g></g><g><path fill="#5bc1d4" d="M76 56V35h3v21z"/></g><g opacity=".48"><path fill="#b0effa" d="M76 46V35h3v11z"/></g></g></g></g></g></svg>