<svg id="facebook_2_" data-name="facebook(2)" xmlns="http://www.w3.org/2000/svg" width="26.691" height="26.691" viewBox="0 0 26.691 26.691">
  <g id="Group_21" data-name="Group 21">
    <g id="Group_20" data-name="Group 20">
      <path id="Path_34" data-name="Path 34" d="M210.784,153.932v1.33h-1.33v2h1.33v5.985h2.66v-5.985h1.769l.226-2h-2V154.1c0-.539.053-.825.885-.825h1.111v-2h-1.782C211.529,151.272,210.784,152.27,210.784,153.932Z" transform="translate(-198.805 -143.912)" fill="#fff"/>
      <path id="Path_35" data-name="Path 35" d="M13.345,0A13.345,13.345,0,1,0,26.691,13.345,13.345,13.345,0,0,0,13.345,0Zm0,25.478A12.132,12.132,0,1,1,25.478,13.345,12.132,12.132,0,0,1,13.345,25.478Z" transform="translate(0 0)" fill="#fff"/>
    </g>
  </g>
</svg>
