<svg xmlns="http://www.w3.org/2000/svg" xmlns:xlink="http://www.w3.org/1999/xlink" width="1767.525" height="2703.746" viewBox="0 0 1767.525 2703.746">
  <defs>
    <linearGradient id="linear-gradient" x1="0.5" x2="0.5" y2="1" gradientUnits="objectBoundingBox">
      <stop offset="0" stop-color="#fff"/>
      <stop offset="0.042" stop-color="#fff"/>
      <stop offset="0.084" stop-color="#ff7811"/>
      <stop offset="0.213" stop-color="#ff7811"/>
      <stop offset="0.255" stop-color="#6eb639"/>
      <stop offset="0.552" stop-color="#5bc1d4"/>
      <stop offset="1" stop-color="#5bc1d4"/>
    </linearGradient>
  </defs>
  <g id="Group_4300" data-name="Group 4300" transform="translate(-68.724 -625.67)">
    <path id="Union_7" data-name="Union 7" d="M5511.832-7043.443C5514.15-7040.2,5511.225-7040.865,5511.832-7043.443Zm4.1-4.168-2.91-.727c.647-2.6,1.33-5.215,2.027-7.771l2.894.787C5517.247-7052.785,5516.571-7050.191,5515.928-7047.611Zm3.35-12.49-2.883-.83c.741-2.574,1.519-5.164,2.311-7.693l2.863.9C5520.783-7065.221,5520.013-7062.654,5519.277-7060.1Zm3.816-12.379-2.851-.939c.838-2.545,1.715-5.1,2.6-7.6l2.826,1.008C5524.792-7077.537,5523.924-7075,5523.094-7072.48Zm4.286-12.205-2.81-1.053c.938-2.51,1.918-5.029,2.91-7.492l2.783,1.123C5529.279-7089.67,5528.311-7087.174,5527.38-7084.686Zm4.777-12.012-2.763-1.168c1.042-2.469,2.127-4.945,3.225-7.363l2.732,1.242C5534.264-7101.594,5533.189-7099.143,5532.157-7096.7Zm5.294-11.812-2.71-1.285c1.149-2.422,2.343-4.848,3.55-7.215l2.673,1.363C5539.771-7113.3,5538.588-7110.9,5537.451-7108.51Zm5.812-11.551-2.649-1.41c1.259-2.363,2.564-4.734,3.881-7.043l2.606,1.484C5545.8-7124.744,5544.508-7122.4,5543.263-7120.061Zm6.338-11.264-2.579-1.533c1.368-2.3,2.785-4.609,4.214-6.855l2.532,1.609C5552.355-7135.881,5550.953-7133.6,5549.6-7131.324Zm6.869-10.943-2.5-1.656c1.478-2.234,3.008-4.469,4.547-6.643l2.449,1.732C5559.443-7146.686,5557.932-7144.475,5556.47-7142.268Zm7.4-10.594-2.416-1.777c1.587-2.156,3.228-4.311,4.875-6.406l2.359,1.852C5567.061-7157.119,5565.439-7154.99,5563.871-7152.861Zm7.927-10.207-2.321-1.9c1.691-2.07,3.438-4.137,5.192-6.148l2.261,1.973C5575.2-7167.158,5573.47-7165.113,5571.8-7163.068Zm8.437-9.789-2.221-2.016c1.793-1.977,3.645-3.953,5.5-5.871l2.155,2.086C5583.836-7176.764,5582.008-7174.811,5580.234-7172.857Zm8.928-9.34-2.115-2.129c1.893-1.881,3.843-3.758,5.8-5.582l2.046,2.2C5592.959-7185.912,5591.031-7184.057,5589.162-7182.2Zm9.4-8.871-2-2.234c1.985-1.779,4.028-3.555,6.074-5.277l1.932,2.295C5602.539-7194.584,5600.52-7192.828,5598.558-7191.068Zm9.837-8.381-1.889-2.332c2.071-1.676,4.2-3.346,6.332-4.967l1.814,2.391C5612.547-7202.758,5610.44-7201.107,5608.395-7199.449Zm10.244-7.879-1.77-2.424c2.15-1.57,4.359-3.133,6.568-4.646l1.7,2.475C5622.949-7210.428,5620.765-7208.881,5618.639-7207.328Zm10.621-7.369-1.65-2.5c2.221-1.465,4.5-2.918,6.781-4.328l1.577,2.553C5633.714-7217.584,5631.457-7216.143,5629.26-7214.7Zm10.961-6.855-1.53-2.578c2.286-1.355,4.633-2.705,6.974-4.008l1.459,2.621C5644.8-7224.229,5642.484-7222.893,5640.221-7221.553Zm11.27-6.344-1.413-2.645c2.343-1.252,4.747-2.494,7.144-3.691l1.342,2.684C5656.189-7230.363,5653.811-7229.135,5651.49-7227.9Zm11.54-5.84-1.3-2.705c2.394-1.146,4.847-2.285,7.293-3.381l1.227,2.738C5667.831-7236,5665.4-7234.873,5663.03-7233.736Zm650.711-4.367c-2.656-.006-5.36-.023-8.038-.057l.035-3c2.668.031,5.363.051,8.01.055Zm4.98,0-.012-3c2.669-.012,5.365-.035,8.013-.074l.043,3C6324.107-7238.143,6321.4-7238.119,6318.722-7238.107Zm-18.019-.127c-2.644-.047-5.335-.107-8-.178l.081-3c2.654.07,5.337.133,7.971.18Zm31.063-.033-.061-3c2.658-.055,5.342-.123,7.979-.205l.093,3C6337.131-7238.393,6334.436-7238.322,6331.766-7238.268Zm-44.1-.3c-2.634-.086-5.313-.187-7.968-.3l.125-3c2.645.111,5.316.209,7.941.3Zm57.131-.082-.113-3c2.648-.1,5.322-.217,7.947-.344l.146,3C6350.138-7238.863,6347.453-7238.748,6344.794-7238.646Zm-669.983-.437-1.184-2.756c2.438-1.045,4.936-2.082,7.424-3.08l1.115,2.785C5679.7-7241.146,5677.227-7240.119,5674.811-7239.084Zm599.872,0c-2.647-.125-5.342-.264-8.008-.412l.167-3c2.658.148,5.344.287,7.982.412Zm83.122-.168-.166-2.994c2.646-.148,5.316-.312,7.938-.488l.2,2.992C6363.145-7239.566,6360.463-7239.4,6357.8-7239.254Zm-96.113-.537c-2.655-.164-5.358-.34-8.033-.527l.209-2.992c2.666.186,5.36.363,8.009.525Zm109.105-.309-.223-2.992c2.65-.2,5.326-.412,7.951-.639l.258,2.99C6376.146-7240.514,6373.459-7240.3,6370.8-7240.1Zm-122.107-.578c-2.639-.2-5.324-.408-7.98-.629l.248-2.988c2.648.219,5.325.43,7.955.627Zm135.079-.512-.28-2.988c2.652-.25,5.328-.518,7.955-.8l.318,2.982C6389.123-7241.711,6386.434-7241.441,6383.769-7241.189Zm-148.084-.545c-2.625-.23-5.3-.475-7.937-.729l.286-2.986c2.634.252,5.3.5,7.914.727Zm161.03-.8-.341-2.982c2.651-.3,5.328-.625,7.953-.961l.38,2.977C6402.069-7243.17,6399.381-7242.846,6396.715-7242.539Zm-173.955-.412c-2.643-.266-5.33-.547-7.99-.832l.322-2.984c2.652.287,5.333.566,7.967.832Zm-535.959-1-1.074-2.8c2.477-.949,5.012-1.887,7.536-2.787l1.008,2.826C5691.769-7245.822,5689.256-7244.891,5686.8-7243.951Zm722.848-.207-.4-2.973c2.645-.359,5.312-.74,7.928-1.133l.444,2.967C6414.987-7244.9,6412.306-7244.52,6409.648-7244.158Zm-199.828-.172c-2.639-.3-5.322-.609-7.977-.928l.357-2.979c2.647.318,5.323.629,7.954.926Zm-12.959-1.535c-2.617-.326-5.278-.668-7.911-1.012l.391-2.977c2.626.346,5.281.688,7.892,1.012Zm225.689-.191-.47-2.965c2.632-.416,5.287-.855,7.89-1.307l.513,2.955C6427.865-7246.92,6425.2-7246.477,6422.551-7246.057Zm-238.579-1.488c-1.4-.187-2.813-.383-4.214-.578h0c-.162-.016-.882-.078-3.674-.3l.235-2.992,2.8.223c.321.027.565.047.729.063l.2.016c.042,0,.083.012.122.016h0c1.4.2,2.812.391,4.2.578Zm251.434-.7-.538-2.949c2.619-.479,5.261-.98,7.85-1.492l.582,2.945C6440.694-7249.232,6438.039-7248.727,6435.405-7248.248Zm-736.434-.105-.968-2.84c2.51-.855,5.076-1.7,7.631-2.506l.905,2.861C5704.006-7250.037,5701.46-7249.2,5698.972-7248.354Zm472.124-.457-7.971-.617.231-2.992c3.022.234,5.7.441,7.972.619Zm-12.964-1c-2.487-.191-5.151-.4-7.97-.613l.23-2.992,7.971.613Zm290.071-.924-.609-2.937c2.606-.541,5.232-1.105,7.808-1.682l.653,2.93C6453.465-7251.85,6450.824-7251.281,6448.2-7250.738Zm-303.027-.076c-2.559-.2-5.223-.4-7.977-.613l.23-2.99q4.132.319,7.977.615Zm-12.963-1-7.982-.613.23-2.992q4.085.316,7.981.613Zm-420.914-.5-.866-2.871c2.537-.766,5.132-1.518,7.714-2.236l.8,2.889C5716.391-7253.814,5713.816-7253.066,5711.3-7252.309Zm407.95-.5-7.978-.613.229-2.99,7.978.611Zm341.687-.738-.683-2.92c2.591-.605,5.2-1.236,7.759-1.877l.729,2.91C6466.168-7254.787,6463.542-7254.152,6460.936-7253.545Zm-354.65-.256-7.977-.611.229-2.992,7.978.613Zm-12.962-.994-7.978-.611.229-2.99,7.978.609Zm-12.964-.992-7.977-.611.229-2.99,7.979.609Zm-356.6-.047-.769-2.9c2.562-.678,5.18-1.346,7.783-1.979l.711,2.914C5728.9-7257.17,5726.3-7256.508,5723.758-7255.834Zm749.835-.84-.759-2.9c2.573-.672,5.166-1.375,7.705-2.084l.808,2.889C6478.791-7258.057,6476.182-7257.352,6473.593-7256.674Zm-406.2-.105-7.977-.611.229-2.99,7.978.609Zm-12.963-.992-7.978-.609.229-2.992,7.978.609Zm-12.962-.99-7.979-.609.229-2.992,7.98.609Zm-305.143-.189-.675-2.922c2.581-.6,5.219-1.18,7.84-1.734l.62,2.936C5741.512-7260.121,5738.893-7259.541,5736.329-7258.951Zm292.181-.8-7.98-.609.229-2.99,7.98.607Zm457.651-.391-.838-2.883c2.554-.742,5.127-1.514,7.646-2.295l.889,2.865C6491.321-7261.67,6488.732-7260.891,6486.161-7260.143Zm-470.617-.6-7.974-.607.229-2.992,7.973.607ZM5749-7261.674l-.587-2.941c2.6-.52,5.25-1.023,7.886-1.5l.534,2.953C5754.211-7262.689,5751.575-7262.189,5749-7261.674Zm253.585-.055-7.978-.607.228-2.99,7.978.605Zm-12.965-.984c-2.816-.215-5.48-.418-7.975-.605l.227-2.992,7.977.605Zm-12.965-.984-7.977-.6.225-2.992,7.979.6Zm521.978-.266-.919-2.855c2.532-.814,5.082-1.66,7.577-2.516l.972,2.84C6503.745-7265.635,6501.178-7264.783,6498.628-7263.963Zm-736.89-.062-.5-2.957c2.61-.443,5.274-.871,7.922-1.275l.452,2.965C5766.98-7264.893,5764.331-7264.465,5761.738-7264.025Zm201.951-.648c-3.272-.242-4.018-.293-4.156-.3h-.043l-.079-.008-3.712-.391.314-2.984,3.662.387c.23.012,1.008.066,4.236.3Zm-12.968-1.223c-2.9-.3-5.5-.566-7.948-.811l.3-2.986c2.453.246,5.058.512,7.961.813Zm-176.179-.123-.422-2.971c2.619-.371,5.295-.73,7.95-1.062l.374,2.977C5779.806-7266.744,5777.146-7266.389,5774.543-7266.02Zm163.262-1.174c-2.709-.262-5.387-.51-7.958-.742l.267-2.986c2.578.23,5.264.48,7.979.742Zm-150.41-.482-.345-2.979c2.63-.307,5.314-.6,7.979-.865l.3,2.984C5792.68-7268.268,5790.01-7267.979,5787.395-7267.676Zm723.584-.467-1-2.824c2.508-.891,5.032-1.816,7.5-2.746l1.058,2.809C6516.047-7269.967,6513.5-7269.037,6510.979-7268.143Zm-586.117-.227c-2.676-.227-5.354-.443-7.958-.643l.229-2.99c2.613.2,5.3.416,7.982.645Zm-124.57-.643-.272-2.986c2.636-.242,5.326-.469,8-.674l.23,2.99C5805.59-7269.477,5802.914-7269.252,5800.291-7269.012Zm111.635-.369c-2.668-.191-5.349-.371-7.969-.533l.188-2.994c2.629.164,5.318.344,7.994.535Zm-98.708-.66-.2-2.994c2.64-.18,5.332-.346,8-.49l.163,3C5818.522-7270.385,5815.844-7270.221,5813.218-7270.041Zm85.753-.17c-2.662-.15-5.342-.289-7.967-.412l.141-3c2.635.121,5.324.262,8,.414Zm-72.809-.57-.139-3c2.645-.121,5.34-.229,8.014-.318l.1,3C5831.477-7271.01,5828.794-7270.9,5826.162-7270.781Zm59.855-.061c-2.664-.109-5.348-.2-7.979-.283l.091-3c2.641.078,5.336.176,8.009.283Zm-46.895-.4-.077-3c2.646-.068,5.345-.121,8.021-.156l.039,3C5844.442-7271.365,5841.756-7271.314,5839.123-7271.246Zm33.928-.014c-2.666-.062-5.354-.111-7.988-.145l.037-3c2.646.033,5.345.082,8.021.145Zm-20.955-.189-.019-3c2.644-.016,5.339-.018,8.013,0l-.017,3C5857.411-7271.467,5854.727-7271.465,5852.1-7271.449Zm671.1-1.244-1.09-2.793c2.479-.969,4.975-1.973,7.415-2.98l1.146,2.773C6528.208-7274.678,6525.694-7273.668,6523.2-7272.693Zm12.084-4.941-1.18-2.758c2.443-1.047,4.9-2.127,7.3-3.215l1.236,2.734C6540.217-7279.779,6537.741-7278.689,6535.279-7277.635Zm11.918-5.336-1.272-2.719c2.4-1.123,4.813-2.285,7.172-3.449l1.329,2.688C6552.049-7285.275,6549.616-7284.1,6547.2-7282.971Zm11.728-5.742-1.366-2.67c2.357-1.205,4.728-2.451,7.042-3.7l1.424,2.641C6563.69-7291.182,6561.3-7289.928,6558.925-7288.713Zm11.514-6.148-1.461-2.619c2.315-1.291,4.64-2.623,6.909-3.955l1.521,2.586C6575.118-7297.5,6572.773-7296.162,6570.438-7294.861Zm11.279-6.562-1.557-2.566c2.267-1.375,4.542-2.793,6.762-4.213l1.617,2.527C6586.3-7304.244,6584-7302.812,6581.718-7301.424Zm11.021-6.982-1.654-2.5c2.214-1.465,4.435-2.969,6.6-4.477l1.715,2.461C6597.213-7311.4,6594.972-7309.881,6592.738-7308.406Zm10.756-7.416-1.75-2.434c2.148-1.547,4.3-3.135,6.4-4.725l1.811,2.393C6607.838-7318.984,6605.664-7317.381,6603.494-7315.822Zm10.453-7.836-1.848-2.363c2.084-1.629,4.172-3.3,6.206-4.98l1.907,2.316C6618.159-7326.994,6616.052-7325.3,6613.947-7323.658Zm10.12-8.254-1.943-2.285c2.016-1.715,4.034-3.477,6-5.236l2,2.234C6628.141-7335.422,6626.1-7333.643,6624.067-7331.912Zm9.763-8.664-2.037-2.2c1.943-1.8,3.887-3.646,5.776-5.488l2.095,2.146C6637.755-7344.256,6635.793-7342.391,6633.83-7340.576Zm9.4-9.078-2.13-2.113c1.86-1.875,3.721-3.8,5.528-5.723l2.185,2.059C6646.99-7353.494,6645.111-7351.549,6643.232-7349.654Zm9-9.471-2.219-2.02c1.779-1.955,3.555-3.959,5.279-5.955l2.271,1.957C6655.822-7363.123,6654.029-7361.1,6652.232-7359.125Zm8.579-9.846-2.3-1.922c1.692-2.027,3.381-4.109,5.018-6.182l2.354,1.859C6664.227-7373.121,6662.521-7371.02,6660.812-7368.971Zm8.149-10.215-2.386-1.818c1.6-2.1,3.2-4.248,4.741-6.391l2.434,1.756C6672.189-7383.475,6670.578-7381.3,6668.961-7379.186Zm7.7-10.555-2.463-1.715c1.509-2.166,3.01-4.385,4.461-6.594l2.507,1.65C6679.7-7394.17,6678.182-7391.928,6676.658-7389.74Zm7.229-10.879-2.534-1.605c1.414-2.229,2.818-4.51,4.174-6.779l2.576,1.537C6686.733-7405.174,6685.315-7402.869,6683.888-7400.619Zm6.758-11.18-2.6-1.5c1.315-2.287,2.621-4.625,3.88-6.951l2.639,1.428C6693.292-7416.471,6691.974-7414.107,6690.646-7411.8Zm6.272-11.457-2.66-1.387c1.217-2.34,2.423-4.73,3.583-7.109l2.7,1.316C6699.365-7428.033,6698.148-7425.619,6696.918-7423.256Zm5.786-11.711-2.717-1.273c1.118-2.387,2.224-4.828,3.285-7.252l2.748,1.2C6704.949-7439.842,6703.833-7437.377,6702.7-7434.967Zm5.295-11.939-2.767-1.16c1.02-2.432,2.024-4.914,2.986-7.381l2.795,1.09C6710.043-7451.867,6709.027-7449.361,6708-7446.906Zm4.8-12.143-2.812-1.049c.921-2.471,1.826-4.992,2.689-7.494l2.836.977C6714.646-7464.088,6713.732-7461.543,6712.8-7459.049Zm4.316-12.324-2.851-.937c.823-2.5,1.629-5.061,2.395-7.6l2.872.869C6718.763-7476.48,6717.95-7473.9,6717.12-7471.373Zm3.832-12.482-2.884-.826c.725-2.535,1.432-5.117,2.1-7.682l2.9.758C6722.4-7489.02,6721.684-7486.412,6720.952-7483.855Zm3.354-12.619-2.913-.715c.63-2.559,1.24-5.17,1.814-7.758l2.929.652C6725.557-7501.686,6724.941-7499.057,6724.307-7496.475Zm2.884-12.73-2.937-.609c.536-2.582,1.051-5.213,1.532-7.82l2.95.545C6728.25-7514.463,6727.73-7511.809,6727.19-7509.205Zm2.421-12.826-2.957-.5c.443-2.6.865-5.246,1.254-7.869l2.968.441C6730.484-7527.318,6730.059-7524.65,6729.611-7522.031Zm1.969-12.9-2.973-.4c.353-2.613.684-5.271.982-7.908l2.98.34C6732.269-7540.248,6731.936-7537.568,6731.58-7534.936Zm1.525-12.959-2.985-.3c.265-2.625.5-5.3.717-7.941l2.991.24C6733.614-7553.23,6733.371-7550.539,6733.105-7547.895Zm1.091-13-2.993-.2c.178-2.631.332-5.309.458-7.957l3,.145C6734.53-7566.244,6734.375-7563.549,6734.2-7560.9Zm.669-13.033-3-.107c.094-2.635.162-5.316.205-7.965l3,.047C6735.028-7579.285,6734.959-7576.584,6734.865-7573.93Zm.257-13.043-3-.012c.011-2.639,0-5.322-.043-7.975l3-.043C6735.118-7592.332,6735.133-7589.631,6735.122-7586.973Zm-3.146-12.965c-.069-2.639-.165-5.318-.283-7.967l3-.135c.119,2.668.216,5.365.285,8.021Zm-.534-12.947c-.147-2.633-.322-5.309-.519-7.953l2.992-.223c.2,2.662.373,5.355.521,8.008Zm-.915-12.922c-.225-2.633-.476-5.3-.748-7.941l2.985-.309c.273,2.656.526,5.348.753,7.994Zm-1.284-12.893c-.3-2.623-.626-5.287-.972-7.916l2.975-.391c.348,2.646.677,5.326.978,7.967Zm-1.647-12.854c-.372-2.613-.771-5.27-1.189-7.887l2.963-.473c.42,2.637.822,5.3,1.2,7.936Zm-2-12.8c-.443-2.605-.915-5.246-1.4-7.852l2.948-.553c.492,2.623.967,5.279,1.412,7.9Zm-2.346-12.746c-.513-2.59-1.055-5.219-1.611-7.811l2.933-.631c.561,2.609,1.106,5.254,1.622,7.859Zm-2.683-12.68c-.581-2.578-1.192-5.189-1.817-7.766l2.916-.707c.629,2.594,1.243,5.221,1.827,7.814Zm-3.015-12.605c-.648-2.562-1.326-5.16-2.017-7.717l2.9-.781c.694,2.572,1.376,5.186,2.028,7.762Zm-3.338-12.523c-.715-2.547-1.459-5.125-2.214-7.664l2.876-.855c.76,2.555,1.508,5.148,2.227,7.711Zm-3.657-12.436c-.777-2.527-1.587-5.088-2.405-7.605l2.854-.928c.822,2.535,1.637,5.109,2.419,7.65Zm-3.969-12.342c-.841-2.506-1.714-5.043-2.595-7.541l2.829-1c.886,2.512,1.764,5.064,2.61,7.586Zm-4.275-12.236c-.9-2.486-1.84-5-2.782-7.477l2.8-1.068c.948,2.49,1.889,5.02,2.8,7.52Zm-4.578-12.127c-.965-2.465-1.963-4.955-2.966-7.406l2.776-1.137c1.009,2.465,2.013,4.971,2.982,7.449Zm-4.876-12.012c-1.025-2.439-2.084-4.906-3.146-7.33l2.747-1.205c1.068,2.439,2.134,4.92,3.165,7.373Zm-5.17-11.887c-1.086-2.414-2.2-4.855-3.326-7.252l2.717-1.271c1.129,2.41,2.254,4.863,3.345,7.293Zm-5.46-11.758c-1.146-2.387-2.323-4.8-3.5-7.168l2.686-1.336c1.187,2.381,2.372,4.8,3.523,7.207Zm-5.747-11.621c-1.2-2.357-2.441-4.738-3.679-7.078l2.651-1.4c1.245,2.352,2.489,4.746,3.7,7.119Zm-6.032-11.473c-1.261-2.328-2.557-4.68-3.851-6.986l2.615-1.469c1.3,2.32,2.605,4.684,3.873,7.025Zm-6.312-11.322c-1.317-2.3-2.672-4.615-4.023-6.889l2.579-1.533c1.359,2.287,2.721,4.619,4.047,6.928Zm-6.591-11.162c-1.376-2.264-2.787-4.547-4.194-6.785l2.539-1.6c1.416,2.254,2.835,4.549,4.219,6.824Zm-6.869-10.992c-1.432-2.23-2.9-4.477-4.363-6.68l2.5-1.66c1.472,2.215,2.949,4.475,4.39,6.717Zm-7.144-10.816c-1.487-2.193-3.013-4.4-4.532-6.566l2.456-1.723c1.528,2.176,3.062,4.4,4.559,6.6Zm-7.416-10.629c-1.544-2.156-3.125-4.324-4.7-6.445l2.41-1.787c1.583,2.135,3.174,4.316,4.728,6.482Zm-1340.1-3.215c-1.941,0-3.866-.029-5.749-.086l.09-3c2.587.078,5.257.1,7.938.07l.034,3Q5297.171-7880.938,5296.016-7880.939Zm7.354-.133-.106-3c2.59-.09,5.259-.232,7.933-.422l.212,2.992C5308.7-7881.311,5305.994-7881.166,5303.369-7881.072Zm-18.139-.176c-2.719-.156-5.424-.379-8.039-.662l.322-2.982c2.566.277,5.222.5,7.893.652Zm31.193-.66-.271-2.986c2.586-.236,5.246-.518,7.906-.842l.361,2.979C5321.729-7882.432,5319.039-7882.146,5316.424-7881.908Zm-44.25-.629c-2.7-.383-5.382-.84-7.967-1.363l.593-2.941c2.528.512,5.151.961,7.795,1.336Zm57.234-.871-.413-2.969c2.573-.359,5.219-.762,7.861-1.2l.489,2.961C5334.678-7884.174,5332.008-7883.768,5329.408-7883.408Zm-70.143-1.59c-2.65-.646-5.273-1.379-7.8-2.18l.907-2.859c2.458.779,5.015,1.492,7.6,2.123Zm83.029-.473-.533-2.953c2.563-.463,5.2-.969,7.822-1.5l.6,2.939C5347.535-7886.449,5344.881-7885.939,5342.295-7885.471Zm12.8-2.551-.637-2.934c2.549-.553,5.165-1.148,7.773-1.77l.693,2.918C5360.3-7889.182,5357.664-7888.58,5355.1-7888.021Zm1273.334-.141c-1.6-2.113-3.236-4.238-4.864-6.318l2.362-1.85c1.639,2.094,3.285,4.232,4.895,6.359Zm-1381.76-.66c-2.558-.941-5.08-1.982-7.5-3.094l1.253-2.727c2.35,1.078,4.8,2.09,7.285,3.008Zm121.129-2.172-.728-2.91c2.534-.633,5.132-1.307,7.722-2l.777,2.9C5372.965-7892.309,5370.35-7891.631,5367.8-7890.994Zm-133.185-3.16c-2.405-1.258-4.771-2.629-7.031-4.07l1.613-2.529c2.188,1.4,4.479,2.721,6.81,3.941Zm145.8-.18-.807-2.887c2.516-.7,5.091-1.445,7.656-2.2l.85,2.879C5385.533-7895.783,5382.941-7895.039,5380.412-7894.334Zm12.5-3.656-.876-2.867c1.355-.414,2.736-.842,4.105-1.271l1.949-.611v.055c.6-.187,1.207-.379,1.523-.48l.908,2.859c-1.215.385-2.035.641-2.587.809-.313.094-.547.16-.714.205a3.216,3.216,0,0,1-.336.076C5395.563-7898.8,5394.227-7898.389,5392.915-7897.99Zm1227.557-.4c-1.654-2.072-3.347-4.154-5.03-6.189l2.313-1.91c1.693,2.047,3.4,4.143,5.062,6.227Zm-1397.1-2.682c-2.193-1.574-4.344-3.266-6.391-5.025l1.956-2.273c1.981,1.7,4.061,3.338,6.183,4.861Zm181.923-.758-.915-2.859.039-.012c2.187-.7,4.666-1.492,7.584-2.422l.909,2.859c-2.915.928-5.394,1.721-7.579,2.422Zm12.384-3.949-.906-2.859c2.561-.812,5.142-1.625,7.67-2.42l.9,2.861C5422.818-7907.4,5420.24-7906.59,5417.682-7905.779Zm1194.564-2.625c-1.71-2.025-3.457-4.062-5.2-6.051l2.26-1.975c1.748,2,3.508,4.053,5.229,6.09Zm-1399.023-1.109c-1.933-1.857-3.822-3.832-5.615-5.873l2.254-1.98c1.737,1.977,3.567,3.891,5.439,5.688Zm216.905-.18-.894-2.865c2.52-.787,5.082-1.584,7.615-2.367l.887,2.865C5435.205-7911.275,5432.645-7910.48,5430.128-7909.693Zm12.405-3.846-.883-2.869c2.533-.777,5.113-1.568,7.666-2.348l.875,2.871C5447.641-7915.107,5445.064-7914.318,5442.533-7913.539Zm12.393-3.787-.871-2.871c2.533-.77,5.111-1.547,7.662-2.312l.863,2.871C5460.033-7918.871,5457.457-7918.094,5454.926-7917.326Zm1148.827-.867c-1.764-1.977-3.566-3.965-5.357-5.9l2.205-2.035c1.8,1.953,3.616,3.951,5.392,5.943Zm-1399.4-1.09c-1.651-2.086-3.262-4.293-4.785-6.555l2.489-1.676c1.479,2.2,3.043,4.34,4.647,6.367Zm263.024-1.793-.86-2.875c2.542-.762,5.128-1.531,7.683-2.289l.854,2.877C5472.5-7922.607,5469.92-7921.838,5467.381-7921.076Zm12.448-3.7-.849-2.877c2.54-.748,5.122-1.508,7.674-2.254l.842,2.881C5484.946-7926.281,5482.367-7925.523,5479.829-7924.775Zm1115.165-2.969c-1.819-1.93-3.676-3.863-5.521-5.754l2.147-2.1c1.855,1.9,3.726,3.85,5.557,5.791Zm-1102.659-.7-.838-2.879c2.54-.738,5.122-1.488,7.671-2.223l.832,2.883C5497.451-7929.924,5494.873-7929.178,5492.335-7928.439Zm-295.5-1.664c-1.377-2.26-2.715-4.633-3.977-7.055l2.66-1.387c1.231,2.363,2.536,4.678,3.879,6.879Zm307.947-1.932-.826-2.885c2.557-.732,5.154-1.477,7.721-2.205l.82,2.885C5509.938-7933.51,5507.342-7932.768,5504.785-7932.035Zm12.494-3.561-.816-2.887c2.555-.723,5.149-1.453,7.711-2.174l.812,2.889C5522.426-7937.049,5519.832-7936.318,5517.279-7935.6Zm1068.693-1.449c-1.872-1.877-3.784-3.758-5.682-5.594l2.086-2.156c1.91,1.848,3.834,3.742,5.72,5.633Zm-1056.172-2.07-.807-2.891c2.553-.711,5.144-1.434,7.7-2.141l.8,2.891C5534.94-7940.549,5532.352-7939.826,5529.8-7939.115Zm-339.188-2.574c-1.125-2.381-2.216-4.871-3.243-7.4l2.779-1.127c1.006,2.48,2.074,4.918,3.176,7.25Zm351.726-.9-.8-2.893c2.551-.7,5.141-1.412,7.7-2.109l.79,2.893C5547.474-7944,5544.887-7943.295,5542.338-7942.592Zm12.549-3.432-.787-2.9c2.551-.691,5.139-1.391,7.693-2.078l.779,2.895C5560.021-7947.416,5557.435-7946.717,5554.887-7946.023Zm1021.8-.059c-1.927-1.822-3.893-3.648-5.842-5.428l2.021-2.215c1.963,1.789,3.942,3.629,5.881,5.463Zm-1009.257-3.326-.776-2.9c2.555-.684,5.145-1.373,7.7-2.051l.77,2.9C5572.575-7950.781,5569.986-7950.092,5567.435-7949.408Zm12.554-3.338-.766-2.9c2.559-.676,5.154-1.359,7.714-2.027l.76,2.9C5585.139-7954.1,5582.545-7953.422,5579.988-7952.746Zm-394.439-1.057c-.908-2.463-1.785-5.031-2.607-7.637l2.86-.9c.809,2.559,1.671,5.082,2.562,7.5Zm1381.6-1.043c-1.98-1.766-4-3.531-6-5.25l1.955-2.277c2.016,1.732,4.048,3.51,6.04,5.287Zm-974.59-1.2-.756-2.9c2.561-.666,5.159-1.34,7.722-2l.749,2.906C5597.714-7957.381,5595.117-7956.709,5592.559-7956.041Zm12.584-3.254-.746-2.906c2.563-.656,5.162-1.32,7.727-1.973l.738,2.906C5610.3-7960.615,5607.7-7959.951,5605.143-7959.295Zm12.6-3.207-.736-2.91c2.564-.648,5.164-1.3,7.729-1.945l.729,2.91C5622.9-7963.8,5620.3-7963.15,5617.74-7962.5Zm939.609-.82c-2.031-1.7-4.1-3.406-6.156-5.062l1.884-2.336c2.068,1.668,4.155,3.385,6.2,5.1Zm-927.014-2.342-.726-2.912c2.569-.641,5.175-1.285,7.743-1.918l.719,2.91C5635.506-7966.949,5632.9-7966.3,5630.336-7965.664Zm-448.849-.6c-.724-2.52-1.42-5.139-2.071-7.789l2.913-.715c.642,2.611,1.329,5.193,2.042,7.676Zm461.455-2.518-.716-2.912c2.576-.633,5.188-1.27,7.761-1.9l.708,2.916C5648.125-7970.049,5645.516-7969.412,5642.942-7968.781Zm904.357-2.709c-2.083-1.641-4.206-3.281-6.312-4.871l1.811-2.393c2.119,1.6,4.258,3.256,6.357,4.906Zm-891.739-.363-.7-2.916c2.582-.623,5.2-1.252,7.778-1.869l.7,2.918C5660.756-7973.105,5658.141-7972.477,5655.561-7971.854Zm12.633-3.027-.694-2.918c2.589-.617,5.212-1.238,7.8-1.848l.688,2.922C5673.4-7976.117,5670.779-7975.5,5668.193-7974.881Zm12.646-2.984-.685-2.92c2.6-.607,5.227-1.221,7.819-1.822l.678,2.924C5686.061-7979.084,5683.433-7978.471,5680.84-7977.865Zm-502.571-1.086c-.569-2.551-1.115-5.2-1.624-7.881l2.947-.561c.5,2.648,1.043,5.268,1.6,7.789ZM6537-7979.344c-2.134-1.572-4.307-3.143-6.46-4.666l1.732-2.449c2.17,1.535,4.359,3.117,6.508,4.7Zm-843.5-1.459-.674-2.924c2.6-.6,5.228-1.2,7.82-1.791l.666,2.926C5698.723-7982,5696.094-7981.4,5693.5-7980.8Zm12.676-2.895-.662-2.926c2.592-.586,5.219-1.178,7.808-1.758l.655,2.928C5711.391-7984.873,5708.766-7984.283,5706.176-7983.7Zm12.691-2.848-.65-2.93c2.588-.574,5.211-1.156,7.8-1.723l.645,2.93C5724.074-7987.7,5721.453-7987.119,5718.867-7986.545Zm807.585-.316c-2.184-1.5-4.407-3-6.609-4.455l1.651-2.506c2.219,1.465,4.46,2.975,6.659,4.488Zm-794.9-2.48-.64-2.932c2.592-.566,5.217-1.137,7.8-1.7l.634,2.934C5736.77-7990.479,5734.145-7989.908,5731.556-7989.342Zm-555.807-2.473c-.437-2.672-.8-5.369-1.069-8.012l2.983-.309c.267,2.586.618,5.223,1.047,7.836Zm568.5-.277-.629-2.934c2.6-.557,5.234-1.119,7.83-1.668l.623,2.934C5749.475-7993.209,5746.842-7992.648,5744.244-7992.092Zm771.424-1.937c-2.231-1.43-4.5-2.855-6.754-4.23l1.565-2.559c2.269,1.387,4.559,2.82,6.808,4.262Zm-758.717-.762-.619-2.937c2.609-.547,5.252-1.1,7.855-1.645l.611,2.938C5762.2-7995.895,5759.557-7995.342,5756.951-7994.791Zm12.723-2.656-.606-2.937c2.606-.539,5.247-1.082,7.849-1.611l.6,2.939C5774.917-7998.525,5772.278-7997.984,5769.674-7997.447Zm12.741-2.605-.595-2.941c2.6-.527,5.238-1.057,7.836-1.578l.588,2.943C5787.65-8001.109,5785.016-8000.58,5782.415-8000.053Zm722.234-.781c-2.278-1.352-4.6-2.7-6.893-4l1.478-2.609c2.313,1.309,4.65,2.664,6.947,4.027Zm-709.488-1.773-.584-2.943c2.6-.518,5.24-1.037,7.838-1.545l.577,2.943C5800.4-8003.643,5797.762-8003.123,5795.161-8002.607Zm-620.9-2.26c-.174-2.7-.26-5.422-.258-8.088l3,0c0,2.6.082,5.26.251,7.895Zm633.643-.242-.572-2.945c2.611-.508,5.258-1.018,7.863-1.518l.564,2.945C5813.152-8006.127,5810.51-8005.617,5807.9-8005.109Zm685.5-2.143c-2.323-1.273-4.688-2.537-7.028-3.754l1.385-2.66c2.359,1.227,4.742,2.5,7.086,3.781Zm-672.747-.309-.561-2.949c2.618-.5,5.27-1,7.883-1.488l.553,2.949C5825.924-8008.559,5823.273-8008.059,5820.658-8007.561Zm12.775-2.4-.549-2.949c2.615-.486,5.264-.975,7.871-1.453l.541,2.953C5838.691-8010.936,5836.046-8010.447,5833.434-8009.963Zm12.793-2.35-.537-2.951c2.612-.475,5.258-.951,7.862-1.416l.528,2.951C5851.479-8013.262,5848.835-8012.785,5846.227-8012.312Zm635.718-.959c-2.366-1.191-4.774-2.369-7.156-3.5l1.287-2.711c2.4,1.143,4.831,2.33,7.218,3.529Zm-622.938-1.332-.522-2.955c2.618-.463,5.27-.93,7.882-1.385l.516,2.955C5864.271-8015.533,5861.623-8015.068,5859.006-8014.6Zm12.795-2.238-.51-2.957c2.625-.453,5.285-.908,7.9-1.354l.5,2.959C5877.081-8017.752,5874.424-8017.295,5871.8-8016.842Zm-694.693-1.047-3-.129c.115-2.7.324-5.412.621-8.072l2.98.332C5177.422-8023.166,5177.219-8020.518,5177.107-8017.889Zm1293.168-.988c-2.407-1.105-4.856-2.193-7.278-3.238l1.188-2.754c2.442,1.053,4.913,2.152,7.341,3.264Zm-585.662-.148-.5-2.959c2.624-.441,5.281-.885,7.9-1.318l.49,2.961C5889.888-8019.91,5887.234-8019.467,5884.613-8019.025Zm12.828-2.129-.484-2.961c2.621-.43,5.275-.859,7.89-1.281l.476,2.963C5902.711-8022.014,5900.061-8021.584,5897.441-8021.154Zm12.82-2.07-.471-2.961c2.627-.418,5.287-.838,7.906-1.246l.463,2.965C5915.543-8024.061,5912.887-8023.641,5910.262-8023.225Zm548.149-.828c-2.446-1.012-4.935-2.008-7.394-2.961l1.084-2.8c2.48.963,4.989,1.967,7.457,2.99Zm-535.315-1.182-.459-2.965c2.634-.406,5.3-.814,7.926-1.211l.447,2.967C5928.389-8026.049,5925.725-8025.641,5923.1-8025.234Zm12.848-1.951-.443-2.969c2.632-.393,5.3-.787,7.918-1.172l.436,2.969C5941.234-8027.975,5938.572-8027.58,5935.943-8027.186Zm510.418-1.594c-2.481-.918-5-1.82-7.5-2.68l.976-2.836c2.518.867,5.063,1.775,7.566,2.7Zm-497.555-.3-.43-2.969c2.631-.379,5.293-.762,7.914-1.133l.422,2.971C5954.094-8029.84,5951.435-8029.459,5948.807-8029.08Zm-770.443-1.57-2.963-.461c.414-2.656.926-5.332,1.523-7.955l2.926.668C5179.268-8035.846,5178.768-8033.238,5178.363-8030.65Zm783.3-.258-.415-2.969c2.636-.371,5.3-.738,7.932-1.1l.405,2.973C5966.961-8031.643,5964.3-8031.275,5961.663-8030.908Zm12.87-1.766-.4-2.973c2.64-.355,5.312-.711,7.941-1.059l.392,2.977C5979.838-8033.385,5977.17-8033.029,5974.533-8032.674Zm459.61-.369c-2.515-.824-5.071-1.627-7.6-2.389l.866-2.873c2.55.768,5.129,1.58,7.667,2.41Zm-446.726-1.334-.385-2.975c2.639-.342,5.309-.684,7.938-1.016l.376,2.977C5992.721-8035.061,5990.053-8034.717,5987.418-8034.377Zm12.893-1.637-.371-2.977c2.64-.328,5.312-.656,7.941-.977l.36,2.98C6005.614-8036.67,6002.946-8036.342,6000.311-8036.014Zm421.46-.816c-2.544-.727-5.13-1.43-7.685-2.092l.752-2.9c2.578.668,5.188,1.377,7.756,2.109Zm-408.567-.754-.354-2.979c2.644-.314,5.319-.627,7.954-.934l.346,2.979C6018.517-8038.213,6015.844-8037.9,6013.2-8037.584Zm12.905-1.5-.339-2.98c2.646-.3,5.322-.6,7.957-.893l.329,2.982C6031.424-8039.686,6028.75-8039.385,6026.108-8039.084Zm383.148-1.051c-2.569-.623-5.18-1.223-7.759-1.781l.637-2.934c2.6.566,5.237,1.172,7.83,1.8Zm-370.231-.383-.322-2.982c2.645-.287,5.322-.572,7.957-.846l.312,2.982C6044.34-8041.088,6041.667-8040.8,6039.025-8040.518Zm12.918-1.359-.3-2.986c2.646-.271,5.327-.541,7.965-.8l.295,2.986C6057.266-8042.42,6054.588-8042.15,6051.943-8041.877Zm344.683-1.059c-2.593-.521-5.227-1.018-7.828-1.473l.519-2.955c2.625.461,5.283.961,7.9,1.486Zm-331.755-.23-.289-2.986c2.65-.256,5.333-.51,7.973-.756l.277,2.984C6070.2-8043.678,6067.518-8043.424,6064.871-8043.166Zm-883.819-.02-2.893-.793c.71-2.584,1.521-5.186,2.412-7.734l2.832.992C5182.533-8048.238,5181.743-8045.7,5181.052-8043.186Zm896.755-1.2-.271-2.988c2.651-.238,5.334-.479,7.975-.709l.26,2.988C6083.134-8044.859,6080.455-8044.621,6077.807-8044.381Zm306.087-.85c-2.609-.416-5.261-.807-7.878-1.158l.4-2.973c2.643.355,5.318.748,7.953,1.168Zm-293.144-.287-.254-2.99c2.652-.225,5.336-.447,7.977-.662l.243,2.99C6096.078-8045.967,6093.4-8045.744,6090.75-8045.518Zm12.946-1.059-.235-2.992c2.654-.209,5.34-.416,7.982-.613l.225,2.992C6109.029-8046.994,6106.348-8046.787,6103.7-8046.576Zm267.381-.436c-2.623-.311-5.286-.592-7.916-.838l.278-2.988c2.654.25,5.343.535,7.99.848Zm-254.426-.545-.218-2.992c2.656-.193,5.343-.383,7.986-.564l.205,2.994C6121.986-8047.939,6119.3-8047.75,6116.651-8047.557Zm241.544-.719c-2.631-.211-5.309-.414-7.958-.609l.22-2.992c2.656.2,5.34.4,7.977.609Zm-228.585-.18-.2-2.994c2.657-.176,5.345-.35,7.99-.514l.187,3C6134.949-8048.8,6132.264-8048.631,6129.61-8048.455Zm215.642-.785c-2.637-.184-5.318-.361-7.973-.527l.189-3c2.66.168,5.349.348,7.99.531Zm-202.676-.031-.18-2.992c2.659-.16,5.35-.312,7.994-.461l.166,3C6147.916-8049.584,6145.23-8049.428,6142.576-8049.271Zm12.971-.727-.158-3c2.658-.141,5.349-.277,7.994-.406l.145,3C6160.887-8050.275,6158.2-8050.139,6155.547-8050Zm176.75-.074c-2.642-.156-5.33-.309-7.989-.449l.159-3c2.666.143,5.359.293,8.008.449Zm-163.775-.566-.139-3c2.661-.125,5.353-.242,8-.352l.124,3C6173.863-8050.879,6171.178-8050.762,6168.521-8050.639Zm150.807-.137c-2.64-.131-5.326-.256-7.982-.371l.129-3c2.664.113,5.355.24,8,.371Zm-137.832-.414-.116-3c2.663-.1,5.356-.2,8-.293l.1,3C6186.844-8051.393,6184.154-8051.293,6181.5-8051.189Zm124.852-.164c-2.639-.105-5.322-.205-7.977-.295l.1-3c2.66.09,5.351.189,7.994.293Zm-111.867-.293-.095-3c2.662-.084,5.354-.162,8-.234l.081,3C6199.826-8051.811,6197.139-8051.732,6194.48-8051.646Zm98.9-.164c-2.643-.08-5.331-.156-7.99-.223l.075-3c2.664.068,5.358.143,8.006.223Zm-85.909-.2-.073-3c2.662-.062,5.354-.121,8-.174l.06,3C6212.812-8052.133,6210.124-8052.074,6207.467-8052.01Zm72.929-.139c-2.646-.057-5.336-.107-8-.15l.048-3c2.667.043,5.362.094,8.014.152Zm-59.945-.127-.05-3c2.665-.043,5.359-.082,8.01-.113l.035,3C6225.8-8052.357,6223.109-8052.318,6220.45-8052.275Zm46.956-.1c-2.643-.033-5.331-.061-7.99-.082l.023-3c2.664.021,5.357.051,8.006.084Zm-33.97-.066-.026-3c2.666-.023,5.361-.039,8.012-.049l.012,3C6238.788-8052.479,6236.1-8052.463,6233.437-8052.439Zm20.979-.045c-2.352-.01-4.74-.016-7.111-.016-.293,0-.584,0-.876,0l0-3c.292,0,.585,0,.878,0,2.376,0,4.769.006,7.125.016Zm-1069.284-2.859-2.787-1.109c.986-2.48,2.077-4.977,3.238-7.42l2.71,1.289C5187.158-8060.2,5186.095-8057.764,5185.132-8055.344Zm5.371-11.662-2.655-1.393c1.234-2.354,2.571-4.723,3.973-7.041l2.567,1.551C5193.018-8071.621,5191.711-8069.307,5190.5-8067.006Zm6.521-11.074-2.51-1.641c1.449-2.219,3-4.449,4.6-6.635l2.418,1.775C5199.962-8082.439,5198.444-8080.252,5197.023-8078.08Zm7.51-10.445-2.361-1.854c1.633-2.08,3.359-4.174,5.134-6.221l2.269,1.963C5207.831-8092.623,5206.135-8090.568,5204.533-8088.525Zm8.342-9.816-2.211-2.027c1.783-1.945,3.658-3.9,5.571-5.82l2.123,2.117C5216.475-8102.186,5214.631-8100.256,5212.875-8098.342Zm9.038-9.2-2.069-2.172c1.907-1.818,3.9-3.65,5.93-5.441l1.988,2.246C5225.762-8111.145,5223.795-8109.338,5221.913-8107.545Zm9.61-8.621-1.937-2.291c2.012-1.7,4.106-3.416,6.227-5.1l1.861,2.354C5235.58-8119.541,5233.51-8117.848,5231.523-8116.166Zm10.077-8.078-1.815-2.387c2.1-1.6,4.277-3.205,6.477-4.777l1.746,2.438C5245.832-8127.412,5243.676-8125.822,5241.6-8124.244Zm10.47-7.582-1.705-2.469c2.168-1.5,4.414-3,6.676-4.48l1.641,2.512C5256.441-8134.8,5254.217-8133.309,5252.07-8131.826Zm10.8-7.127-1.6-2.537c2.228-1.406,4.529-2.824,6.842-4.211l1.544,2.572C5267.358-8141.752,5265.076-8140.348,5262.867-8138.953Zm11.078-6.713-1.51-2.594c2.277-1.324,4.627-2.66,6.981-3.967l1.456,2.623C5278.535-8148.307,5276.205-8146.982,5273.945-8145.666Zm11.3-6.326-1.424-2.641c2.319-1.252,4.709-2.51,7.1-3.744l1.376,2.666C5289.918-8154.486,5287.545-8153.234,5285.241-8151.992Zm11.491-5.979-1.346-2.68c2.355-1.184,4.779-2.375,7.2-3.539l1.3,2.7C5301.482-8160.328,5299.074-8159.145,5296.732-8157.971Zm11.669-5.66-1.274-2.715c2.387-1.121,4.84-2.25,7.289-3.354l1.234,2.734C5313.213-8165.865,5310.774-8164.744,5308.4-8163.631Zm11.795-5.359-1.208-2.746c2.414-1.062,4.891-2.133,7.363-3.18l1.171,2.762C5325.063-8171.111,5322.6-8170.047,5320.2-8168.99Zm11.93-5.092-1.147-2.771c2.438-1.01,4.937-2.027,7.43-3.021l1.112,2.787C5337.04-8176.1,5334.552-8175.086,5332.126-8174.082Zm12.032-4.838-1.092-2.795c2.457-.959,4.977-1.926,7.485-2.873l1.059,2.807C5349.111-8180.838,5346.6-8179.877,5344.158-8178.92Zm12.127-4.605-1.038-2.814c2.476-.914,5.011-1.836,7.536-2.736l1.009,2.824C5361.277-8185.354,5358.752-8184.436,5356.285-8183.525Zm12.211-4.389-.99-2.832c2.491-.871,5.041-1.748,7.578-2.607l.963,2.84C5373.519-8189.658,5370.979-8188.783,5368.5-8187.914Zm12.283-4.186-.945-2.848c2.506-.832,5.069-1.67,7.619-2.488l.919,2.855C5385.83-8193.764,5383.276-8192.928,5380.779-8192.1Zm12.348-4-.9-2.861c2.518-.795,5.093-1.6,7.652-2.377l.877,2.867C5398.2-8197.686,5395.637-8196.889,5393.127-8196.1Zm12.406-3.818-.863-2.873c2.529-.762,5.115-1.525,7.685-2.273l.839,2.881C5410.633-8201.436,5408.055-8200.672,5405.533-8199.914Zm12.456-3.65-.825-2.885c2.539-.727,5.135-1.459,7.712-2.174l.8,2.891C5423.109-8205.018,5420.521-8204.289,5417.989-8203.564Zm12.5-3.494-.791-2.895c2.55-.7,5.152-1.395,7.737-2.08l.769,2.9C5435.632-8208.451,5433.035-8207.752,5430.494-8207.059Zm12.545-3.344-.756-2.9c2.557-.664,5.168-1.336,7.759-1.992l.735,2.91C5448.193-8211.734,5445.59-8211.066,5443.039-8210.4Zm12.583-3.2-.726-2.914c2.566-.637,5.183-1.277,7.779-1.906l.706,2.916C5460.791-8214.881,5458.181-8214.24,5455.622-8213.6Zm12.617-3.07-.693-2.918c2.571-.611,5.2-1.227,7.8-1.828l.676,2.922C5473.424-8217.9,5470.806-8217.283,5468.239-8216.674Zm12.646-2.939-.665-2.926c2.579-.586,5.209-1.176,7.816-1.752l.647,2.93C5486.082-8220.787,5483.459-8220.2,5480.886-8219.613Zm12.681-2.818-.638-2.934c2.585-.561,5.22-1.125,7.831-1.68l.62,2.938C5498.773-8223.557,5496.145-8222.994,5493.566-8222.432Zm12.7-2.7-.611-2.937c2.59-.537,5.23-1.078,7.846-1.609l.6,2.941C5511.484-8226.213,5508.851-8225.672,5506.266-8225.135Zm12.73-2.59-.586-2.941c2.6-.518,5.238-1.037,7.858-1.543l.571,2.945C5524.225-8228.76,5521.586-8228.24,5519-8227.725Zm12.744-2.482-.562-2.947c2.6-.494,5.249-.992,7.871-1.479l.548,2.949C5536.979-8231.2,5534.335-8230.7,5531.74-8230.207Zm12.775-2.381-.539-2.951c2.6-.475,5.257-.951,7.882-1.416l.524,2.953C5549.762-8233.537,5547.114-8233.061,5544.516-8232.588Zm12.778-2.277-.516-2.957c2.608-.453,5.265-.91,7.894-1.355l.5,2.957C5562.549-8235.775,5559.9-8235.318,5557.294-8234.865Zm12.813-2.186-.493-2.959c2.612-.436,5.271-.871,7.9-1.3l.479,2.961C5575.369-8237.922,5572.716-8237.486,5570.107-8237.051Zm12.816-2.088-.473-2.965c2.616-.414,5.277-.834,7.909-1.242l.46,2.965C5588.191-8239.975,5585.535-8239.557,5582.924-8239.139Zm12.839-2-.452-2.967c2.62-.4,5.284-.8,7.918-1.189l.439,2.969C5601.037-8241.936,5598.378-8241.537,5595.763-8241.139Zm12.852-1.912-.431-2.969c2.623-.381,5.289-.764,7.926-1.135l.42,2.971C5613.9-8243.812,5611.234-8243.432,5608.614-8243.051Zm12.853-1.822-.412-2.973c2.628-.363,5.3-.727,7.936-1.082l.4,2.973C5626.756-8245.6,5624.09-8245.236,5621.467-8244.873Zm12.88-1.742-.394-2.973c2.629-.348,5.3-.693,7.936-1.031l.381,2.977C5639.637-8247.307,5636.971-8246.959,5634.347-8246.615Zm12.891-1.656-.373-2.977c2.633-.328,5.3-.66,7.943-.98l.361,2.98C5652.535-8248.93,5649.865-8248.6,5647.237-8248.271Zm12.9-1.574-.354-2.979c2.636-.314,5.312-.627,7.95-.93l.344,2.982C5665.438-8250.471,5662.768-8250.158,5660.135-8249.846Zm12.905-1.492-.335-2.98c2.641-.3,5.317-.594,7.957-.879l.323,2.982C5678.35-8251.928,5675.676-8251.635,5673.04-8251.338Zm12.915-1.41-.316-2.984c2.645-.279,5.321-.559,7.958-.826l.3,2.984C5691.269-8253.307,5688.6-8253.027,5685.955-8252.748Zm12.923-1.328-.3-2.984c2.646-.266,5.32-.525,7.95-.775l.285,2.986C5704.189-8254.6,5701.52-8254.338,5698.878-8254.076Zm12.909-1.242-.277-2.988c2.666-.246,5.359-.492,8-.725l.266,2.986C5717.137-8255.811,5714.449-8255.564,5711.787-8255.318Zm12.963-1.16-.256-2.988c2.671-.23,5.356-.455,7.98-.668l.243,2.99C5730.1-8256.932,5727.418-8256.707,5724.75-8256.479Zm12.947-1.066-.234-2.988c2.692-.211,5.375-.416,7.976-.607l.22,2.992C5743.063-8257.957,5740.385-8257.754,5737.7-8257.545Zm12.955-.961-.209-2.992c2.785-.2,5.475-.375,8-.533l.188,2.994C5756.113-8258.879,5753.432-8258.7,5750.652-8258.506Zm12.939-.83-.168-2.994,1.6-.088c.315-.033,2.563-.264,6.247-.689l.344,2.98c-3.984.461-6.3.7-6.327.7l-.075.006S5764.652-8259.395,5763.592-8259.336Zm13-1.381-.363-2.979c2.594-.314,5.26-.65,7.926-1l.387,2.975C5781.869-8261.369,5779.193-8261.033,5776.594-8260.717Zm12.914-1.662-.4-2.973c2.632-.357,5.293-.729,7.91-1.1l.428,2.969C5794.818-8263.107,5792.148-8262.736,5789.508-8262.379Zm12.889-1.834-.441-2.967c2.644-.395,5.3-.8,7.895-1.213l.468,2.965C5807.715-8265.018,5805.05-8264.607,5802.4-8264.213Zm12.867-2.012-.486-2.961c2.648-.434,5.3-.881,7.875-1.328l.514,2.955C5820.58-8267.107,5817.922-8266.66,5815.264-8266.225Zm12.835-2.207-.534-2.953c2.652-.479,5.293-.969,7.85-1.461l.566,2.947C5833.412-8269.406,5830.76-8268.912,5828.1-8268.432Zm12.8-2.432-.588-2.939c2.65-.531,5.279-1.074,7.814-1.617l.627,2.934C5846.205-8271.943,5843.563-8271.4,5840.9-8270.863Zm12.752-2.7-.655-2.928c2.649-.594,5.263-1.2,7.768-1.8l.7,2.916C5858.945-8274.768,5856.316-8274.154,5853.65-8273.559Zm12.688-3.025-.739-2.906c2.645-.672,5.234-1.363,7.7-2.047l.8,2.891C5871.615-8277.955,5869-8277.262,5866.338-8276.584Zm12.594-3.449-.852-2.879c2.635-.777,5.188-1.578,7.588-2.373l.943,2.848C5884.182-8281.631,5881.6-8280.822,5878.932-8280.033Zm12.443-4.047-1.014-2.822c2.615-.939,5.1-1.9,7.39-2.855l1.157,2.768C5896.572-8286.014,5894.037-8285.035,5891.375-8284.08Zm12.164-4.957-1.275-2.717c2.563-1.2,4.9-2.432,6.944-3.654l1.54,2.574C5908.617-8291.561,5906.19-8290.283,5903.539-8289.037Zm11.5-6.641-1.786-2.41a25.933,25.933,0,0,0,5.438-5.209l2.411,1.787A28.989,28.989,0,0,1,5915.037-8295.678Zm8.561-10.746-2.886-.82a9.355,9.355,0,0,0-.662-6.742l2.721-1.266A12.406,12.406,0,0,1,5923.6-8306.424Zm-6.066-11.4a35.394,35.394,0,0,0-5.615-5.2l1.82-2.385a38.422,38.422,0,0,1,6.09,5.654Zm-9.615-8c-2.026-1.309-4.314-2.645-6.8-3.969l1.412-2.648c2.56,1.365,4.921,2.742,7.018,4.1Zm-11.207-6.211c-2.24-1.09-4.667-2.2-7.212-3.3l1.19-2.754c2.586,1.119,5.053,2.248,7.334,3.359Zm-11.793-5.219c-2.348-.955-4.843-1.928-7.417-2.889l1.05-2.811c2.6.973,5.123,1.953,7.5,2.918Zm-12.09-4.594c-2.41-.861-4.944-1.736-7.532-2.6l.951-2.846c2.607.873,5.161,1.754,7.59,2.621ZM5860.559-8346c-2.451-.789-5.012-1.594-7.611-2.387l.878-2.871c2.612.8,5.188,1.609,7.653,2.4Zm-12.387-3.561c-2.607-.6-5.231-1.209-7.8-1.811l.686-2.922c2.563.6,5.183,1.211,7.784,1.809Zm-12.651-2.957c-2.6-.619-5.224-1.25-7.787-1.873l.709-2.916c2.559.623,5.175,1.252,7.772,1.869Zm-12.665-3.07c-2.6-.641-5.213-1.295-7.77-1.939l.736-2.91c2.551.645,5.16,1.3,7.752,1.938Zm-12.615-3.174c-2.594-.666-5.2-1.344-7.753-2.016l.763-2.9c2.545.67,5.146,1.346,7.736,2.01Zm-12.58-3.293c-2.588-.691-5.189-1.395-7.73-2.092l.793-2.893c2.535.7,5.13,1.395,7.712,2.086Zm-12.568-3.428c-2.58-.719-5.173-1.451-7.705-2.174l.825-2.885c2.525.721,5.11,1.451,7.685,2.168Zm-12.523-3.564c-2.574-.75-5.158-1.512-7.681-2.266l.86-2.875c2.516.754,5.092,1.514,7.658,2.262Zm-12.477-3.713c-2.567-.783-5.143-1.578-7.653-2.365l.9-2.863c2.5.785,5.07,1.578,7.629,2.359Zm-12.43-3.879c-2.557-.816-5.12-1.65-7.618-2.475l.939-2.848c2.489.82,5.044,1.65,7.593,2.465Zm-12.373-4.057c-2.545-.857-5.094-1.73-7.575-2.594l.985-2.832c2.473.859,5.011,1.729,7.546,2.582Zm-12.307-4.256c-2.533-.9-5.068-1.818-7.533-2.725l1.036-2.816c2.454.9,4.979,1.816,7.5,2.713Zm-12.225-4.473c-2.525-.951-5.049-1.92-7.5-2.881l1.094-2.793c2.439.955,4.95,1.92,7.463,2.867Zm-12.159-4.727c-2.5-1-4.991-2.023-7.41-3.033l1.157-2.77c2.405,1.006,4.885,2.02,7.37,3.02Zm-12.027-4.992c-2.485-1.068-4.961-2.154-7.357-3.23l1.229-2.736c2.382,1.07,4.842,2.148,7.313,3.211Zm-11.92-5.311c-2.457-1.137-4.9-2.3-7.257-3.443l1.313-2.7c2.341,1.139,4.765,2.289,7.2,3.418Zm-11.755-5.666c-2.423-1.219-4.824-2.459-7.139-3.687l1.407-2.65c2.294,1.219,4.677,2.449,7.079,3.656Zm-11.551-6.074c-2.379-1.311-4.73-2.646-6.986-3.971l1.519-2.59c2.233,1.313,4.56,2.635,6.916,3.934Zm-11.307-6.561c-2.326-1.422-4.613-2.873-6.8-4.311l1.648-2.506c2.157,1.42,4.416,2.852,6.714,4.258Zm-10.967-7.121c-2.252-1.555-4.453-3.141-6.544-4.715l1.8-2.4c2.058,1.549,4.227,3.111,6.445,4.643Zm-10.529-7.8c-2.146-1.711-4.227-3.457-6.184-5.189l1.988-2.248c1.918,1.7,3.959,3.412,6.065,5.094Zm-9.906-8.6c-2-1.9-3.913-3.842-5.687-5.768l2.205-2.035c1.731,1.879,3.6,3.773,5.551,5.629Zm-9.038-9.574c-1.777-2.119-3.446-4.283-4.96-6.432l2.453-1.727c1.465,2.078,3.082,4.176,4.8,6.23Zm-7.766-10.678a76.365,76.365,0,0,1-3.917-7.152l2.706-1.293a73.558,73.558,0,0,0,3.763,6.867Zm-5.954-11.836a65.706,65.706,0,0,1-2.5-7.789l2.907-.738a62.815,62.815,0,0,0,2.391,7.434Zm-3.562-12.8a66.137,66.137,0,0,1-.859-8.133l3-.133a63.6,63.6,0,0,0,.82,7.764Zm2.095-13.16-3-.078c.064-2.531.255-5.184.584-8.105l2.98.336C5584.658-8509.344,5584.473-8506.775,5584.411-8504.33Zm1.2-12.766-2.972-.416q.082-.589.164-1.16c.081-.576.161-1.141.236-1.691l.01-.061c.307-1.7.643-3.41,1-5.088l2.935.623c-.35,1.641-.679,3.314-.978,4.977-.074.539-.152,1.094-.232,1.66C5585.719-8517.873,5585.665-8517.486,5585.61-8517.1Zm2.478-12.605-2.914-.719c.643-2.609,1.359-5.229,2.128-7.785l2.872.865C5589.42-8534.832,5588.718-8532.264,5588.088-8529.7Zm3.595-12.367-2.843-.957c.856-2.545,1.791-5.1,2.777-7.584l2.789,1.105C5593.439-8547.064,5592.522-8544.562,5591.683-8542.068Zm4.622-12-2.752-1.2c1.07-2.457,2.22-4.92,3.418-7.32l2.685,1.34C5598.48-8558.891,5597.353-8556.477,5596.3-8554.068Zm5.637-11.57-2.639-1.428c1.271-2.35,2.627-4.705,4.026-7l2.561,1.563C5604.518-8570.252,5603.188-8567.943,5601.941-8565.639Zm6.6-11.051-2.511-1.641c1.462-2.232,3.007-4.469,4.593-6.645l2.424,1.766C5611.486-8581.072,5609.971-8578.877,5608.537-8576.689Zm7.481-10.473-2.37-1.84c1.631-2.1,3.346-4.207,5.1-6.256l2.28,1.949C5619.3-8591.295,5617.621-8589.229,5616.019-8587.162Zm8.285-9.873-2.224-2.014c1.782-1.969,3.648-3.941,5.546-5.859l2.134,2.109C5627.893-8600.912,5626.057-8598.971,5624.3-8597.035Zm8.981-9.236-2.076-2.164c1.913-1.836,3.908-3.672,5.928-5.461l1.988,2.248C5637.134-8609.889,5635.169-8608.08,5633.285-8606.271Zm9.607-8.629-1.932-2.293c2.024-1.705,4.129-3.41,6.254-5.07l1.846,2.367C5646.964-8618.262,5644.889-8616.58,5642.893-8614.9Zm10.109-8-1.793-2.406c2.121-1.58,4.32-3.162,6.537-4.7l1.711,2.463C5657.269-8626.027,5655.1-8624.467,5653-8622.9Zm10.57-7.437-1.662-2.5c2.2-1.463,4.476-2.926,6.764-4.348l1.584,2.549C5668-8633.232,5665.746-8631.787,5663.572-8630.342Zm10.938-6.887-1.537-2.574c2.272-1.355,4.619-2.711,6.974-4.027l1.464,2.617C5679.08-8639.908,5676.758-8638.568,5674.51-8637.229Zm11.246-6.367-1.42-2.645c2.326-1.25,4.725-2.5,7.129-3.715l1.354,2.676C5690.438-8646.076,5688.061-8644.836,5685.756-8643.6Zm11.527-5.9-1.313-2.7c2.372-1.154,4.813-2.311,7.257-3.432l1.252,2.727C5702.055-8651.783,5699.634-8650.639,5697.283-8649.494Zm11.744-5.451-1.213-2.744c2.414-1.066,4.9-2.133,7.379-3.172l1.156,2.77C5713.886-8657.064,5711.422-8656.006,5709.027-8654.945Zm11.92-5.033-1.121-2.783c2.451-.986,4.969-1.975,7.484-2.932l1.068,2.8C5725.881-8661.939,5723.381-8660.959,5720.947-8659.979Zm12.088-4.656-1.035-2.816c2.477-.91,5.02-1.82,7.557-2.705l.987,2.834C5738.023-8666.443,5735.5-8665.541,5733.035-8664.635Zm942.2-2.832,0-3c2.677,0,5.361-.016,7.981-.031l.021,3C6680.607-8667.482,6677.916-8667.471,6675.234-8667.467Zm-5.012,0c-2.635-.008-5.334-.021-8.024-.043l.024-3c2.684.021,5.379.035,8.008.043Zm18.025-.074-.033-3c2.683-.027,5.371-.066,7.993-.113l.053,3C6693.632-8667.611,6690.937-8667.574,6688.248-8667.545Zm-31.026-.016c-2.631-.029-5.326-.066-8.011-.109l.049-3c2.678.043,5.369.08,7.994.109Zm44.028-.2-.064-3c2.677-.059,5.361-.127,7.977-.2l.088,3C6706.627-8667.885,6703.936-8667.814,6701.25-8667.756Zm-57.05,0c-2.626-.051-5.315-.105-7.993-.168l.069-3c2.674.063,5.358.119,7.98.168Zm-13.021-.293c-2.626-.066-5.313-.141-7.988-.223l.09-3c2.671.08,5.354.154,7.976.223Zm83.1-.07-.1-3c2.682-.09,5.367-.193,7.983-.3l.127,3C6719.661-8668.314,6716.967-8668.213,6714.277-8668.119Zm-96.084-.307c-2.638-.086-5.336-.178-8.021-.275l.107-3c2.682.1,5.377.189,8.012.275Zm109.082-.225-.145-3c2.68-.127,5.362-.268,7.974-.42l.171,3C6732.656-8668.922,6729.964-8668.781,6727.275-8668.65Zm-122.075-.234c-2.636-.1-5.333-.209-8.015-.32l.124-3c2.679.111,5.373.221,8.006.32Zm-859.935-.055-.957-2.844c2.5-.84,5.063-1.68,7.619-2.5l.91,2.859C5750.3-8670.611,5747.75-8669.775,5745.266-8668.939Zm995.019-.436-.19-2.994c2.678-.17,5.356-.355,7.963-.547l.223,2.99C6745.662-8669.73,6742.973-8669.545,6740.284-8669.375Zm-148.079-.043c-2.634-.115-5.327-.236-8-.361l.141-3c2.675.125,5.364.246,7.994.359Zm-13-.6c-2.631-.129-5.32-.264-7.993-.4l.153-3c2.671.141,5.357.273,7.985.4Zm174.073-.3-.242-2.988c2.676-.219,5.351-.453,7.951-.7l.279,2.986C6758.657-8670.768,6755.97-8670.533,6753.281-8670.314Zm-187.068-.367c-2.628-.141-5.313-.285-7.983-.436l.167-2.994c2.667.148,5.351.295,7.977.434Zm-12.991-.719c-2.625-.152-5.31-.309-7.976-.469l.18-3c2.664.16,5.346.318,7.969.469Zm213.026-.1-.3-2.984c2.674-.271,5.345-.562,7.938-.863l.344,2.98C6771.62-8672.062,6768.936-8671.771,6766.248-8671.5Zm-226.012-.676c-2.625-.16-5.307-.328-7.971-.5l.191-2.992c2.661.168,5.341.336,7.963.5Zm-782.624-.742-.884-2.867c2.519-.777,5.1-1.551,7.672-2.3l.841,2.879C5762.684-8674.459,5760.117-8673.689,5757.612-8672.916Zm1021.575-.047-.373-2.977c2.67-.332,5.334-.687,7.919-1.055l.42,2.973C6784.553-8673.654,6781.873-8673.3,6779.188-8672.963Zm-251.932-.031c-2.624-.172-5.3-.35-7.967-.529l.2-2.994c2.66.18,5.339.357,7.96.527Zm-12.976-.869c-2.623-.182-5.3-.365-7.965-.553l.21-2.994c2.66.189,5.338.373,7.961.553Zm277.825-.889-.452-2.965c2.66-.406,5.311-.834,7.879-1.275l.509,2.957C6797.453-8675.592,6794.784-8675.158,6792.105-8674.752Zm-290.794-.021c-2.625-.189-5.306-.383-7.968-.58l.22-2.99c2.66.2,5.339.391,7.962.578Zm-12.966-.949c-2.627-.2-5.309-.4-7.971-.6l.228-2.99c2.661.2,5.342.4,7.967.6Zm-718.309-.861-.816-2.887c2.543-.719,5.146-1.436,7.738-2.129l.776,2.9C5775.156-8678.012,5772.566-8677.3,5770.037-8676.584Zm705.348-.125c-2.63-.2-5.314-.414-7.979-.625l.236-2.99c2.663.211,5.347.42,7.975.623Zm329.584-.2-.545-2.951c2.648-.49,5.284-1.006,7.835-1.533l.609,2.938C6810.3-8677.926,6807.638-8677.406,6804.969-8676.912Zm-342.544-.818c-2.633-.209-5.321-.428-7.989-.645l.244-2.99c2.667.217,5.354.434,7.984.645Zm-12.958-1.053c-2.638-.219-5.331-.441-8-.666l.251-2.99c2.671.227,5.362.449,8,.668Zm368.3-.73-.653-2.93c2.626-.584,5.235-1.2,7.757-1.832l.728,2.912C6823.056-8680.727,6820.421-8680.1,6817.771-8679.514Zm-381.264-.354-8-.684.258-2.988c2.67.229,5.359.459,8,.682Zm-653.958-.1-.753-2.9c2.561-.662,5.18-1.324,7.788-1.963l.716,2.912C5787.705-8681.287,5785.1-8680.631,5782.55-8679.971Zm640.956-1.16c-1.47-.2-3.36-.465-5.549-.77l-2.384-.33.413-2.971,2.384.33c2.187.3,4.075.568,5.54.768Zm406.961-1.494-.778-2.9c2.589-.7,5.159-1.428,7.638-2.176l.866,2.873C6835.685-8684.068,6833.086-8683.328,6830.467-8682.625Zm-419.838-.291c-2.75-.379-5.341-.732-7.922-1.082l.4-2.973c2.583.35,5.177.7,7.93,1.084Zm-615.492-.178-.693-2.918c2.571-.611,5.2-1.221,7.818-1.809l.658,2.928C5800.314-8684.307,5797.7-8683.7,5795.137-8683.094Zm602.616-1.568c-2.653-.355-5.336-.711-7.974-1.055l.389-2.977c2.641.348,5.326.7,7.982,1.057Zm-589.966-1.309-.639-2.932c2.582-.561,5.221-1.121,7.845-1.662l.606,2.938C5812.986-8687.088,5810.357-8686.529,5807.787-8685.971ZM6843-8686.326l-.925-2.855c2.554-.828,5.085-1.7,7.521-2.586l1.028,2.818C6848.15-8688.049,6845.585-8687.166,6843-8686.326Zm-458.15-.031c-2.631-.34-5.3-.68-7.937-1.012l.375-2.977c2.639.332,5.312.672,7.945,1.012Zm-12.9-1.633c-2.635-.328-5.31-.656-7.95-.977l.362-2.98c2.643.322,5.32.652,7.958.98Zm-551.46-.629-.586-2.941c2.589-.516,5.236-1.029,7.867-1.525l.556,2.947C5825.707-8689.645,5823.07-8689.131,5820.49-8688.619Zm538.576-.943c-2.634-.314-5.307-.631-7.945-.939l.348-2.98c2.642.309,5.317.625,7.954.941Zm496.264-1.17-1.1-2.793c2.489-.977,4.952-2,7.317-3.051l1.214,2.744C6860.36-8692.768,6857.859-8691.725,6855.33-8690.732Zm-1022.091-.316L5832.7-8694c2.6-.473,5.25-.941,7.887-1.4l.51,2.957C5838.471-8691.99,5835.827-8691.521,5833.239-8691.049Zm512.927-.029c-2.635-.3-5.308-.607-7.945-.9l.335-2.98c2.641.3,5.317.6,7.954.9Zm-12.945-1.461c-2.636-.291-5.309-.584-7.945-.869l.322-2.982c2.639.285,5.314.576,7.953.869Zm-487.193-.74-.492-2.957c2.6-.434,5.262-.863,7.9-1.281l.467,2.965C5851.271-8694.139,5848.622-8693.709,5846.027-8693.279Zm474.308-.656c-2.64-.281-5.315-.562-7.954-.834l.309-2.984c2.641.273,5.32.553,7.962.834Zm-12.954-1.346c-2.637-.268-5.309-.537-7.941-.795l.295-2.986c2.637.26,5.311.529,7.949.795Zm-448.532-.035-.45-2.967c2.609-.395,5.273-.787,7.918-1.164l.425,2.969C5864.1-8696.1,5861.449-8695.711,5858.849-8695.316Zm1008.5-.623-1.293-2.707c2.407-1.15,4.781-2.355,7.058-3.586l1.427,2.639C6872.22-8698.34,6869.8-8697.111,6867.349-8695.939Zm-572.874-.625c-2.646-.258-5.327-.512-7.971-.762l.282-2.986c2.646.248,5.329.506,7.979.764Zm-422.781-.609-.41-2.973c2.615-.359,5.286-.717,7.936-1.059l.385,2.975C5876.963-8697.889,5874.3-8697.533,5871.693-8697.174Zm409.844-.617c-2.644-.244-5.321-.488-7.96-.723l.269-2.988c2.641.234,5.321.48,7.968.725Zm-396.975-1.07-.372-2.977c2.622-.328,5.3-.65,7.95-.961l.35,2.98C5889.844-8699.51,5887.176-8699.186,5884.563-8698.861Zm384.011-.1c-2.64-.232-5.313-.463-7.948-.687l.254-2.988c2.637.223,5.314.455,7.957.688Zm-12.93-1.105c-2.653-.223-5.341-.441-7.987-.652l.241-2.992c2.648.213,5.339.434,8,.654Zm-358.19-.324-.336-2.98c2.627-.3,5.307-.586,7.964-.867l.313,2.984C5902.744-8700.975,5900.072-8700.682,5897.453-8700.389Zm345.246-.723c-2.652-.209-5.338-.414-7.981-.615l.226-2.99c2.647.2,5.335.406,7.99.613Zm-332.338-.652-.3-2.984c2.631-.266,5.314-.527,7.975-.777l.281,2.988C5915.662-8702.287,5912.986-8702.027,5910.361-8701.764Zm968.585-.3-1.513-2.59c2.295-1.342,4.555-2.75,6.715-4.182l1.658,2.5C6883.6-8704.875,6881.291-8703.439,6878.946-8702.068Zm-649.206-.029c-2.65-.2-5.334-.389-7.975-.576l.211-2.992c2.645.188,5.33.381,7.984.576Zm-306.453-.9-.268-2.988c2.634-.234,5.32-.469,7.982-.689l.248,2.99C5928.595-8703.463,5925.915-8703.229,5923.287-8702.994Zm293.484-.027c-2.648-.184-5.33-.363-7.969-.537l.2-2.994c2.642.176,5.326.355,7.978.537Zm-12.976-.861c-2.647-.17-5.327-.336-7.964-.5l.182-2.994c2.641.16,5.322.328,7.974.5Zm-267.569-.205-.237-2.988c2.637-.211,5.325-.414,7.989-.609l.219,2.992C5941.539-8704.5,5938.857-8704.295,5936.227-8704.088Zm254.608-.59c-2.653-.156-5.338-.309-7.979-.457l.167-2.994c2.645.146,5.332.3,7.989.457Zm-241.659-.371-.207-2.992c2.639-.184,5.329-.363,7.994-.531l.19,2.992C5954.493-8705.41,5951.811-8705.232,5949.176-8705.049Zm228.692-.357c-2.658-.143-5.347-.283-7.992-.416l.15-3c2.648.133,5.341.273,8,.418Zm-215.732-.479-.179-3c2.641-.158,5.332-.312,8-.457l.162,3C5967.457-8706.2,5964.771-8706.045,5962.136-8705.885Zm202.759-.182c-2.66-.129-5.352-.256-8-.373l.135-3c2.651.117,5.346.242,8.01.371ZM5975.1-8706.6l-.152-3c2.643-.135,5.334-.266,8-.387l.137,3C5980.428-8706.867,5977.74-8706.738,5975.1-8706.6Zm176.813-.055c-2.66-.113-5.352-.225-8-.328l.119-3c2.649.1,5.344.215,8.008.33Zm-12.982-.52c-2.66-.1-5.351-.2-8-.285l.1-3c2.648.09,5.343.186,8.006.283Zm-150.855-.029-.127-3c2.644-.111,5.336-.219,8-.316l.111,3C5993.4-8707.426,5990.716-8707.318,5988.078-8707.207Zm137.871-.418c-2.66-.084-5.351-.164-8-.238l.084-3c2.648.074,5.342.152,8.006.238Zm-124.893-.076-.1-3c2.645-.09,5.337-.174,8-.25l.087,3C6006.384-8707.877,6003.7-8707.791,6001.057-8707.7Zm111.9-.3c-2.66-.066-5.35-.133-7.994-.189l.066-3c2.647.057,5.341.121,8,.189Zm-98.92-.094-.078-3c2.645-.068,5.338-.133,8-.189l.063,3C6019.369-8708.225,6016.681-8708.16,6014.041-8708.092Zm85.93-.2c-2.66-.053-5.35-.1-7.992-.141l.047-3c2.646.041,5.34.088,8,.141Zm-72.943-.09-.056-3c2.646-.049,5.339-.092,8-.129l.041,3C6032.356-8708.471,6029.668-8708.428,6027.027-8708.381Zm59.953-.125c-2.66-.035-5.35-.066-7.992-.09l.027-3c2.647.023,5.34.055,8,.09Zm-46.965-.066-.033-3c2.646-.027,5.34-.051,8-.07l.021,3C6045.346-8708.623,6042.657-8708.6,6040.016-8708.572Zm33.974-.066c-2.661-.016-5.351-.031-7.992-.037l.009-3c2.646.006,5.34.021,8,.037Zm-20.983-.031-.012-3c2.481-.008,5-.014,7.507-.014h.5v3h-.5C6058-8708.684,6055.483-8708.678,6053.006-8708.67Zm836.965-.547-1.751-2.434c2.146-1.543,4.257-3.162,6.271-4.812l1.9,2.322C6894.328-8712.451,6892.168-8710.795,6889.971-8709.217Zm10.271-8.207-1.993-2.242c1.964-1.746,3.891-3.576,5.728-5.439l2.137,2.107C6904.229-8721.088,6902.254-8719.213,6900.242-8717.424Zm9.349-9.25-2.22-2.016c1.754-1.934,3.476-3.959,5.116-6.02l2.347,1.867C6913.154-8730.73,6911.39-8728.654,6909.591-8726.674Zm8.429-10.029-2.354-1.859c1.626-2.059,3.187-4.205,4.639-6.375l2.494,1.668C6921.3-8741.033,6919.694-8738.822,6918.02-8736.7Zm7.493-10.852-2.573-1.541c1.34-2.238,2.612-4.566,3.779-6.914l2.688,1.334C6928.2-8752.256,6926.894-8749.861,6925.513-8747.555Zm6.039-11.717-2.748-1.2c1.042-2.379,2.015-4.848,2.888-7.336l2.831.994C6933.623-8764.26,6932.624-8761.721,6931.552-8759.271Zm4.542-12.363-2.873-.865c.749-2.482,1.428-5.049,2.018-7.635l2.924.668C6937.558-8776.816,6936.861-8774.182,6936.094-8771.635Zm3.094-12.785-2.949-.551c.474-2.547.879-5.176,1.205-7.814l2.977.367C6940.087-8789.717,6939.673-8787.027,6939.188-8784.42Zm1.762-13.023-2.988-.26c.225-2.582.385-5.244.475-7.908l3,.1C6941.343-8802.791,6941.18-8800.076,6940.949-8797.443Zm.575-13.113-3-.008c.007-2.592-.05-5.258-.166-7.926l3-.129C6941.475-8815.908,6941.531-8813.193,6941.524-8810.557Zm-3.45-12.883c-.185-2.59-.428-5.25-.724-7.906l2.981-.332c.3,2.7.548,5.395.734,8.025Zm-1.332-12.834c-.35-2.576-.756-5.221-1.207-7.857l2.957-.508c.458,2.672.869,5.352,1.223,7.963Zm-2.1-12.748c-.491-2.555-1.037-5.174-1.622-7.781l2.927-.658c.593,2.639,1.145,5.287,1.642,7.873Zm-2.755-12.625c-.616-2.535-1.285-5.129-1.988-7.711l2.9-.789c.709,2.609,1.385,5.23,2.008,7.789Zm-3.332-12.5c-.726-2.508-1.5-5.072-2.3-7.621l2.861-.9c.811,2.572,1.594,5.158,2.324,7.689Zm-3.836-12.359c-.821-2.482-1.691-5.018-2.586-7.537l2.827-1c.9,2.539,1.778,5.1,2.606,7.6Zm-4.282-12.221c-.906-2.457-1.86-4.961-2.834-7.449l2.794-1.094c.98,2.5,1.94,5.031,2.854,7.5Zm-4.677-12.08c-.984-2.428-2.012-4.908-3.057-7.365l2.76-1.174c1.053,2.475,2.088,4.967,3.077,7.412Zm-5.032-11.941c-1.052-2.4-2.148-4.854-3.258-7.281l2.729-1.246c1.116,2.441,2.219,4.906,3.277,7.324Zm-5.353-11.8c-1.114-2.377-2.271-4.8-3.439-7.2l2.7-1.314c1.175,2.414,2.338,4.848,3.459,7.24Zm-5.643-11.674c-1.173-2.352-2.386-4.746-3.607-7.117l2.667-1.375c1.228,2.383,2.447,4.789,3.625,7.156Zm-5.91-11.541c-1.226-2.33-2.491-4.7-3.762-7.041l2.637-1.43c1.276,2.354,2.549,4.734,3.779,7.074Zm-6.158-11.416c-1.274-2.3-2.588-4.648-3.9-6.961l2.607-1.484c1.322,2.324,2.643,4.68,3.923,7Zm-6.389-11.289c-1.32-2.281-2.68-4.6-4.038-6.883l2.579-1.535c1.364,2.3,2.729,4.623,4.057,6.916Zm-6.6-11.164c-1.366-2.26-2.769-4.551-4.168-6.809l2.55-1.582c1.405,2.268,2.813,4.57,4.186,6.84Zm-6.812-11.043c-1.41-2.238-2.854-4.5-4.292-6.734l2.521-1.625c1.444,2.238,2.894,4.514,4.31,6.762Zm-7.012-10.918c-1.451-2.217-2.934-4.453-4.407-6.652l2.491-1.67c1.479,2.205,2.969,4.453,4.426,6.678Zm-7.2-10.789c-1.494-2.2-3.017-4.4-4.525-6.566l2.46-1.717c1.516,2.174,3.045,4.393,4.545,6.6Zm-7.4-10.652c-1.541-2.18-3.105-4.359-4.648-6.484l2.427-1.764c1.551,2.135,3.122,4.326,4.67,6.514Zm-7.6-10.518c-1.6-2.162-3.2-4.312-4.782-6.393l2.391-1.812c1.585,2.09,3.2,4.25,4.8,6.424Zm-7.812-10.35c-1.659-2.148-3.314-4.258-4.921-6.27l2.345-1.871c1.615,2.023,3.281,4.145,4.95,6.3Zm-8.059-10.154c-1.766-2.158-3.485-4.215-5.112-6.111l2.277-1.953c1.643,1.914,3.377,3.988,5.157,6.166Zm-8.383-9.854c-2.032-2.273-3.855-4.215-5.417-5.766l2.113-2.129c1.6,1.594,3.469,3.576,5.54,5.895Zm-8.746-9.592c-1.441-1.646-3.191-3.572-5.349-5.887l2.2-2.045c2.179,2.338,3.947,4.285,5.41,5.955Zm-8.769-9.525c-1.812-1.914-3.719-3.914-5.511-5.791l2.17-2.072c1.794,1.879,3.705,3.883,5.521,5.8Zm-8.963-9.406c-1.614-1.687-3.531-3.7-5.521-5.789l2.174-2.066c1.987,2.09,3.9,4.1,5.515,5.785Zm-8.964-9.422c-1.928-2.035-3.723-3.945-5.488-5.832l2.191-2.051c1.762,1.887,3.553,3.789,5.476,5.824Zm-8.9-9.5c-1.842-1.984-3.666-3.967-5.424-5.891l2.214-2.023c1.753,1.918,3.573,3.895,5.409,5.875Zm-8.793-9.594c-1.8-2-3.606-4-5.354-5.967l2.242-1.994c1.74,1.957,3.536,3.959,5.336,5.949Zm-8.669-9.715c-1.772-2.016-3.544-4.047-5.268-6.043l2.271-1.961c1.718,1.988,3.482,4.016,5.248,6.021Zm-8.528-9.844c-1.736-2.039-3.476-4.1-5.17-6.125l2.3-1.924c1.688,2.018,3.42,4.072,5.151,6.1Zm-8.373-9.984c-1.7-2.062-3.4-4.152-5.064-6.209l2.334-1.883c1.653,2.049,3.351,4.129,5.046,6.186Zm-8.2-10.117c-1.664-2.092-3.332-4.211-4.956-6.3l2.368-1.842c1.617,2.08,3.278,4.191,4.936,6.275Zm-8.02-10.27c-1.625-2.123-3.254-4.273-4.838-6.395l2.4-1.8c1.578,2.113,3.2,4.254,4.816,6.367Zm-7.822-10.418c-1.584-2.152-3.169-4.336-4.712-6.488l2.438-1.746c1.535,2.141,3.113,4.313,4.69,6.457Zm-7.615-10.572q-.516-.729-1.029-1.463c-1.19-1.7-2.385-3.422-3.551-5.121l2.474-1.7c1.16,1.689,2.349,3.4,3.534,5.094q.511.732,1.023,1.457Zm-7.4-10.729c-1.493-2.215-2.985-4.461-4.437-6.676l2.51-1.645c1.443,2.2,2.929,4.439,4.415,6.643Zm-7.166-10.881c-1.445-2.248-2.89-4.529-4.292-6.779l2.546-1.586c1.395,2.236,2.831,4.506,4.27,6.742Zm-6.926-11.045c-1.394-2.279-2.785-4.592-4.135-6.875l2.582-1.527c1.342,2.27,2.727,4.57,4.113,6.84Zm-6.669-11.2c-1.339-2.312-2.673-4.656-3.968-6.969l2.619-1.465c1.286,2.3,2.613,4.633,3.944,6.93Zm-6.395-11.355c-1.282-2.348-2.559-4.725-3.794-7.07l2.654-1.4c1.229,2.332,2.5,4.7,3.771,7.027Zm-6.108-11.52c-1.223-2.377-2.437-4.789-3.612-7.168l2.69-1.328c1.167,2.365,2.375,4.762,3.59,7.125Zm-5.809-11.676c-1.158-2.408-2.309-4.852-3.418-7.262l2.725-1.254c1.1,2.395,2.245,4.822,3.4,7.217Zm-5.49-11.83c-1.092-2.439-2.172-4.912-3.214-7.354l2.76-1.178c1.034,2.424,2.108,4.883,3.192,7.307Zm-5.157-11.98c-1.021-2.469-2.03-4.973-3-7.443l2.793-1.1c.963,2.453,1.965,4.939,2.979,7.393Zm-4.806-12.125c-.947-2.5-1.881-5.033-2.775-7.531l2.824-1.012c.889,2.482,1.815,5,2.756,7.479Zm-4.439-12.266c-.871-2.525-1.727-5.088-2.543-7.615l2.855-.922c.811,2.508,1.659,5.051,2.524,7.559Zm-4.058-12.4c-.79-2.551-1.564-5.141-2.3-7.691l2.883-.832c.73,2.535,1.5,5.1,2.283,7.637Zm-3.659-12.523c-.707-2.576-1.4-5.189-2.048-7.766l2.909-.734c.646,2.555,1.33,5.148,2.031,7.705Zm-3.246-12.641c-.622-2.6-1.223-5.23-1.787-7.828l2.932-.637c.56,2.578,1.156,5.191,1.772,7.77Zm-2.82-12.74c-.532-2.619-1.042-5.271-1.517-7.889l2.952-.535c.471,2.6.977,5.229,1.5,7.824Zm-2.379-12.834c-.156-.934-.312-1.881-.46-2.816l-.008-.051,0-.051c-.155-1.723-.3-3.463-.434-5.172l2.99-.23c.131,1.68.273,3.391.427,5.084.146.91.3,1.832.448,2.742Zm-1.264-13.1c-.175-2.678-.322-5.373-.439-8.014l3-.133c.116,2.621.263,5.3.436,7.953Zm-.628-13.035c-.083-2.682-.136-5.381-.159-8.023l3-.025c.022,2.621.075,5.3.157,7.957Zm2.833-13.033-3-.018c.016-2.682.063-5.383.141-8.025l3,.088C6622.516-9438.127,6622.469-9435.451,6622.453-9432.791Zm.324-12.93-3-.133c.121-2.687.276-5.391.464-8.033l2.992.211C6623.052-9451.057,6622.9-9448.381,6622.777-9445.721Zm.851-12.912-2.988-.26c.233-2.68.506-5.371.809-8l2.98.344C6624.129-9463.947,6623.859-9461.283,6623.628-9458.633Zm1.413-12.857-2.974-.395c.354-2.662.75-5.336,1.177-7.951l2.961.482C6625.782-9476.768,6625.391-9474.123,6625.041-9471.49Zm2.01-12.762-2.951-.539c.483-2.645,1.012-5.3,1.57-7.9l2.933.631C6628.051-9489.492,6627.528-9486.865,6627.051-9484.252Zm2.646-12.652-2.919-.689c.619-2.615,1.286-5.24,1.983-7.8l2.895.789C6630.968-9502.078,6630.309-9499.486,6629.7-9496.9Zm3.315-12.482-2.878-.85c.762-2.576,1.574-5.158,2.416-7.676l2.846.951C6634.565-9514.477,6633.764-9511.928,6633.013-9509.387Zm4.013-12.268-2.823-1.016c.91-2.527,1.875-5.059,2.868-7.525l2.783,1.119C6638.874-9526.643,6637.923-9524.146,6637.025-9521.654Zm4.737-12-2.756-1.186c1.063-2.467,2.185-4.936,3.333-7.338l2.707,1.293C6643.914-9538.521,6642.81-9536.088,6641.763-9533.658Zm5.479-11.68-2.674-1.361c1.218-2.393,2.5-4.783,3.8-7.105l2.616,1.469C6649.7-9550.049,6648.441-9547.693,6647.242-9545.338Zm6.229-11.3-2.576-1.535c1.373-2.3,2.81-4.605,4.271-6.838l2.511,1.643C6656.238-9561.166,6654.824-9558.9,6653.472-9556.635Zm6.976-10.846-2.465-1.709c1.526-2.2,3.119-4.4,4.732-6.527l2.391,1.813C6663.518-9571.811,6661.95-9569.648,6660.447-9567.48Zm86.448-7.812-.205-2.994a37.168,37.168,0,0,0,7.551-1.371l.817,2.887A40.374,40.374,0,0,1,6746.9-9575.293Zm-5.269-.105c-.49-.057-.98-.131-1.457-.215l-.115-.021-.11-.037a20.768,20.768,0,0,1-6.206-3.439l1.873-2.344a17.838,17.838,0,0,0,5.2,2.91c.38.064.77.121,1.16.168Zm-73.474-2.416-2.341-1.875c1.676-2.09,3.417-4.168,5.178-6.18l2.258,1.975C6671.516-9581.916,6669.8-9579.869,6668.153-9577.814Zm91.776-.6-1.085-2.8a67.461,67.461,0,0,0,7.1-3.271l1.4,2.65A70.6,70.6,0,0,1,6759.93-9578.412Zm-29.946-4.453a35.248,35.248,0,0,1-4.388-7.09l2.708-1.289a32.255,32.255,0,0,0,4.008,6.484Zm41.792-1.48-1.561-2.562c2.184-1.33,4.385-2.8,6.542-4.379l1.77,2.422C6776.3-9587.24,6774.029-9585.721,6771.775-9584.346Zm-95.207-3.238-2.2-2.035c1.818-1.967,3.7-3.918,5.6-5.8l2.111,2.131C6680.211-9591.436,6678.355-9589.518,6676.568-9587.584Zm105.98-4.371-1.885-2.336c2.039-1.645,4.038-3.389,5.943-5.18l2.056,2.184C6786.7-9595.443,6784.646-9593.65,6782.549-9591.955Zm-58.92-2.762a72.022,72.022,0,0,1-2.275-7.842l2.922-.682a68.661,68.661,0,0,0,2.179,7.514Zm-37.98-2.012-2.053-2.187c1.951-1.832,3.972-3.645,6-5.391l1.955,2.275C6689.555-9600.314,6687.568-9598.529,6685.648-9596.729Zm106.624-4.125-2.16-2.08c1.863-1.934,3.618-3.916,5.216-5.889l2.332,1.887C6796.009-9604.9,6794.2-9602.848,6792.272-9600.854Zm-96.914-4.357-1.893-2.328c2.075-1.687,4.218-3.354,6.366-4.951l1.79,2.41C6699.507-9608.51,6697.4-9606.871,6695.358-9605.211Zm24.978-2.322c-.447-2.516-.832-5.215-1.145-8.016l2.981-.332c.306,2.738.681,5.369,1.118,7.82Zm80.4-3.465-2.449-1.732a58.179,58.179,0,0,0,4.093-6.631l2.659,1.391A61.227,61.227,0,0,1,6800.74-9611Zm-95.1-1.988-1.725-2.455c2.189-1.537,4.443-3.049,6.7-4.49l1.616,2.527C6710.014-9615.984,6707.8-9614.5,6705.643-9612.986Zm10.8-7.031-1.547-2.57c1.168-.7,2.353-1.4,3.543-2.082-.072-1.3-.132-2.621-.181-3.961l3-.105q.044,1.225.1,2.43l.535-.293,1.435,2.635q-.891.483-1.781.982.073,1.1.156,2.172l-2.99.234c-.02-.25-.039-.5-.058-.754Q6717.546-9620.68,6716.446-9620.018Zm90.725-2.68-2.81-1.051a22.452,22.452,0,0,0,1.568-7.293l3,.063A25.407,25.407,0,0,1,6807.171-9622.7Zm-79.454-3.578-1.363-2.672c2.39-1.219,4.834-2.4,7.265-3.508l1.245,2.729C6732.472-9628.635,6730.067-9627.475,6727.717-9626.275Zm11.688-5.445-1.169-2.764c2.479-1.049,5-2.051,7.5-2.975l1.043,2.813C6744.322-9633.736,6741.842-9632.752,6739.4-9631.721Zm-21.267-1.939c-.035-2.588-.03-5.295.016-8.045l3,.051c-.045,2.719-.05,5.395-.015,7.953Zm87.124-1.742a10.158,10.158,0,0,0-4.466-5.2l1.553-2.566a13.078,13.078,0,0,1,5.728,6.727Zm-53.812-.9-.96-2.84c2.567-.867,5.161-1.674,7.708-2.4l.82,2.887C6756.517-9637.943,6753.97-9637.152,6751.449-9636.3Zm12.351-3.625-.724-2.912c2.668-.662,5.326-1.244,7.9-1.729l.555,2.949C6769.014-9641.146,6766.412-9640.576,6763.8-9639.928Zm12.6-2.5-.431-2.969c2.817-.41,5.537-.693,8.084-.848l.18,3C6781.768-9643.1,6779.133-9642.83,6776.4-9642.432Zm20.29-.1a32.453,32.453,0,0,0-7.569-.844l.042-3a35.557,35.557,0,0,1,8.287.939Zm-75.41-4.1-3-.1c.086-2.6.208-5.3.36-8.027l3,.168C6721.482-9651.881,6721.361-9649.205,6721.277-9646.631Zm.67-12.928-2.993-.207c.18-2.6.392-5.295.63-8l2.988.264C6722.336-9664.816,6722.126-9662.143,6721.947-9659.559Zm1.088-12.912-2.986-.293c.257-2.605.542-5.289.85-7.98l2.98.342C6723.574-9677.729,6723.29-9675.061,6723.035-9672.471Zm1.432-12.883-2.979-.367c.32-2.605.669-5.281,1.033-7.953l2.973.406C6725.131-9690.609,6724.785-9687.947,6724.467-9685.354Zm1.723-12.852-2.97-.43c.378-2.609.78-5.281,1.2-7.934l2.964.465C6726.965-9703.463,6726.564-9700.8,6726.189-9698.205Zm1.98-12.824-2.96-.484c.429-2.617.881-5.277,1.343-7.906l2.955.52C6729.048-9716.283,6728.6-9713.635,6728.17-9711.029Zm2.219-12.785-2.951-.539c.484-2.645.985-5.3,1.488-7.879l2.945.574C6731.369-9729.088,6730.871-9726.447,6730.389-9723.814Zm2.454-12.734-2.94-.6c1-4.928,1.655-7.826,1.661-7.854l2.927.66C6734.484-9744.309,6733.835-9741.437,6732.843-9736.549Z" transform="translate(-5105.276 10370.668)" fill="url(#linear-gradient)"/>
  </g>
</svg>
