<svg xmlns="http://www.w3.org/2000/svg" width="50" height="50" viewBox="0 0 50 50"><g><g><g><path fill="#14b229" d="M25 47.5C12.573 47.5 2.5 37.426 2.5 25 2.5 12.573 12.573 2.5 25 2.5c12.426 0 22.5 10.073 22.5 22.5-.014 12.42-10.08 22.486-22.5 22.5zM25 0C11.193 0 0 11.193 0 25s11.193 25 25 25 25-11.193 25-25C49.984 11.2 38.8.016 25 0z"/></g><g><path fill="#14b229" d="M20.832 13.081a1.625 1.625 0 0 0-2.24.146c-.577.64-.51 1.61.15 2.17L30.077 25l-11.336 9.604c-.66.559-.727 1.53-.15 2.169.577.64 1.58.705 2.24.146l12.702-10.762c.344-.291.542-.714.542-1.157 0-.444-.198-.866-.542-1.158z"/></g></g></g></svg>