<svg xmlns="http://www.w3.org/2000/svg" width="51" height="50" viewBox="0 0 51 50"><g><g><g><path fill="#14b229" d="M3 25C3 12.573 13.074 2.5 25.5 2.5 37.927 2.5 48 12.573 48 25c0 12.426-10.073 22.5-22.5 22.5C13.08 47.486 3.014 37.42 3 25zM.5 25c0 13.807 11.193 25 25 25s25-11.193 25-25-11.193-25-25-25C11.7.016.516 11.2.5 25z"/></g><g><path fill="#14b229" d="M29.668 13.081a1.625 1.625 0 0 1 2.24.146c.577.64.51 1.61-.15 2.17L20.423 25l11.336 9.604c.66.559.727 1.53.15 2.169-.577.64-1.58.705-2.24.146L16.966 26.157A1.516 1.516 0 0 1 16.425 25c0-.444.198-.866.542-1.158z"/></g></g></g></svg>