<svg width="35" height="45" viewBox="0 0 35 45" fill="none" xmlns="http://www.w3.org/2000/svg">
<path d="M13.026 21.221C13.026 21.221 12.8381 21.1629 12.7577 21.0532C12.9135 20.8878 13.0154 20.7899 13.1701 20.6139C13.9911 19.6794 14.0614 18.6272 13.6391 17.506C13.4363 16.9676 13.114 16.4956 12.7803 16.0319C12.5709 15.7409 12.359 15.4515 12.1542 15.1573C11.838 14.703 11.682 14.2096 11.7127 13.6432C11.7523 12.9117 11.9441 12.6896 12.6779 12.6445C12.7575 12.6397 12.8422 12.6576 12.9145 12.5899C12.8714 12.0465 12.7658 11.5044 12.7957 10.9511C12.8503 9.94484 13.0512 8.98387 13.6268 8.13242C14.1789 7.31579 14.943 6.78371 15.8793 6.51237C16.2234 6.41263 16.4817 6.29131 16.4981 5.89071C16.5007 5.82861 16.5168 5.7503 16.5569 5.70909C16.886 5.37161 16.7079 5.04253 16.5213 4.74088C16.3144 4.40654 15.9655 4.42572 15.642 4.51069C15.2615 4.61057 14.9278 4.82241 14.5983 5.03532C13.9967 5.42405 13.439 5.87781 12.8027 6.216C11.8691 6.71231 10.877 6.88948 9.83109 6.8119C9.79139 6.80895 9.76968 6.79139 9.76332 6.71167C9.97648 6.65506 10.1989 6.59604 10.4212 6.53698C10.5473 6.41988 10.7155 6.42625 10.867 6.38499C10.9715 6.35205 11.0711 6.30183 11.1277 6.30845C11.2451 6.27279 11.1855 6.25076 11.1816 6.25371C11.0665 6.34153 10.9185 6.34755 10.7881 6.40299C10.6323 6.43865 10.4724 6.42207 10.3155 6.44238C9.75432 6.40874 9.18326 6.49544 8.63367 6.31444C8.64387 6.22844 8.69409 6.19121 8.76313 6.18153C9.38887 6.09371 9.87961 5.75522 10.3332 5.34355C11.1789 4.57579 11.7798 3.62907 12.3215 2.63783C12.6917 1.96039 13.1507 1.3527 13.72 0.82686C14.684 -0.0634506 16.0044 -0.266542 16.9982 0.373105C17.7328 0.84587 18.1379 1.57038 18.3532 2.39793C18.5748 3.24967 18.6855 4.11482 18.5839 4.99913C18.5368 5.40872 18.5473 5.43128 18.9162 5.57105C19.0958 5.63915 19.1766 5.7595 19.2274 5.91568C19.3038 6.15022 19.4482 6.2824 19.6883 6.36594C21.5025 6.99746 22.4473 8.34171 22.7753 10.1819C22.9214 11.0015 22.8965 11.8257 22.8258 12.6515C22.9858 12.7215 23.1237 12.6324 23.2664 12.6409C23.7289 12.6686 23.9532 12.8818 23.9655 13.3457C23.9721 13.5944 23.9059 13.8269 23.7927 14.0502C23.6001 14.4305 23.3448 14.7692 23.1067 15.1196C22.6763 15.7532 22.2125 16.376 22.0691 17.15C21.8866 18.1342 21.8538 19.1142 22.2629 20.0653C22.4216 20.434 22.6576 20.7383 22.9489 21.0042C23.1665 21.2056 23.4484 21.3229 23.7445 21.3354C24.1676 21.3563 24.5912 21.3681 25.0152 21.3706C26.0309 21.3753 26.8952 21.7193 27.5606 22.5022C27.6619 22.6213 27.7527 22.7008 27.9168 22.717C30.6243 22.9843 32.3779 24.5806 33.6474 26.8477C33.75 27.0309 33.8536 27.2137 33.9568 27.3967C34.6677 29.0578 34.4839 30.7255 33.9218 32.3657C33.1983 34.4768 31.7014 35.7638 29.5433 36.3135C27.6973 36.7837 25.8372 36.8076 23.9637 36.5671C23.854 36.5823 23.7415 36.5966 23.8653 36.7446C25.0195 37.6294 26.3176 38.218 27.7086 38.6162C28.0818 38.7231 28.0868 38.7263 28.0853 39.1012C28.0853 39.1012 27.0095 41.5005 27.5606 45.0005H9.76332C10.0095 41.5005 8.50068 39.8482 8.51713 39.9501C8.50872 39.9166 8.50322 39.8826 8.50068 39.8482C8.66194 39.6711 8.90676 39.6592 9.10899 39.5628C10.1828 39.0508 11.0904 38.3132 11.9513 37.5087C13.1712 36.3686 14.1904 35.0522 15.239 33.7616C16.1381 32.6551 17.1514 31.6668 18.3202 30.8482C19.5952 29.9555 20.9987 29.3867 22.5507 29.1789C23.4133 29.0633 24.2736 29.1131 25.1357 29.1159C25.7357 29.1406 25.5711 29.0674 25.8279 29.1125C25.9522 29.1442 26.0765 29.1779 26.2072 29.1598C26.267 29.161 26.3281 29.1578 26.3781 29.1905C26.3781 29.1905 26.3832 29.1927 26.3838 29.1985C26.3612 29.18 26.3354 29.1658 26.3078 29.1566C26.1914 29.1419 26.0808 29.1211 25.9765 29.0674C24.7681 28.4447 23.4793 28.1657 22.1275 28.0395C20.5953 27.8965 19.1023 28.1001 17.6032 28.3278C15.8037 28.6011 14.2739 29.436 12.9008 30.5972C11.8653 31.4729 10.9347 32.4604 9.93365 33.3731C9.0601 34.1694 8.1513 34.9041 7.04942 35.3675C5.76522 35.9076 4.49963 35.8126 3.24836 35.2651C2.25231 34.8292 1.33417 34.2777 0.626729 33.4273C-0.164288 32.1071 -0.176587 30.7438 0.421519 29.3571C0.717843 28.6647 1.15151 28.0398 1.69622 27.5202C1.8882 27.337 2.02152 27.1281 2.13188 26.8842C3.20598 24.5115 5.02526 23.0781 7.59102 22.6214C8.01899 22.5452 8.39147 22.3749 8.7636 22.1741C9.49738 21.7782 10.2609 21.4557 11.0866 21.3083C11.6526 21.2073 12.2253 21.2313 12.7817 21.4293C13.3381 21.6274 13.468 21.9147 13.8984 21.9818C14.0211 22.0501 14.1794 22.0326 14.2902 22.1073C14.2845 22.1032 14.302 22.1163 14.302 22.1163C14.302 22.1163 14.2866 22.1047 14.2807 22.101C14.187 22.0262 14.302 21.8643 14.11 21.7232C13.6163 21.4293 13.5042 21.3611 13.026 21.221Z" fill="#003b6b"/>
</svg>
