<svg xmlns="http://www.w3.org/2000/svg" width="21.84" height="21.84" viewBox="0 0 21.84 21.84">
  <path id="Icon_awesome-phone-alt" data-name="Icon awesome-phone-alt" d="M21.217,15.433l-4.778-2.048a1.024,1.024,0,0,0-1.194.294l-2.116,2.585A15.811,15.811,0,0,1,5.571,8.707L8.156,6.591A1.021,1.021,0,0,0,8.45,5.4L6.4.619A1.031,1.031,0,0,0,5.23.026L.793,1.05a1.024,1.024,0,0,0-.793,1A19.79,19.79,0,0,0,19.793,21.84a1.024,1.024,0,0,0,1-.793l1.024-4.436A1.036,1.036,0,0,0,21.217,15.433Z" transform="translate(0 0)" fill="#fff"/>
</svg>
