<svg xmlns="http://www.w3.org/2000/svg" width="21.84" height="21.84" viewBox="0 0 21.84 21.84">
  <path id="Icon_awesome-whatsapp" data-name="Icon awesome-whatsapp" d="M18.569,5.424A10.826,10.826,0,0,0,1.536,18.484L0,24.09l5.738-1.506A10.789,10.789,0,0,0,10.91,23.9h0A10.927,10.927,0,0,0,21.84,13.077a10.865,10.865,0,0,0-3.271-7.654ZM10.915,22.076a8.979,8.979,0,0,1-4.582-1.253l-.327-.195-3.4.892L3.51,18.2,3.3,17.86a9.013,9.013,0,1,1,16.716-4.782,9.1,9.1,0,0,1-9.1,9Zm4.933-6.737c-.268-.136-1.6-.79-1.848-.877s-.429-.136-.609.136-.7.877-.858,1.063-.317.2-.585.068a7.361,7.361,0,0,1-3.681-3.217c-.278-.478.278-.444.795-1.477a.5.5,0,0,0-.024-.473c-.068-.136-.609-1.467-.834-2.008S7.761,8.1,7.6,8.09s-.336-.01-.517-.01a1,1,0,0,0-.721.336,3.039,3.039,0,0,0-.946,2.257,5.3,5.3,0,0,0,1.1,2.8,12.084,12.084,0,0,0,4.621,4.085,5.292,5.292,0,0,0,3.247.678A2.77,2.77,0,0,0,16.2,16.948a2.262,2.262,0,0,0,.156-1.287C16.3,15.539,16.117,15.471,15.849,15.339Z" transform="translate(0 -2.25)" fill="#fff"/>
</svg>
