<svg id="Group_5597" data-name="Group 5597" xmlns="http://www.w3.org/2000/svg" width="26.691" height="26.69" viewBox="0 0 26.691 26.69">
  <g id="Group_18" data-name="Group 18">
    <ellipse id="Ellipse_14" data-name="Ellipse 14" cx="1.33" cy="1.33" rx="1.33" ry="1.33" transform="translate(8.411 8.411)" fill="#1976D2"/>
    <rect id="Rectangle_80" data-name="Rectangle 80" width="2.66" height="7.315" transform="translate(8.411 11.155)" fill="#1976D2"/>
    <path id="Path_32" data-name="Path 32" d="M13.345,0A13.345,13.345,0,1,0,26.691,13.345,13.345,13.345,0,0,0,13.345,0Zm0,25.477A12.132,12.132,0,1,1,25.478,13.345,12.132,12.132,0,0,1,13.345,25.477Z" fill="#1976D2"/>
    <path id="Path_33" data-name="Path 33" d="M237.623,221.091c-2,0-2.235,1.184-2.235,1.184v-1.184h-2.66v7.315h2.66v-3.99s0-1.33,1.131-1.33c.665,0,.865.592.865,1.33v3.99h2.66v-3.99C240.043,222.335,239.139,221.091,237.623,221.091Z" transform="translate(-220.985 -209.936)" fill="#1976D2"/>
  </g>
</svg>
