<svg xmlns="http://www.w3.org/2000/svg" width="126" height="40" viewBox="0 0 126 40"><g><g><g><g><g><path fill="#ed6b1f" d="M17.608 15.354a8.762 8.762 0 0 1-6.567 2.693C6.115 18.047 2 15.06 2 9.028 2 2.997 6.115.004 11.054.004a8.092 8.092 0 0 1 6.13 2.524L14.52 5.316a5.16 5.16 0 0 0-3.416-1.349c-2.838 0-4.908 2.074-4.908 5.049 0 3.249 2.23 4.978 4.838 4.978a5.13 5.13 0 0 0 3.727-1.415z"/></g><g><path fill="#ed6b1f" d="M27.883 4.01c2.833 0 4.628 2.421 4.628 5.018s-1.555 5.016-4.628 5.016c-3.072 0-4.627-2.424-4.627-5.016 0-2.56 1.594-5.045 4.627-5.017zM27.855.145c-5.43 0-8.813 3.968-8.813 8.884 0 4.917 3.312 8.88 8.847 8.88s8.88-3.971 8.88-8.88c0-4.873-3.484-8.884-8.914-8.884z"/></g><g><path fill="#ed6b1f" d="M51.007 17.534V8.403c0-2.23-1.171-4.28-3.49-4.28-2.32 0-3.63 2.016-3.63 4.28v9.13h-4.214V.46h3.903l.311 2.068C44.785.8 46.757.175 48.375.175c2.04 0 4.08.83 5.017 3.178A6.17 6.17 0 0 1 59.128.248c4.838 0 7.247 2.976 7.247 8.089v9.197h-4.214V8.337c0-2.23-.936-4.148-3.217-4.148-2.28 0-3.717 1.95-3.717 4.214v9.13z"/></g><g><path fill="#ed6b1f" d="M74.548.493l.308 1.964C76.17.353 77.93.042 79.66.042a6.44 6.44 0 0 1 4.387 1.645l-1.895 3.656a4.225 4.225 0 0 0-3.043-1.115c-2.23 0-4.253 1.177-4.253 4.32v8.976H70.64V.494z"/></g><g><path fill="#ed6b1f" d="M93.942 3.848c6.633 0 6.633 10.335 0 10.335-2.788 0-5.018-1.94-5.018-5.188 0-3.251 2.266-5.153 5.018-5.147zm5.057-.965c-.965-1.71-3.145-2.786-5.425-2.786-4.984-.034-8.887 3.043-8.887 8.919 0 5.975 3.732 9.086 8.78 9.052 1.902-.032 4.561-1.003 5.532-3.004l.223 2.47h3.972V.494h-4.04z"/></g><g><path fill="#ed6b1f" d="M117.612.493h5.049v.14l-5.61 8.256L123 17.43v.105h-5.049l-3.695-5.708-3.696 5.708h-5.049v-.101l5.942-8.54-5.57-8.26v-.14h5.048l3.342 5.77z"/></g></g><g><g><path fill="#fff" d="M6.168 21.913h.196l1.386 4.129 1.402-4.129h.365L7.924 26.44h-.37l-.719-2.115-.56-1.79-.562 1.779-.74 2.126h-.37L3.02 21.913h.365l1.419 4.129z"/><path fill="none" stroke="#fff" stroke-miterlimit="20" stroke-width=".3" d="M6.168 21.913v0h.196v0l1.386 4.129v0l1.402-4.129v0h.365v0L7.924 26.44v0h-.37v0l-.719-2.115v0l-.56-1.79v0l-.562 1.779v0l-.74 2.126v0h-.37v0L3.02 21.913v0h.365v0l1.419 4.129v0z"/></g><g><path fill="#fff" d="M9.685 24.702a1.275 1.275 0 0 1 1.296-1.228 1.15 1.15 0 0 1 .17 0 1.172 1.172 0 0 1 1.109 1.233zm-.337.134a1.56 1.56 0 0 0 1.634 1.64c.517.005 1.01-.22 1.346-.611l-.224-.18c-.29.312-.697.487-1.122.483a1.25 1.25 0 0 1-1.308-1.184h2.872a1.485 1.485 0 0 0-1.564-1.792h-.069a1.606 1.606 0 0 0-1.565 1.644z"/><path fill="none" stroke="#fff" stroke-miterlimit="20" stroke-width=".3" d="M9.685 24.702a1.275 1.275 0 0 1 1.296-1.228 1.15 1.15 0 0 1 .17 0 1.172 1.172 0 0 1 1.109 1.233zm-.337.134a1.56 1.56 0 0 0 1.634 1.64c.517.005 1.01-.22 1.346-.611l-.224-.18c-.29.312-.697.487-1.122.483a1.25 1.25 0 0 1-1.308-1.184h2.872a1.485 1.485 0 0 0-1.564-1.792h-.069a1.606 1.606 0 0 0-1.565 1.644z"/></g><g><path fill="#fff" d="M13.679 24.836v-.08a1.272 1.272 0 0 1 1.291-1.262 1.34 1.34 0 0 1 0 2.675h-.098a1.272 1.272 0 0 1-1.203-1.339zm-.33-2.895v4.488h.309v-.701c.276.474.787.761 1.335.751a1.644 1.644 0 0 0 0-3.287 1.42 1.42 0 0 0-1.324.746v-2.025z"/><path fill="none" stroke="#fff" stroke-miterlimit="20" stroke-width=".3" d="M13.679 24.836v-.08a1.272 1.272 0 0 1 1.291-1.262 1.34 1.34 0 0 1 0 2.675h-.098a1.272 1.272 0 0 1-1.203-1.339zm-.33-2.895v4.488h.309v-.701c.276.474.787.761 1.335.751a1.644 1.644 0 0 0 0-3.287 1.42 1.42 0 0 0-1.324.746v-2.025z"/></g><g><path fill="#fff" d="M19.458 23.231v3.198h-.314V23.23zm.107-1.026a.258.258 0 1 1-.51.076.258.258 0 0 1 .51-.076z"/><path fill="none" stroke="#fff" stroke-miterlimit="20" stroke-width=".3" d="M19.458 23.231v3.198h-.314V23.23zm.107-1.026a.258.258 0 1 1-.51.076.258.258 0 0 1 .51-.076z"/></g><g><path fill="#fff" d="M20.67 23.243v.56a1.282 1.282 0 0 1 1.122-.628 1.33 1.33 0 0 1 1.434 1.408v1.84h-.297V24.6a1.015 1.015 0 0 0-1.122-1.122c-.62 0-1.122.502-1.122 1.122v1.813h-.314v-3.17z"/><path fill="none" stroke="#fff" stroke-miterlimit="20" stroke-width=".3" d="M20.67 23.243v.56a1.282 1.282 0 0 1 1.122-.628 1.33 1.33 0 0 1 1.434 1.408v1.84h-.297v0V24.6a1.015 1.015 0 0 0-1.122-1.122c-.62 0-1.122.502-1.122 1.122v1.813h-.314v0-3.17 0z"/></g><g><path fill="#fff" d="M24.377 23.243v.56a1.29 1.29 0 0 1 1.122-.628 1.335 1.335 0 0 1 1.44 1.408v1.84h-.32V24.6a1.015 1.015 0 0 0-1.121-1.122c-.62 0-1.122.502-1.122 1.122v1.813h-.32v-3.17z"/><path fill="none" stroke="#fff" stroke-miterlimit="20" stroke-width=".3" d="M24.377 23.243v.56a1.29 1.29 0 0 1 1.122-.628 1.335 1.335 0 0 1 1.44 1.408v1.84h-.32v0V24.6a1.015 1.015 0 0 0-1.121-1.122c-.62 0-1.122.502-1.122 1.122v1.813h-.32v0-3.17 0z"/></g><g><path fill="#fff" d="M30.56 24.841c.003.058.003.117.005.174a1.314 1.314 0 0 1-2.621-.174v-.174a1.314 1.314 0 0 1 2.617.174zm-2.929 0a1.623 1.623 0 1 0 1.622-1.624c-.896 0-1.623.728-1.622 1.624z"/><path fill="none" stroke="#fff" stroke-miterlimit="20" stroke-width=".3" d="M30.56 24.841c.003.058.003.117.005.174a1.314 1.314 0 0 1-2.621-.174v-.174a1.314 1.314 0 0 1 2.617.174zm-2.929 0a1.623 1.623 0 1 0 1.622-1.624c-.896 0-1.623.728-1.622 1.624z"/></g><g><path fill="#fff" d="M31.234 23.243h.347l1.162 2.804 1.16-2.804h.351l-1.335 3.186h-.348z"/><path fill="none" stroke="#fff" stroke-miterlimit="20" stroke-width=".3" d="M31.234 23.243v0h.347v0l1.162 2.804v0l1.16-2.804v0h.351v0l-1.335 3.186v0h-.348v0z"/></g><g><path fill="#fff" d="M34.918 24.836v-.091a1.276 1.276 0 0 1 1.308-1.239 1.335 1.335 0 0 1 0 2.665h-.087a1.279 1.279 0 0 1-1.22-1.335zm2.61-1.599v.701a1.437 1.437 0 0 0-1.302-.735 1.638 1.638 0 1 0 0 3.276 1.48 1.48 0 0 0 1.296-.729v.679h.32v-3.186z"/><path fill="none" stroke="#fff" stroke-miterlimit="20" stroke-width=".3" d="M34.918 24.836v-.091a1.276 1.276 0 0 1 1.308-1.239 1.335 1.335 0 0 1 0 2.665h-.087a1.279 1.279 0 0 1-1.22-1.335zm2.61-1.599v.701a1.437 1.437 0 0 0-1.302-.735 1.638 1.638 0 1 0 0 3.276 1.48 1.48 0 0 0 1.296-.729v.679h.32v-3.186z"/></g><g><path fill="#fff" d="M39.289 22.278v.965h1.088v.263h-1.088v1.941c0 .432.09.735.589.735.17-.005.337-.05.488-.13l.112.259c-.185.1-.39.156-.6.163-.679 0-.898-.399-.898-1.027v-1.94h-.678v-.264h.678v-.932z"/><path fill="none" stroke="#fff" stroke-miterlimit="20" stroke-width=".3" d="M39.289 22.278v.965h1.088v.263h-1.088v1.941c0 .432.09.735.589.735.17-.005.337-.05.488-.13l.112.259c-.185.1-.39.156-.6.163-.679 0-.898-.399-.898-1.027v-1.94 0h-.678v0-.264 0h.678v0-.932 0z"/></g><g><path fill="#fff" d="M41.42 23.231v3.198h-.32V23.23zm.101-1.026a.258.258 0 1 1-.51.076.258.258 0 0 1 .51-.076z"/><path fill="none" stroke="#fff" stroke-miterlimit="20" stroke-width=".3" d="M41.42 23.231v3.198h-.32V23.23zm.101-1.026a.258.258 0 1 1-.51.076.258.258 0 0 1 .51-.076z"/></g><g><path fill="#fff" d="M45.173 24.841c.005.058.006.116.003.174a1.313 1.313 0 0 1-2.62-.174 1.313 1.313 0 1 1 2.62 0zm-2.925.191a1.621 1.621 0 0 0 3.236-.19 1.621 1.621 0 1 0-3.237 0 1.452 1.452 0 0 0 0 .19z"/><path fill="none" stroke="#fff" stroke-miterlimit="20" stroke-width=".3" d="M45.173 24.841c.005.058.006.116.003.174a1.313 1.313 0 0 1-2.62-.174 1.313 1.313 0 1 1 2.62 0zm-2.925.191a1.621 1.621 0 0 0 3.236-.19 1.621 1.621 0 1 0-3.237 0 1.452 1.452 0 0 0 0 .19z"/></g><g><path fill="#fff" d="M46.52 23.243v.56a1.285 1.285 0 0 1 1.121-.628 1.33 1.33 0 0 1 1.435 1.408v1.84h-.314V24.6a1.015 1.015 0 0 0-1.122-1.122c-.62 0-1.122.502-1.122 1.122v1.813h-.309v-3.17z"/><path fill="none" stroke="#fff" stroke-miterlimit="20" stroke-width=".3" d="M46.52 23.243v.56a1.285 1.285 0 0 1 1.121-.628 1.33 1.33 0 0 1 1.435 1.408v1.84h-.314v0V24.6a1.015 1.015 0 0 0-1.122-1.122c-.62 0-1.122.502-1.122 1.122v1.813h-.309v0-3.17 0z"/></g><g><path fill="#fff" d="M54.744 25.252c0 .752-.729.931-1.245.931-.92 0-1.34-.392-1.34-.953 0-.466.454-.965 1.346-.965h1.234zm.241-2.255c0-.931-.729-1.122-1.452-1.122-1.045 0-1.606.5-1.606 1.2.018.48.338.894.796 1.033a1.23 1.23 0 0 0-.908 1.122c0 .78.56 1.262 1.683 1.262a1.42 1.42 0 0 0 1.33-.628c.06.357.392.605.752.56v-.269c-.449.006-.56-.426-.56-.908v-.982h.42v-.28H53.52c-.54 0-1.286-.214-1.286-.904-.005-.51.411-.908 1.275-.908.595 0 1.156.129 1.156.83z"/><path fill="none" stroke="#fff" stroke-miterlimit="20" stroke-width=".3" d="M54.744 25.252c0 .752-.729.931-1.245.931-.92 0-1.34-.392-1.34-.953 0-.466.454-.965 1.346-.965h1.234zm.241-2.255c0-.931-.729-1.122-1.452-1.122-1.045 0-1.606.5-1.606 1.2.018.48.338.894.796 1.033a1.23 1.23 0 0 0-.908 1.122c0 .78.56 1.262 1.683 1.262a1.42 1.42 0 0 0 1.33-.628c.06.357.392.605.752.56v-.269c-.449.006-.56-.426-.56-.908v-.982h.42v-.28H53.52c-.54 0-1.286-.214-1.286-.904-.005-.51.411-.908 1.275-.908.595 0 1.156.129 1.156.83z"/></g><g><path fill="#fff" d="M59.67 22.257a1.93 1.93 0 1 1 0 3.854h-1.184v-3.865zm2.29 1.727a2.17 2.17 0 0 0-2.29-2.037h-1.532v4.487h1.531a2.17 2.17 0 0 0 2.294-2.31c0-.051 0-.095-.002-.14z"/><path fill="none" stroke="#fff" stroke-miterlimit="20" stroke-width=".3" d="M59.67 22.257a1.93 1.93 0 1 1 0 3.854h-1.184v-3.865zm2.29 1.727a2.17 2.17 0 0 0-2.29-2.037h-1.532v4.487h1.531a2.17 2.17 0 0 0 2.294-2.31c0-.051 0-.095-.002-.14z"/></g><g><path fill="#fff" d="M63.003 23.231v3.198h-.316V23.23zm.105-1.026a.258.258 0 1 1-.51.076.258.258 0 0 1 .51-.076z"/><path fill="none" stroke="#fff" stroke-miterlimit="20" stroke-width=".3" d="M63.003 23.231v3.198h-.316V23.23zm.105-1.026a.258.258 0 1 1-.51.076.258.258 0 0 1 .51-.076z"/></g><g><path fill="#fff" d="M64.067 24.739a1.196 1.196 0 1 1 2.384 0c.001.665-.53 1.208-1.195 1.223h-.074a1.167 1.167 0 0 1-1.11-1.222zm2.092-1.278a1.625 1.625 0 0 0-.903-.291 1.554 1.554 0 0 0 0 3.102c.595 0 1.206.275 1.206.953 0 .679-.572.96-1.206.96s-1.194-.309-1.194-.96h-.315c0 .808.662 1.274 1.51 1.274.846 0 1.514-.415 1.514-1.274a1.171 1.171 0 0 0-.87-1.122 1.57 1.57 0 0 0 .466-2.451l.308-.359-.207-.18z"/><path fill="none" stroke="#fff" stroke-miterlimit="20" stroke-width=".3" d="M64.067 24.739a1.196 1.196 0 1 1 2.384 0c.001.665-.53 1.208-1.195 1.223h-.074a1.167 1.167 0 0 1-1.11-1.222zm2.092-1.278a1.625 1.625 0 0 0-.903-.291 1.554 1.554 0 0 0 0 3.102c.595 0 1.206.275 1.206.953 0 .679-.572.96-1.206.96s-1.194-.309-1.194-.96h-.315c0 .808.662 1.274 1.51 1.274.846 0 1.514-.415 1.514-1.274a1.171 1.171 0 0 0-.87-1.122 1.57 1.57 0 0 0 .466-2.451l.308-.359-.207-.18z"/></g><g><path fill="#fff" d="M67.724 23.231v3.198h-.314V23.23zm.107-1.026a.258.258 0 1 1-.51.076.258.258 0 0 1 .51-.076z"/><path fill="none" stroke="#fff" stroke-miterlimit="20" stroke-width=".3" d="M67.724 23.231v3.198h-.314V23.23zm.107-1.026a.258.258 0 1 1-.51.076.258.258 0 0 1 .51-.076z"/></g><g><path fill="#fff" d="M69.357 22.278v.965h1.088v.263h-1.088v1.941c0 .432.09.735.56.735.171-.005.338-.05.489-.13l.112.259c-.185.1-.39.156-.6.163-.679 0-.898-.399-.898-1.027v-1.94h-.65v-.264h.678v-.932z"/><path fill="none" stroke="#fff" stroke-miterlimit="20" stroke-width=".3" d="M69.357 22.278v.965h1.088v.263h-1.088v1.941c0 .432.09.735.56.735.171-.005.338-.05.489-.13l.112.259c-.185.1-.39.156-.6.163-.679 0-.898-.399-.898-1.027v-1.94 0h-.65v0-.264 0h.678v0-.932 0z"/></g><g><path fill="#fff" d="M71.315 24.834v-.085a1.272 1.272 0 0 1 1.302-1.244 1.335 1.335 0 1 1 0 2.664h-.081a1.278 1.278 0 0 1-1.22-1.333zm2.61-1.597v.701a1.453 1.453 0 0 0-1.308-.735 1.638 1.638 0 0 0 0 3.276 1.5 1.5 0 0 0 1.307-.729v.679h.314v-3.186z"/><path fill="none" stroke="#fff" stroke-miterlimit="20" stroke-width=".3" d="M71.315 24.834v-.085a1.272 1.272 0 0 1 1.302-1.244 1.335 1.335 0 1 1 0 2.664h-.081a1.278 1.278 0 0 1-1.22-1.333zm2.61-1.597v.701a1.453 1.453 0 0 0-1.308-.735 1.638 1.638 0 0 0 0 3.276 1.5 1.5 0 0 0 1.307-.729v.679h.314v-3.186z"/></g><g><path fill="#fff" d="M75.41 21.913v4.488h-.313v-4.488z"/><path fill="none" stroke="#fff" stroke-miterlimit="20" stroke-width=".3" d="M75.41 21.913v4.488h-.313v0-4.488 0z"/></g><g><path fill="#fff" d="M78.799 22.278v.965h1.083v.263h-1.083v1.941c0 .432.09.735.56.735.173-.007.341-.05.495-.13l.106.259a1.32 1.32 0 0 1-.6.163c-.673 0-.898-.399-.898-1.027v-1.94h-.673v-.264h.673v-.932z"/><path fill="none" stroke="#fff" stroke-miterlimit="20" stroke-width=".3" d="M78.799 22.278v.965h1.083v.263h-1.083v1.941c0 .432.09.735.56.735.173-.007.341-.05.495-.13l.106.259a1.32 1.32 0 0 1-.6.163c-.673 0-.898-.399-.898-1.027v-1.94 0h-.673v0-.264 0h.673v0-.932 0z"/></g><g><path fill="#fff" d="M80.908 23.243v.56c.205-.39.62-.626 1.06-.6a1.25 1.25 0 0 1 .685.185l-.14.258a1.036 1.036 0 0 0-.562-.14 1.06 1.06 0 0 0-1.054 1.066v1.857h-.314v-3.186z"/><path fill="none" stroke="#fff" stroke-miterlimit="20" stroke-width=".3" d="M80.908 23.243v.56c.205-.39.62-.626 1.06-.6a1.25 1.25 0 0 1 .685.185l-.14.258a1.036 1.036 0 0 0-.562-.14 1.06 1.06 0 0 0-1.054 1.066v1.857h-.314v0-3.186 0z"/></g><g><path fill="#fff" d="M83.28 24.836v-.086a1.273 1.273 0 0 1 1.302-1.244h.178a1.335 1.335 0 0 1-.178 2.665h-.08a1.282 1.282 0 0 1-1.221-1.335zm2.61-1.599v.701a1.45 1.45 0 0 0-1.308-.735 1.638 1.638 0 1 0 0 3.276 1.492 1.492 0 0 0 1.307-.729v.679h.314v-3.186z"/><path fill="none" stroke="#fff" stroke-miterlimit="20" stroke-width=".3" d="M83.28 24.836v-.086a1.273 1.273 0 0 1 1.302-1.244h.178a1.335 1.335 0 0 1-.178 2.665h-.08a1.282 1.282 0 0 1-1.221-1.335zm2.61-1.599v.701a1.45 1.45 0 0 0-1.308-.735 1.638 1.638 0 1 0 0 3.276 1.492 1.492 0 0 0 1.307-.729v.679h.314v-3.186z"/></g><g><path fill="#fff" d="M87.37 23.243v.56a1.285 1.285 0 0 1 1.122-.628 1.334 1.334 0 0 1 1.436 1.411v1.84h-.314v-1.823a1.021 1.021 0 0 0-1.122-1.122c-.62 0-1.122.502-1.122 1.122v1.813h-.314v-3.173z"/><path fill="none" stroke="#fff" stroke-miterlimit="20" stroke-width=".3" d="M87.37 23.243v.56a1.285 1.285 0 0 1 1.122-.628 1.334 1.334 0 0 1 1.436 1.411v1.84h-.314v0-1.823a1.021 1.021 0 0 0-1.122-1.122c-.62 0-1.122.502-1.122 1.122v1.813h-.314v0-3.173 0z"/></g><g><path fill="#fff" d="M92.959 23.82a1.376 1.376 0 0 0-.993-.336c-.5 0-.982.185-.965.589.017.404.56.51.97.56.561.096 1.352.191 1.318.938-.033.746-.751.886-1.313.886a1.636 1.636 0 0 1-1.392-.64l.23-.202c.276.364.71.573 1.167.561.387 0 .982-.1.999-.605.016-.505-.516-.561-1.044-.634-.617-.101-1.228-.22-1.24-.859-.01-.64.623-.897 1.263-.886.436-.02.862.132 1.189.42z"/><path fill="none" stroke="#fff" stroke-miterlimit="20" stroke-width=".3" d="M92.959 23.82a1.376 1.376 0 0 0-.993-.336c-.5 0-.982.185-.965.589.017.404.56.51.97.56.561.096 1.352.191 1.318.938-.033.746-.751.886-1.313.886a1.636 1.636 0 0 1-1.392-.64l.23-.202c.276.364.71.573 1.167.561.387 0 .982-.1.999-.605.016-.505-.516-.561-1.044-.634-.617-.101-1.228-.22-1.24-.859-.01-.64.623-.897 1.263-.886.436-.02.862.132 1.189.42z"/></g><g><path fill="#fff" d="M94.322 26.429v-2.884h-.657v-.28h.657v-.28c0-.634.246-1.094.953-1.094.23.003.452.08.634.218l-.157.236a.841.841 0 0 0-.488-.163c-.404 0-.634.247-.634.803v.28h1.06v.28h-1.049v2.884z"/><path fill="none" stroke="#fff" stroke-miterlimit="20" stroke-width=".3" d="M94.322 26.429v0-2.884 0h-.657v0-.28 0h.657v0-.28c0-.634.246-1.094.953-1.094.23.003.452.08.634.218l-.157.236a.841.841 0 0 0-.488-.163c-.404 0-.634.247-.634.803v.28h1.06v.28h-1.049v2.884z"/></g><g><path fill="#fff" d="M98.938 24.841a1.313 1.313 0 1 1-2.62 0 1.313 1.313 0 1 1 2.62 0zm-2.928 0a1.621 1.621 0 1 0 3.237 0 1.621 1.621 0 1 0-3.237 0z"/><path fill="none" stroke="#fff" stroke-miterlimit="20" stroke-width=".3" d="M98.938 24.841a1.313 1.313 0 1 1-2.62 0 1.313 1.313 0 1 1 2.62 0zm-2.928 0a1.621 1.621 0 1 0 3.237 0 1.621 1.621 0 1 0-3.237 0z"/></g><g><path fill="#fff" d="M100.273 23.243v.56c.205-.39.62-.626 1.06-.6.242-.005.48.06.685.185l-.14.258a1.06 1.06 0 0 0-1.599.92v1.857h-.314v-3.18z"/><path fill="none" stroke="#fff" stroke-miterlimit="20" stroke-width=".3" d="M100.273 23.243v.56c.205-.39.62-.626 1.06-.6.242-.005.48.06.685.185l-.14.258a1.06 1.06 0 0 0-1.599.92v1.857h-.314v0-3.18 0z"/></g><g><path fill="#fff" d="M107.23 26.429v-1.907a.982.982 0 0 0-1.022-1.048 1.01 1.01 0 0 0-1.028.99v1.966h-.314v-1.885a1.027 1.027 0 1 0-2.047 0v1.89h-.314v-3.192h.297v.527a1.122 1.122 0 0 1 1.038-.595 1.177 1.177 0 0 1 1.183.791 1.221 1.221 0 0 1 1.178-.79 1.285 1.285 0 0 1 1.337 1.346v1.907z"/><path fill="none" stroke="#fff" stroke-miterlimit="20" stroke-width=".3" d="M107.23 26.429v0-1.907a.982.982 0 0 0-1.022-1.048 1.01 1.01 0 0 0-1.028.99v1.966h-.314v0-1.885a1.027 1.027 0 1 0-2.047 0v1.89h-.314v0-3.192 0h.297v.527a1.122 1.122 0 0 1 1.038-.595 1.177 1.177 0 0 1 1.183.791 1.221 1.221 0 0 1 1.178-.79 1.285 1.285 0 0 1 1.337 1.346v1.907z"/></g><g><path fill="#fff" d="M108.592 24.836v-.086c.016-.703.6-1.26 1.303-1.244h.177a1.335 1.335 0 0 1-.177 2.665h-.081a1.282 1.282 0 0 1-1.222-1.335zm2.593-1.599v.701a1.45 1.45 0 0 0-1.308-.735 1.638 1.638 0 1 0 0 3.276 1.49 1.49 0 0 0 1.308-.729v.679h.314v-3.186z"/><path fill="none" stroke="#fff" stroke-miterlimit="20" stroke-width=".3" d="M108.592 24.836v-.086c.016-.703.6-1.26 1.303-1.244h.177a1.335 1.335 0 0 1-.177 2.665h-.081a1.282 1.282 0 0 1-1.222-1.335zm2.593-1.599v.701a1.45 1.45 0 0 0-1.308-.735 1.638 1.638 0 1 0 0 3.276 1.49 1.49 0 0 0 1.308-.729v.679h.314v-3.186z"/></g><g><path fill="#fff" d="M112.952 22.278v.965h1.083v.263h-1.083v1.941c0 .432.09.735.56.735.173-.007.341-.051.495-.13l.106.259c-.184.1-.39.157-.6.163-.673 0-.892-.399-.892-1.027v-1.94h-.662v-.264h.679v-.932z"/><path fill="none" stroke="#fff" stroke-miterlimit="20" stroke-width=".3" d="M112.952 22.278v.965h1.083v.263h-1.083v1.941c0 .432.09.735.56.735.173-.007.341-.051.495-.13l.106.259c-.184.1-.39.157-.6.163-.673 0-.892-.399-.892-1.027v-1.94 0h-.662v0-.264 0h.679v0-.932 0z"/></g><g><path fill="#fff" d="M115.078 23.231v3.198h-.314V23.23zm.107-1.026a.258.258 0 1 1-.51.076.258.258 0 0 1 .51-.076z"/><path fill="none" stroke="#fff" stroke-miterlimit="20" stroke-width=".3" d="M115.078 23.231v3.198h-.314V23.23zm.107-1.026a.258.258 0 1 1-.51.076.258.258 0 0 1 .51-.076z"/></g><g><path fill="#fff" d="M117.507 26.154a1.313 1.313 0 1 1 0-2.625 1.313 1.313 0 0 1 0 2.625zm-1.621-1.313a1.62 1.62 0 1 0 3.242 0 1.621 1.621 0 0 0-3.242 0z"/><path fill="none" stroke="#fff" stroke-miterlimit="20" stroke-width=".3" d="M117.507 26.154a1.313 1.313 0 1 1 0-2.625 1.313 1.313 0 0 1 0 2.625zm-1.621-1.313a1.62 1.62 0 1 0 3.242 0 1.621 1.621 0 0 0-3.242 0z"/></g><g><path fill="#fff" d="M120.183 23.243v.56a1.28 1.28 0 0 1 1.122-.628 1.335 1.335 0 0 1 1.438 1.408v1.84h-.314V24.6a1.02 1.02 0 0 0-1.122-1.122c-.62 0-1.122.502-1.122 1.122v1.813h-.314v-3.17z"/><path fill="none" stroke="#fff" stroke-miterlimit="20" stroke-width=".3" d="M120.183 23.243v.56a1.28 1.28 0 0 1 1.122-.628 1.335 1.335 0 0 1 1.438 1.408v1.84h-.314v0V24.6a1.02 1.02 0 0 0-1.122-1.122c-.62 0-1.122.502-1.122 1.122v1.813h-.314v0-3.17 0z"/></g></g><g><g><path fill="#d11a2e" d="M24.69 39.55v-2.323h18.903v2.324z"/></g><g><path fill="#ec6623" d="M43.593 39.55v-2.323h18.902v2.324z"/></g><g><path fill="#6eb639" d="M62.5 39.55v-2.323h18.903v2.324z"/></g><g><path fill="#5bc1d4" d="M81.405 39.55v-2.323h18.902v2.324z"/></g></g></g></g></g></svg>