<svg xmlns="http://www.w3.org/2000/svg" width="141.516" height="126.055" viewBox="0 0 141.516 126.055">
  <g id="UN_emblem_blue" style="mix-blend-mode: normal;isolation: isolate">
    <g id="g3320" transform="translate(7.603 0)">
      <g id="Group_8" data-name="Group 8" transform="translate(0 0)">
        <g id="Group_7" data-name="Group 7">
          <g id="Group_5" data-name="Group 5" transform="translate(0 4.337)">
            <g id="Group_3" data-name="Group 3">
              <path id="Path_1" data-name="Path 1" d="M38.55,131.164l.315.276a17.025,17.025,0,0,1,.158-7.334c1.025-3.706,2.366-7.255,3.036-11.08.552-2.957,1.143-6.309.789-9.187a14.571,14.571,0,0,1-1.656,4.416c-3.233,5.008-6.545,10.883-4.3,17.231-.039.079-.118.158-.2.118-.907-2.129-1.1-4.5-1.7-6.743C33.424,112.908,28.85,107.9,30.191,101a24.922,24.922,0,0,0-1.38,4.811c-.789,4.219,0,8.675,1.143,12.578C31.374,123.278,36.106,126.748,38.55,131.164Z" transform="translate(-28.493 -70.836)" fill="#009edb"/>
              <path id="Path_2" data-name="Path 2" d="M50.625,63.082a16.109,16.109,0,0,1,4.889-5.836c4.613-3.47,9.621-7.965,9.7-13.84-1.538,4.219-6.151,5.993-9.227,8.872a14.763,14.763,0,0,0-3.628,5.284l-.118-.079c.355-1.7,1.1-3.233,1.617-4.889,1.341-4.5,1.1-9.858,5.481-12.894A12.367,12.367,0,0,0,53.5,43.6h0c-3.549,3.943-3.233,9.739-2.8,14.865A18.074,18.074,0,0,1,50.625,63.082Z" transform="translate(-41.79 -33.707)" fill="#009edb"/>
              <path id="Path_3" data-name="Path 3" d="M64.5,41.061c2.445-2.287,5.284-4.022,7.374-6.743,2.484-3.273,4.653-6.979,7.926-9.818-4.416,1.735-9.187,3.47-12.066,8.044C66.077,35.186,65.8,38.3,64.5,41.061Z" transform="translate(-50.302 -24.5)" fill="#009edb"/>
              <path id="Path_4" data-name="Path 4" d="M48.93,74.243a22.837,22.837,0,0,0,2.05-7.019,7.58,7.58,0,0,1-1.853,2.76c-3.588,3.391-7.768,6.7-8.6,11.514-.118.71-.2,1.38-.355,2.05-.158.079-.158-.118-.2-.158l.473-5.954c.434-5.8-2.6-12.263.71-17.349-.118-.039-.2.079-.276.118C37.85,64.07,35.8,68.368,35.8,73.573c0,6.427,3.706,10.962,4.18,16.995C40.887,84.3,46.21,79.8,48.93,74.243Z" transform="translate(-32.919 -46.051)" fill="#009edb"/>
              <path id="Path_5" data-name="Path 5" d="M37.548,165.025c3.43,2.721,7.571,4.85,10.725,7.255a43.934,43.934,0,0,1-2.05-4.653c-1.853-7.452-.828-16.127-4.022-23.027.591,3.943-.946,7.413-1.3,11.159a16.644,16.644,0,0,0,1.459,8.635,15.425,15.425,0,0,1,1.183,2.248,16.35,16.35,0,0,1-2.76-3.628c-3.706-6.033-11.514-9.936-12.026-17.231h0a22.771,22.771,0,0,0,1.1,9.582C31.318,159.308,34.2,162.383,37.548,165.025Z" transform="translate(-28.594 -97.244)" fill="#009edb"/>
              <path id="Path_6" data-name="Path 6" d="M120.857,246.6c-6.033,0-11.435,2.918-16.679,5.126-4.771,1.972-11.119,1.617-15.378-1.341a17.867,17.867,0,0,0,7.807,5.363c5.363,2.129,11.671.513,16.245-2.445,3.273-2.129,6.112-5.126,10.055-5.126,6.348,0,13.012,6.506,18.69,12.381a20.014,20.014,0,0,0,2.524-2.287C138.206,252.593,129.768,246.6,120.857,246.6Z" transform="translate(-65.021 -159.025)" fill="#009edb"/>
              <path id="Path_7" data-name="Path 7" d="M94.384,224.881c.946-.237,2.05-.158,2.918-.473-3.588-.71-7.019-1.814-9.818-4.377C83.5,216.4,79.952,212.5,75.733,209.7c3.352,4.5,4.3,11,10.37,13.288a17.659,17.659,0,0,1,3.273,1.065,8.237,8.237,0,0,1-3.273-.434c-7.847-1.7-17.428.473-23.3-6.191a19.827,19.827,0,0,0,11.277,9.266C80.82,228.982,87.957,226.458,94.384,224.881Z" transform="translate(-49.272 -136.675)" fill="#009edb"/>
              <path id="Path_8" data-name="Path 8" d="M66.5,201.338c-5.126-4.1-5.875-10.291-8.162-15.693a38.09,38.09,0,0,0-6.191-9.345c2.681,5.4,1.538,12.342,5.008,17.428a25.02,25.02,0,0,0,4.022,4.377l-.039.079a17.762,17.762,0,0,1-3.628-2.445c-6.112-5.126-15.338-5.757-19.006-14.077h0c.986,6.112,5.836,11.514,11.08,14.9C54.588,199.879,60.975,199.525,66.5,201.338Z" transform="translate(-34.554 -116.444)" fill="#009edb"/>
            </g>
            <g id="Group_4" data-name="Group 4" transform="translate(45.585 0.039)">
              <path id="Path_9" data-name="Path 9" d="M277.786,34.379c2.09,2.76,4.929,4.456,7.374,6.743-1.3-2.76-1.577-5.875-3.233-8.517-2.878-4.535-7.61-6.309-12.026-8C273.133,27.4,275.3,31.067,277.786,34.379Z" transform="translate(-220.296 -24.6)" fill="#009edb"/>
              <path id="Path_10" data-name="Path 10" d="M296.556,52.594c.473,1.617,1.222,3.194,1.617,4.889l-.118.079a13.537,13.537,0,0,0-3.628-5.284c-3.076-2.918-7.689-4.653-9.227-8.911.079,5.915,5.126,10.41,9.7,13.84a16.509,16.509,0,0,1,4.889,5.836,19.793,19.793,0,0,1-.118-4.574c.473-5.165.789-10.922-2.76-14.865h0a12.085,12.085,0,0,0-5.836-3.9C295.452,42.736,295.215,48.1,296.556,52.594Z" transform="translate(-229.564 -33.746)" fill="#009edb"/>
              <path id="Path_11" data-name="Path 11" d="M309.528,77.571,310,83.525c-.039.039-.039.2-.2.158a12.4,12.4,0,0,1-.355-2.05c-.789-4.771-5.008-8.123-8.6-11.514A7.119,7.119,0,0,1,299,67.358a21.123,21.123,0,0,0,2.05,7.019c2.76,5.56,8.044,10.055,9.03,16.4.473-6.072,4.18-10.567,4.18-16.995,0-5.2-2.05-9.5-5.087-13.367a.589.589,0,0,0-.276-.118C312.13,65.387,309.055,71.814,309.528,77.571Z" transform="translate(-237.922 -46.223)" fill="#009edb"/>
              <path id="Path_12" data-name="Path 12" d="M315.888,118.862c-.591,2.248-.789,4.653-1.7,6.743-.079.039-.158-.039-.2-.118,2.287-6.348-1.025-12.223-4.3-17.231a14.192,14.192,0,0,1-1.656-4.416c-.355,2.878.276,6.191.789,9.187a114.653,114.653,0,0,0,3.036,11.08,17,17,0,0,1,.158,7.334l.315-.276c2.405-4.456,7.176-7.926,8.6-12.775,1.143-3.864,1.972-8.359,1.143-12.578h0A22.407,22.407,0,0,0,320.7,101C322.039,107.9,317.465,112.869,315.888,118.862Z" transform="translate(-243.336 -70.875)" fill="#009edb"/>
              <path id="Path_13" data-name="Path 13" d="M184,251.626c-5.284-2.208-10.686-5.126-16.679-5.126-8.872,0-17.31,6.033-23.225,11.671a17.4,17.4,0,0,0,2.524,2.287c5.678-5.875,12.342-12.381,18.69-12.381,3.943,0,6.782,3,10.055,5.126,4.574,2.918,10.843,4.574,16.245,2.445a17.986,17.986,0,0,0,7.807-5.363A17.173,17.173,0,0,1,184,251.626Z" transform="translate(-144.1 -159.004)" fill="#009edb"/>
              <path id="Path_14" data-name="Path 14" d="M344.3,147.4Z" transform="translate(-265.36 -98.979)" fill="#009edb"/>
              <path id="Path_15" data-name="Path 15" d="M302.292,162.914a15.492,15.492,0,0,1-2.76,3.628,15.427,15.427,0,0,1,1.183-2.248,16.714,16.714,0,0,0,1.459-8.635c-.355-3.746-1.932-7.216-1.3-11.159-3.233,6.9-2.169,15.575-4.022,23.027-.394,1.656-1.419,3.115-2.05,4.653,3.154-2.405,7.255-4.535,10.725-7.255a22.893,22.893,0,0,0,7.768-9.739,22.226,22.226,0,0,0,1.1-9.582C313.805,152.978,306,156.881,302.292,162.914Z" transform="translate(-235.378 -97.223)" fill="#009edb"/>
              <path id="Path_16" data-name="Path 16" d="M272.29,195.839a17.761,17.761,0,0,1-3.628,2.445l-.039-.079a26.367,26.367,0,0,0,4.022-4.377c3.509-5.087,2.326-12.066,5.008-17.428a38.475,38.475,0,0,0-6.191,9.345c-2.287,5.4-3.036,11.593-8.162,15.693,5.52-1.814,11.908-1.459,16.837-4.692,5.2-3.43,10.055-8.832,11.08-14.9C287.668,190.082,278.441,190.713,272.29,195.839Z" transform="translate(-216.299 -116.544)" fill="#009edb"/>
              <path id="Path_17" data-name="Path 17" d="M334.4,190Z" transform="translate(-259.364 -124.782)" fill="#009edb"/>
              <path id="Path_18" data-name="Path 18" d="M234.2,223.719a9.247,9.247,0,0,1-3.273.434,16.746,16.746,0,0,1,3.273-1.065c6.112-2.287,7.019-8.832,10.37-13.288-4.258,2.839-7.768,6.7-11.75,10.331-2.8,2.524-6.23,3.628-9.818,4.377.867.315,1.972.237,2.918.473,6.427,1.617,13.564,4.1,20.386,1.853a20.4,20.4,0,0,0,11.277-9.266C251.627,224.192,242.005,222.063,234.2,223.719Z" transform="translate(-191.889 -136.775)" fill="#009edb"/>
            </g>
          </g>
          <path id="Path_19" data-name="Path 19" d="M118.723,13.5a44.123,44.123,0,1,0,44.123,44.123A44.174,44.174,0,0,0,118.723,13.5Zm0,52.561a8.438,8.438,0,1,1,8.438-8.438A8.448,8.448,0,0,1,118.723,66.061Zm6.348-15.5a9.385,9.385,0,0,0-5.757-2.405V40.944A16.5,16.5,0,0,1,130.2,45.478Zm-6.861-2.405a9.385,9.385,0,0,0-5.757,2.405l-5.126-5.126A16.9,16.9,0,0,1,118.21,40.9v7.255Zm-6.545,3.154a9.385,9.385,0,0,0-2.405,5.757h-7.216a16.5,16.5,0,0,1,4.535-10.883Zm-2.405,6.861a9.385,9.385,0,0,0,2.405,5.757l-5.126,5.126A16.9,16.9,0,0,1,102,58.175Zm3.154,6.545a9.385,9.385,0,0,0,5.757,2.405v7.216a16.5,16.5,0,0,1-10.883-4.535Zm6.861,2.366a9.385,9.385,0,0,0,5.757-2.405l5.126,5.126a16.9,16.9,0,0,1-10.883,4.535Zm6.545-3.154a9.385,9.385,0,0,0,2.405-5.757h7.216a16.5,16.5,0,0,1-4.535,10.883Zm2.405-6.821a9.386,9.386,0,0,0-2.405-5.757l5.126-5.126a16.9,16.9,0,0,1,4.535,10.883Zm2.721-12.421a17.9,17.9,0,0,0-11.671-4.85v-8a25.744,25.744,0,0,1,17.31,7.176ZM118.21,39.84a17.789,17.789,0,0,0-11.671,4.85l-5.678-5.678a25.637,25.637,0,0,1,17.31-7.176l.039,8Zm-12.421,5.6a17.9,17.9,0,0,0-4.85,11.671h-8a25.744,25.744,0,0,1,7.176-17.31Zm-4.811,12.736a17.789,17.789,0,0,0,4.85,11.671l-5.678,5.678a25.637,25.637,0,0,1-7.176-17.31h8Zm5.6,12.421a17.9,17.9,0,0,0,11.671,4.85v8a25.744,25.744,0,0,1-17.31-7.176Zm12.7,4.811a17.789,17.789,0,0,0,11.671-4.85l5.678,5.678a25.637,25.637,0,0,1-17.31,7.176v-8Zm12.381-5.6a17.9,17.9,0,0,0,4.85-11.671h8.044a25.744,25.744,0,0,1-7.176,17.31Zm4.85-12.7a17.789,17.789,0,0,0-4.85-11.671l5.678-5.678a25.637,25.637,0,0,1,7.176,17.31h-8Zm.828-18.848a26.819,26.819,0,0,0-18.059-7.492v-7.1a33.794,33.794,0,0,1,23.067,9.582ZM118.21,30.771a26.56,26.56,0,0,0-18.059,7.492l-5.008-5.008a33.973,33.973,0,0,1,23.067-9.582ZM99.362,39.012a26.819,26.819,0,0,0-7.492,18.059h-7.1A33.794,33.794,0,0,1,94.355,34ZM91.871,58.175a26.56,26.56,0,0,0,7.492,18.059l-5.008,5.008a33.973,33.973,0,0,1-9.582-23.067Zm8.241,18.808a26.819,26.819,0,0,0,18.059,7.492v7.1A33.794,33.794,0,0,1,95.1,81.991Zm19.163,7.531a26.56,26.56,0,0,0,18.059-7.492l5.008,5.008a33.973,33.973,0,0,1-23.067,9.582Zm18.848-8.28a26.819,26.819,0,0,0,7.492-18.059h7.1a33.794,33.794,0,0,1-9.582,23.067Zm7.492-19.124a26.559,26.559,0,0,0-7.492-18.059l5.008-5.008a33.973,33.973,0,0,1,9.582,23.067Zm-2.484-24.6a34.714,34.714,0,0,0-23.855-9.9v-8a42.726,42.726,0,0,1,29.533,12.263Zm-24.92-9.9a34.714,34.714,0,0,0-23.855,9.9l-5.639-5.678A43.077,43.077,0,0,1,118.25,14.565l-.039,8.044Zm-24.6,10.646a34.714,34.714,0,0,0-9.9,23.855H75.665A42.726,42.726,0,0,1,87.928,27.577Zm-9.858,24.92a34.714,34.714,0,0,0,9.9,23.855l-5.678,5.639A42.7,42.7,0,0,1,75.743,58.175Zm10.607,24.6a34.714,34.714,0,0,0,23.855,9.9v8A42.726,42.726,0,0,1,88.677,88.418Zm24.92,9.9a34.714,34.714,0,0,0,23.855-9.9l5.678,5.678a43.077,43.077,0,0,1-29.533,12.263V92.677Zm24.6-10.686a34.714,34.714,0,0,0,9.9-23.855h8a42.726,42.726,0,0,1-12.263,29.533Zm9.9-24.881a34.714,34.714,0,0,0-9.9-23.855l5.678-5.678A43.077,43.077,0,0,1,161.82,57.11Z" transform="translate(-56.42 -13.5)" fill="#009edb"/>
          <g id="Group_6" data-name="Group 6" transform="translate(22.116 3.036)">
            <path id="polygon59_9_" d="M192.576,99.5l-.276.039v.315l.276-.039Z" transform="translate(-149.826 -68.626)" fill="#009edb"/>
            <rect id="rect61_9_" width="0.355" height="0.276" transform="translate(42.08 30.48)" fill="#009edb"/>
            <path id="polygon63_9_" d="M189.6,97.837l.355.079v-.276l-.315-.039Z" transform="translate(-148.19 -67.475)" fill="#009edb"/>
            <path id="rect65_9_" d="M188.515,97.515l-.315-.039.039-.276.315.039Z" transform="translate(-147.342 -67.233)" fill="#009edb"/>
            <rect id="rect67_9_" width="0.355" height="0.276" transform="translate(38.61 29.928)" fill="#009edb"/>
            <path id="polygon69_9_" d="M180.5,98.076l.315.039.039-.276-.315-.039Z" transform="translate(-142.679 -67.596)" fill="#009edb"/>
            <path id="rect71_9_" d="M180.055,98.955l-.355-.079.079-.276.355.118Z" transform="translate(-142.194 -68.081)" fill="#009edb"/>
            <path id="rect73_9_" d="M178.939,99.815l-.039-.237.237-.079.079.276Z" transform="translate(-141.709 -68.626)" fill="#009edb"/>
            <path id="polygon75_9_" d="M89.955,169.834v.591h.276l-.079-.67-.315-.118V169.4H89.6v.434Z" transform="translate(-87.621 -110.964)" fill="#009edb"/>
            <path id="polygon77_9_" d="M95.2,174.7l.67.315.237.631.315.237.276.67-.158.315-.513-.473-.315-.513-.2-.394Z" transform="translate(-91.013 -114.174)" fill="#009edb"/>
            <path id="polygon79_9_" d="M122,208.991l.237.591-.315.158-.158-.237-.434-.158-.079-.394-.355-.552.552.118Z" transform="translate(-106.579 -134.586)" fill="#009edb"/>
            <path id="path81_9_" d="M123.427,103.145h-.473l-.079-.986.276-.2v-.513h-1.538l-.039-.513.2-.118-.355-.118-.276.355-.079.394-.473.079v.2h-.315v.591l-1.262,1.025-2.484-.079c-.2.394-.631-.039-.631-.039-.079-.276-.71,0-.71,0,0,.513-.867-.2-.867-.2l-1.538-1.1c-.867-.789-2.208.2-2.287.473.039.631-1.025.118-1.025.118s-.867-.276-1.025.079c-.118.355-.71.276-.71.276l-.079.2-.473.079-.079.276-.552.079,1.341-.039c.355-.039-.118.789-.355.71l-.631.039-.2.2h-.591l-.276.355-.867-.039s-.473.394-.473.552c.039.118-.079.552-.2.552s-.394.394-.315.552c.079.118-.276.591-.276.591l-.079.473-.276.079v1.222l-.552.355v.552l-.789.867.079.71-.67.71.079.71-.394.118-.079.315-.2.946.473.039c.2-.079.2.591,0,.67s-.67.276-.394.473-.71.118-.71-.118-.552-.513-.67-.394c-.118.079-.355-.394-.355-.394-.473-.513-2.011.039-2.011.039l-.2.71c-.473.079-.789.907-.789.907-.394.118-.71.631-.591.789.118.118-.2.2-.2.2v.986l-.2.315.039,1.065c.276,0,.2.513.2.513-.473.039-.355.631-.355.631l-.946.315-.2.276-1.143-.039-.315.315-.315-.315H89.951l-.079-.2-.473-.079-.039-.513-.67.039-.118.276-.71.039c.039.473-.71,1.1-.789.946-.079-.2-.591-.67-.355-.789a7.393,7.393,0,0,1,.789-.2v-.315l-1.656-.039-.2.276-.67.039v.71l-.315.079c-.2.118.039.631.039.631.315.315-.039.789-.039.789-.276.276.2.789.2.789.355.079-.2.355-.2.355a.742.742,0,0,0,.355.591.44.44,0,0,0,.2.67l.039.789.315.2v.513l.2.315h.71l-.039-1.1c-.631-.71.552-.907.591-.631s.552.394.552.394c.079.67.867,1.065,1.065.394s.394-.276.552.039a5.865,5.865,0,0,0,.986,1.1h.67l.079.631c.749-.039.986.039,1.3,1.065a1.983,1.983,0,0,0,1.143,1.3l.631-.039c0-.552.631.079.631.355s1.222,1.3,1.222,1.3l1.222.276,1.1.907.867-.079h.355c.2-.789,1.3.039,1.38.315s.789.71.867.513.591-.079.67.591.394.552.394.552l2.524-.039.867-.789,2.287-.039c1.143-.039.473-1.617.2-1.617-.394-.315.118-1.617.118-1.617l-3.233-3.036c-.749,0-.079-1.1-.079-1.1.591-.355-.118-.946-.118-.946a2.111,2.111,0,0,0-.315-1.183,1.649,1.649,0,0,1-.591-1.577v-.71c-.67-.631.276-.71.276-.71a.739.739,0,0,0-.2-.946l-.039-.591-.71-.079-.079-2.129-1.617-2.287c-.315-.079-.079-.631-.079-.631.394-.2-.079-.789-.079-.789l-.039-.986.946-.079.2-.355h.473l-.039-1.183a.492.492,0,0,1,.749-.276l.631.039.355-.67.079-.552-.473-.039c-.552-.315-.276-1.5-.276-1.5.867-1.262,1.814-.552,1.814-.552l.631-.039c.946.631.079,1.774.079,1.774-.2.276-.079,1.1-.079,1.1l.2,1.459-.591.513c-.473.276-.473.907.039,1.025.355.039.2.907-.315.315-.789,0,.473.71.079.552.789.394.631-.355.631-.355l1.065-.867c.394-.315,1.1.67,1.1.789a8.9,8.9,0,0,0,1.774.039,2.157,2.157,0,0,1,.67,1.1c.473-.631,1.538-.039.749.315.71.473.71.867.71.867.591-.2.591.276.591.394a4.809,4.809,0,0,0,.2-.67c-.67-.513.867-.67.473.2l-.276.394.473.355.039,1.025c.986-.079.71-1.3.71-1.3l.473-.079c0-.394.315-.2.315-.2-.315-1.538.71-1.774.71-1.774.591-.118.631-1.38.631-1.38-.394-.2-.2-.789.276-.276.473.552-.276-1.1-.276-1.1L117,111.7l-.473-.039-.039-.513H115.7l-.118.631-.276.118-.079-.2-.118.513h-.789l-.039-.552.473-.118.2-.276.118-.71h.591l.749-.2c.039-.789.473-.591.473-.591l.276.2.394.315.039.276-.276.118-.039.355.118.513h.355a.758.758,0,0,1,1.341-.276l.276-.631c-.631-.315,0-.789.158-.591.2.2.591-.591.591-.591s.315.394,0-.118a.523.523,0,0,1,.2-.789c-.079-.552.591-.473.591-.473l.039-.71-.631-.039c-.118.631-.67.079-.394-.039a2.154,2.154,0,0,0,.552-.394v-.473l.276-.079.039-.473h.67l.591-.276.118-.2.631-.039.867-.789-.079-.355c-.552,0,0-.394,0-.394l-.158-.67Z" transform="translate(-84.581 -69.353)" fill="#009edb"/>
            <path id="path83_9_" d="M135.544,129.479l-.789-.079.039.315h.2a4.417,4.417,0,0,1,.039,2.169s-.552.039-.631-.2c-.079-.276-.315.591-.118.71s.789,0,.867.513.394-.315.394-.315v-3.115Z" transform="translate(-114.638 -86.736)" fill="#009edb"/>
            <path id="polygon85_9_" d="M135.6,138.6v1.065l.71.946.237-.631.118-.394-.315-.158.039-.67.276-.039.039-.315-.67.434Z" transform="translate(-115.483 -92.187)" fill="#009edb"/>
            <path id="polygon87_9_" d="M137.955,145.834V145.4l-.315.039-.039.355Z" transform="translate(-116.694 -96.427)" fill="#009edb"/>
            <path id="polygon89_9_" d="M136.894,151.515V151.2l-.394.039v.355Z" transform="translate(-116.028 -99.94)" fill="#009edb"/>
            <path id="path91_9_" d="M138.6,147.894a.2.2,0,1,0-.2-.2A.186.186,0,0,0,138.6,147.894Z" transform="translate(-117.179 -97.699)" fill="#009edb"/>
            <circle id="circle93_9_" cx="0.197" cy="0.197" r="0.197" transform="translate(21.497 50.747)" fill="#009edb"/>
            <circle id="circle95_9_" cx="0.197" cy="0.197" r="0.197" transform="translate(21.537 45.582)" fill="#009edb"/>
            <path id="polygon97_9_" d="M171.56,120.891h.276l.039.276-.158.158-.118.237-.315.079-.828.789-.039.355-.2.315-.276.67-.946.039-.2.828.158.67.789.355.079-.473.276-.118.039-.473.2-.315.276-.315.079-.355.434-.276.552-.118.2-.237.079-.552.079-.394.158-.315.552-.2v-.867h-.276l-.039-.315-.473-.039-.118.237H171.6Z" transform="translate(-135.592 -81.224)" fill="#009edb"/>
            <path id="path99_9_" d="M175.043,125.838v-.631l-.079-.591-.67-.315-.473.473-.079.631v.394l-.473.079-.079,1.222-.355.118.039.473-.473.118-.473.118-.079.591-.355.2-.2.552-.2,1.3s.394.789.631.394a.821.821,0,0,1,.591-.394l.118-.315,1.222.039a.343.343,0,0,1,.67-.079c0,.2.473.039.473.039l.315-.513h.473l.039-.552.2-.118v-.789a.852.852,0,0,0,.631-.907l.2-.2-.079-.315c-.355-.118-.2-.473.039-.355.2.079-.315-.394-.315-.394-.276.2-.473-.276-.473-.276Z" transform="translate(-136.985 -83.647)" fill="#009edb"/>
            <path id="path101_9_" d="M180.6,141.676c-.039.552-.71.71-.71.71l-.473-.118-.276-.2-.039-.631.394-.039.079.276Z" transform="translate(-141.831 -94.004)" fill="#009edb"/>
            <path id="path103_9_" d="M188.273,132.822c.118.394.079-.631.276-.591s.039-.631.039-.631l-.789.591C188.194,132.231,188.234,132.665,188.273,132.822Z" transform="translate(-147.1 -88.069)" fill="#009edb"/>
            <path id="path105_9_" d="M194.334,128.541c.2.394.118.986.789,1.459.2.158-.118.473-.355.315a7.929,7.929,0,0,1-.867-1.1v-.591c.158-.394.355-.237.434-.079Z" transform="translate(-150.795 -86.114)" fill="#009edb"/>
            <path id="polygon107_9_" d="M195,163.237l.118.118.158.237.276-.513-.237-.079Z" transform="translate(-151.461 -107.087)" fill="#009edb"/>
            <line id="line109_9_" y2="0.552" transform="translate(42.435 55.4)" fill="none"/>
            <path id="polygon111_9_" d="M208.258,159.373l.355-.237-.158-.237-.355.237Z" transform="translate(-159.396 -104.604)" fill="#009edb"/>
            <path id="path113_9_" d="M241.071,178.929l.394.2.039.789c.552.552,2.287.079,2.287-.039s-.079-1.656-.079-1.656l-.2-.2-.039-1.1c.2-.591-.867-1.459-.946-1.262s-.67.039-.67.2c0,.2-.355,1.065-.2,1.38.2.315-.118.315-.2.631-.039.237-.513.749-.394,1.065Z" transform="translate(-179.355 -114.736)" fill="#009edb"/>
            <path id="path115_9_" d="M237.608,179.195c-.079.355-.394.552-.591.394-.2-.118.2.2.315.394a.263.263,0,0,0,.473,0c.079-.2.039-.591.118-.789.079-.158-.276-.2-.315,0Z" transform="translate(-176.877 -116.816)" fill="#009edb"/>
            <rect id="rect117_9_" width="0.315" height="0.867" transform="translate(58.68 54.099)" fill="#009edb"/>
            <path id="path119_9_" d="M245.063,135.731c-.2-.276.867-.71,1.065-.2.2.552,0,.473-.2.394-.158-.039-.631.118-.867-.2Z" transform="translate(-181.769 -90.307)" fill="#009edb"/>
            <path id="polygon123_9_" d="M247.439,121l-.039.276.473.079.039-.276Z" transform="translate(-183.199 -81.648)" fill="#009edb"/>
            <path id="polygon125_9_" d="M243.149,122.394l.039.079.276-.118-.118-.2-.079-.158-.118.079-.315.2-.315-.2-.118.237.355.2.079.079.039-.079Z" transform="translate(-180.171 -82.254)" fill="#009edb"/>
            <path id="path127_9_" d="M243.754,93.951h-.67s.2.079-.394-.513a.61.61,0,0,0-1.025.118l-.71.079v.71l-.355.118.039.473.473-.039s0,.552.118.315c.118-.2,1.262.039,1.143.591-.039.2,1.1.789.986,1.538a.546.546,0,0,1,.473.67l.749.079.2-.473.2.039v-.276l-.473-.118-.079-1.459-.315-.2.079-.355-.355-.118.2-.591-.276-.591Z" transform="translate(-179.081 -64.812)" fill="#009edb"/>
            <path id="path129_9_" d="M250.837,106.739l-.355-.039-.789.118-.473.867a1.3,1.3,0,0,1,.394.473c.2.315.276,2.169-.276,2.484s.039.118.039.118l-.079.986c.118.473.355.2.473,0a5.165,5.165,0,0,1,.473-.513,1.671,1.671,0,0,0,.473-.946c.039-.315.276-.789.118-.946-.118-.118.118-.789.118-.789a.78.78,0,0,0,0-.71.87.87,0,0,1,.2-.946l-.315-.158Z" transform="translate(-184.231 -72.987)" fill="#009edb"/>
            <path id="rect133_9_" d="M254.9,110.955l.039-.355.237.039v.355Z" transform="translate(-187.742 -75.349)" fill="#009edb"/>
            <path id="rect135_9_" d="M254.437,114.034l-.237-.158.118-.276.276.158Z" transform="translate(-187.318 -77.166)" fill="#009edb"/>
            <path id="path137_9_" d="M251.928,98.672l-.2-.394a1.917,1.917,0,0,1,.079-.552c.079-.2-.2-.355-.315-.394s-.079-.394-.118-.591-.355-.315-.355-.315-.079-.67-.079-.789-.394-.315-.276-.473c.118-.118.2-.315.355-.394.118-.079-.118-.71.079-.591s.2.355.315.552c.079.2-.039.789.2.946.2.118-.039.591.315.591s.118.867.118.867-.079.631.118.67.079,1.1.079,1.1l-.315-.237Z" transform="translate(-185.164 -65.393)" fill="#009edb"/>
            <path id="path139_9_" d="M246.5,87.039c.118.2.394.315.394.513s-.079.315.2.355.473-.039.552.2a1.781,1.781,0,0,1,.039.789c-.039.2.039.473.276.473s.276.039.276.2.276-.513.276-.513a2.836,2.836,0,0,1-.394-.591s-.2-.631-.2-.71-.315-.2-.473-.2a2.851,2.851,0,0,1-.355-.552l-.591.039Z" transform="translate(-182.654 -61.055)" fill="#009edb"/>
            <path id="path141_9_" d="M245.541,83.463a.921.921,0,0,0-.473-.394c-.2-.079-.315-.2-.473-.2a.291.291,0,0,1-.276-.394c.079-.2-.118-.315-.118-.513s.118-.2.355-.039c.2.118.2.2.355.394.2.2.276.473.473.394.2-.039.315.394.473.276.2-.118.118.315.118.315l-.434.158Z" transform="translate(-181.261 -57.912)" fill="#009edb"/>
            <path id="path143_9_" d="M232.441,93.146c.237.237-1.341.2-1.341,0s.118-.789.552-.67c.394.118.473-.789.473-.789s-.355.039-.039-.118c.315-.2,0-.473-.118-.591a3,3,0,0,1-.276-.355h.631c.276-.2.355-1.025.355-1.025a.628.628,0,0,0,.789-.2,1.577,1.577,0,0,0,.276.513c.2.2-.473.315-.2.473.2.118.315.552.2.67-.079.118-.591.039-.591-.118,0-.2-.2.2,0,.473.2.2-.2.552-.315.552-.079,0-.67.079-.2.355a1.453,1.453,0,0,0,1.025.118s.394-.039.552.2c.118.2-.039.276-.276.276s-1.3-.079-1.3-.079-.355.2-.2.315Z" transform="translate(-173.327 -62.508)" fill="#009edb"/>
            <path id="path145_9_" d="M226.995,99.839c.2-.039.749-.079.867.039.079.118-.315.315-.315.315l-.552.079c-.158-.158-.2-.355,0-.434Z" transform="translate(-170.759 -68.808)" fill="#009edb"/>
            <path id="path147_9_" d="M241.8,89.128c.355-.2,1.1-.2,1.065-.473s.473-.355.473-.355l.118.552.394.276.039.513s.118-.079-.355.039-.2.355-.2.355l-1.065.039-.118-.473-.355-.473Z" transform="translate(-179.808 -61.842)" fill="#009edb"/>
            <path id="path149_9_" d="M236.547,81.8c.276,0-.079,1.025.631.946s.039.315.591.355.394-.394.591-.71.079-.513-.2-.591c-.315-.079-.315-.079-.394-.473a.72.72,0,0,0-.473-.473l-.118-.552-.591.355-.591.789c-.039.67.276.355.552.355Z" transform="translate(-176.289 -56.997)" fill="#009edb"/>
            <path id="rect153_9_" d="M240.4,93.437l.118-.237.237.079-.118.315Z" transform="translate(-178.96 -64.81)" fill="#009edb"/>
            <rect id="rect155_9_" width="0.276" height="0.315" transform="translate(60.967 28.232)" fill="#009edb"/>
            <path id="rect157_9_" d="M239.376,77.5l.039.394-.276.039-.039-.394Z" transform="translate(-178.172 -55.301)" fill="#009edb"/>
            <rect id="rect159_9_" width="0.276" height="0.197" transform="translate(60.455 26.379)" fill="#009edb"/>
            <path id="rect161_9_" d="M236,87.676v-.237l.434-.039.039.276Z" transform="translate(-176.295 -61.297)" fill="#009edb"/>
            <path id="rect163_9_" d="M226.337,98.534l-.237-.118.158-.315.237.118Z" transform="translate(-170.298 -67.778)" fill="#009edb"/>
            <path id="rect165_9_" d="M223.139,96.615l-.039-.276.473-.039.039.276Z" transform="translate(-168.481 -66.688)" fill="#009edb"/>
            <path id="polygon169_9_" d="M202.186,96.9l-.986.039v.237h.986Z" transform="translate(-155.216 -67.051)" fill="#009edb"/>
            <path id="rect171_9_" d="M199.379,97.134l-.079-.394.276-.039.079.394Z" transform="translate(-154.066 -66.93)" fill="#009edb"/>
            <path id="rect173_9_" d="M198.979,98.115l-.079-.276.118-.039.079.276Z" transform="translate(-153.823 -67.596)" fill="#009edb"/>
            <path id="path175_9_" d="M204.639,96.41l-.039.315.473.039s.2.2.2.315.315.276.473.276a2.036,2.036,0,0,0,.67-.355s.2-.631.039-.591c-.2.039-.552.315-.591.039s-.591-.118-.591-.118l-.631.079Z" transform="translate(-157.276 -66.679)" fill="#009edb"/>
            <path id="path177_9_" d="M210.284,94.222c0,.118-.079.315.2.355s.749-.2.789.079.039.473.394.591a2.693,2.693,0,0,0,.867.2c.276,0,.867-.079.867-.079a4.269,4.269,0,0,1,.749.2c.473.513.789.631.946.394.118-.2-.039-.71-.079-.907s-.67-1.025-.867-.867c-.2.2-.276,0-.67.118s-1.262.039-1.3-.118c-.039-.2-.67-.276-.67-.473s-.473-.394-.394-.118c.039.276-.315.394-.394.315-.158-.079-.434.315-.434.315Z" transform="translate(-160.712 -64.964)" fill="#009edb"/>
            <path id="path179_9_" d="M227.32,68.525l.315-.986c-.473-.079-.355-.591-.355-.591-.039-.394-.67-.867-.867-.71s-.118-.946-.118-.946.394-.276.591-.118c.2.118-1.538-2.248-1.853-2.05s-1.143-.2-1.1-.631c.039-.394-1.617-1.774-1.617-1.774s-.552-.355-.631-.079-.276.473,0,.591.2-.2.552.079c.315.315.867.71.67.986a.973.973,0,0,1-.473.355l.315.355h.473l.079.789s.552.276.67.591.118.513,0,.67c-.118.2-.394.513-.355.789a.7.7,0,0,0,.394.473l.355.039.276.118v.591c.355-.079.946.394.867.71s.079.118.552.473c.473.315.315.355.631.591.237.2.513.079.631-.315Z" transform="translate(-167.536 -45.024)" fill="#009edb"/>
            <path id="path181_9_" d="M217.273,63.867c-.039-.2-.118-.789.118-.789.276.039.079,0,.394.118a.242.242,0,0,0,.355-.2h.473l.631.513-.079.394-.473.039c-.2-.355-.67-.2-.591.079.079.315-.2.907-.394.946s-.749.039-.71-.2c.079-.276.276-.907.276-.907Z" transform="translate(-164.783 -46.518)" fill="#009edb"/>
            <path id="path183_9_" d="M211.833,57.537v-.355s-.039-.355-.276-.355-.631-.276-.552-.473-.749-.355-.749-.355-.749-.71-.473-.631.118-.315.118-.315a3.2,3.2,0,0,1-.67.039c-.118-.039-.079-.473-.079-.473s-.552-.118-.552,0,.2.118.276.394.039.71.473.789c.394.079.473.2.552.355.039.2.552.2.552.2l.355.2,1.025.986Z" transform="translate(-159.699 -41.41)" fill="#009edb"/>
            <path id="polygon185_9_" d="M203.813,49.734l-.158-.355L203.3,49.3v.394Z" transform="translate(-156.488 -38.22)" fill="#009edb"/>
            <path id="path187_9_" d="M204.019,44.924c-.473-.355.631.276.631.276a.6.6,0,0,1,.591.394c0,.118.473.079.473.079l.039-.315-.355-.473-.315-.2s-.473-.039-.473-.2c0-.079-.394.591-.591.434Z" transform="translate(-156.852 -35.303)" fill="#009edb"/>
            <path id="path189_9_" d="M224.189,45.21c-.118.394-.2.946-.394.946s-.118.591-.118.591a5.89,5.89,0,0,1,.749.039c.2.039.2.513.2.513.67-.039.946.867.867,1.1-.079.2.276.2.276.2a4.378,4.378,0,0,1-.079.907c-.079.2.591.315.749.591a1.513,1.513,0,0,1-.2,1.222c-.118.039.355.2.315.394s.118,0,.2.355c.039.355.118,1.1.118,1.1l.631.039c.079-.591,1.222-.631,1.42-.552a2.8,2.8,0,0,1,1.341,1.7c0,.276-.473.315-.473.315l.079,1.3a2.138,2.138,0,0,1,1.3,1.5c-.079.2.552.118.552.118.079-.789.867-.552.867-.276.039.276.2.867.2.867l.2.394.315.315.473-.039.118.276.591.079s.473.552.552.67.71.079.867.118c.2.039.473.2.473.394a2.475,2.475,0,0,0,.315.591s.552.118.591.315a2.839,2.839,0,0,0,.276.591l.473.355.039.394.473.039.118.552.789-.039.473-.315a2.149,2.149,0,0,0,1.025-.907c.039-.2.118-.867.591-.71.473.118.118-.986.118-.986s-.631-.473-.591-.67-.631-.67-.591-.867-.591-.552-.552-.71c.039-.2-.315-.67-.315-.67l-.67-.631-.079-.394-.552-.039-1.065-1.3.039-.355-.315-.039V54.16l-.315-.2-.473-.039-.986-1.065-.079-.513h-.473l.079-.946a1.652,1.652,0,0,0,.118-1.183s-.631.315-.946.2.118-.473.118-.473v-.355l-.276-.276s-.749.079-.789-.039-.2-.71-.2-.71l-.039-.789-.315-.118-.039-.276-.473.039v-.552l-.276-.079-.315-.118-.039-.552-.986-.039-.315-.473-.355-.552-1.1-.079-.276-.276-.473-.079-.315-.118-.118.2-.867.039-.039.276c-.394.237-2.169.079-2.208.2Z" transform="translate(-168.821 -35.313)" fill="#009edb"/>
            <path id="path191_9_" d="M236.793,42.533c-.079-.355.867-.67,1.1-.394.2.276.867.315.946,1.656.039.473-.789-.513-.789-.513l-.67-.2a.715.715,0,0,1-.591-.552Z" transform="translate(-176.772 -33.819)" fill="#009edb"/>
            <path id="rect193_9_" d="M203.376,43.913l-.276-.079.2-.434.237.118Z" transform="translate(-156.367 -34.646)" fill="#009edb"/>
            <path id="path195_9_" d="M192.025,30.229l-.591-.591v-.513l-.2-.2-.2-.631-.591-.2-.591.2-.631.394-.67.079-.355.394,1.42.118.276.473,1.025.079.67.67c.67.315.789.039.434-.276Z" transform="translate(-147.342 -25.379)" fill="#009edb"/>
            <path id="path197_9_" d="M197.166,26.632c-.118-.394-.67.513-.079.67a1.928,1.928,0,0,0,1.143,0l.118-.276,2.208.039a1.235,1.235,0,0,0,.276-.473s.552-.2.749-.079c.2.079.039-.631-.2-.552a2.139,2.139,0,0,1-.67.039h-.789c-.039-.315-.749-.2-.789,0-.039.158-.276.2-.276.2l-1.025.079c-.118.355-.591.513-.67.355Z" transform="translate(-152.562 -23.99)" fill="#009edb"/>
            <path id="path199_9_" d="M185.887,44.478c.71.2.946.039.986-.118s.079-.2.355-.276c.276-.039-.039-.591-.315-.552a.486.486,0,0,1-.591-.315c-.039-.2-.473-.789-.552-.355s-.315.473-.276.789c.118.276.237.749.394.828Z" transform="translate(-145.7 -34.226)" fill="#009edb"/>
            <path id="path201_9_" d="M173.6,48.285c-.039-.158.867-.2,1.025-.039.118.118.039.355.473.355.394,0,.2.276.2.394-.039.118-.473.079-.552-.039-.039-.118-.71-.2-.71-.2s-.394-.276-.434-.473Z" transform="translate(-138.497 -37.521)" fill="#009edb"/>
            <path id="polygon205_9_" d="M210.276,24.452l.118.118.079-.079.473-.355-.2-.237-.355.315-.2-.237-.2.2Z" transform="translate(-160.547 -22.835)" fill="#009edb"/>
            <path id="polygon207_9_" d="M205.034,21.791l.079-.039.473-.315-.158-.237-.394.276-.276-.2-.158.237.355.237Z" transform="translate(-157.276 -21.2)" fill="#009edb"/>
            <path id="polygon209_9_" d="M201.055,45.576l.315.473.2-.158-.276-.473-.039-.079h-.079l-.434-.039-.039.276Z" transform="translate(-154.914 -35.797)" fill="#009edb"/>
            <path id="path211_9_" d="M164.8,77.3l.039.513h.67c.276,0-.2-.315-.2-.315s-.552.039-.513-.2Z" transform="translate(-133.166 -55.179)" fill="#009edb"/>
            <path id="rect213_9_" d="M166.9,77.037l.158-.237.276.237-.158.2Z" transform="translate(-134.441 -54.877)" fill="#009edb"/>
            <path id="rect215_9_" d="M146.4,55.658l.2-.158.237.237-.158.2Z" transform="translate(-122.024 -41.975)" fill="#009edb"/>
            <path id="polygon219_9_" d="M177.9,203.073l.2.2.2-.2.118-.158-.158-.079-.434-.237-.118.237.276.158Z" transform="translate(-140.983 -131.073)" fill="#009edb"/>
            <path id="polygon221_9_" d="M169.118,194.873l.315.2.158-.2-.2-.158.158-.079-.158-.237-.276.237-.118.118Z" transform="translate(-135.713 -126.106)" fill="#009edb"/>
            <path id="path223_9_" d="M253.634,172.815a.436.436,0,0,0-.355-.315l-.079.276h0c.039,0,.039.039.079.039l.039.237c-.039.039-.039.039-.039.079l.2.2a1.059,1.059,0,0,0,.158-.513Z" transform="translate(-186.712 -112.842)" fill="#009edb"/>
            <path id="polygon225_9_" d="M254.634,170.434l-.434-.039.039-.394.434.039Z" transform="translate(-187.318 -111.327)" fill="#009edb"/>
            <path id="path227_9_" d="M281.146,161.956c.2-.118.434-.355.394.158s-.237.355-.394.513-.276-.513,0-.67Z" transform="translate(-203.539 -106.359)" fill="#009edb"/>
            <path id="path231_9_" d="M286.715,156.815v-.039a.731.731,0,0,0-.079-.276l-.237.118a.3.3,0,0,1,.039.2.3.3,0,0,0,.079.2.3.3,0,0,0,.2.039l-.039-.276c-.039,0,0,0,.039.039Z" transform="translate(-206.822 -103.15)" fill="#009edb"/>
            <path id="path233_9_" d="M285.7,157.718l.158.552.237-.118a2.53,2.53,0,0,1-.158-.552l-.237.118Z" transform="translate(-206.398 -103.817)" fill="#009edb"/>
            <path id="path235_9_" d="M282.761,160.539l-.276-.039c-.039.2.039.473.237.513l.039-.276h0v-.2Z" transform="translate(-204.444 -105.573)" fill="#009edb"/>
            <path id="path237_9_" d="M278.928,146.558c-.039-.079-.039-.158-.118-.2a.914.914,0,0,0-.71.158l.158.2c.158-.118.394-.158.434-.118v-.039Z" transform="translate(-201.794 -96.994)" fill="#009edb"/>
            <path id="path241_9_" d="M200.363,103.794a1.377,1.377,0,0,1-.591.276l-.118.513-.2.2a1.308,1.308,0,0,1,0,.473c-.039.315-.473.513-.473.513l-.2.2s-1.065.039-1.222,0a.356.356,0,0,1,.118-.67c.276.039-.039-.789-.039-.789l.355-.039s.039-.789.2-.789-.039-.276-.2-.394c-.2-.118-.394-.591-.591-.552a6.185,6.185,0,0,1-.867,0l-.118.276-.473.079a1.065,1.065,0,0,1-.039.473c-.276.315-1.3.986-.867-.118l.118-.276v-.394l-.789-.039s-.394-.118-.394-.315a2.305,2.305,0,0,0-.039-.394l-.946-1.025-1.1-.118-.079-.2-.67-.079c-.789-.394-1.538-.039-1.38.631.118.67.355.946-.079.946a.515.515,0,0,1-.552-.355s-.355-.118-.355.039c0,.2-.118.552,0,.71.118.2-.2.473-.315.315s-.473-.552-.394-.67-.631-.986.079-1.1-.039-.552.2-.631l.355-.2h.355l.2-.2-.591-.079-.355-.039-.67-.039a1.886,1.886,0,0,0-.789.986c-.355.67-1.222-.276-.867-.631.315-.355-.986-.039-1.222.118-.2.2-.867.079-.867.079-.118.394-.749-.039-.591-.315a.908.908,0,0,0,.2-.473l-.2-.039-.276.513c-.631,0-.789.355-.67.591.118.2-.2-.039-.276.276s.039.315.315.473c.276.118-.118.118.039.355s.71,0,.394.315a1.221,1.221,0,0,1-.946.2c-.039.394-.867.315-.986.2-.079-.118-.749-.946-.749-.946l-.867-.039c-.079-.631.394-.315.591-.789a6.2,6.2,0,0,0,.276-1.3s-.71-.039-.749.2c-.039.2-.473.355-.473.355s-.355.118-.2.315c.118.2-.276.276-.276.276s.079.276-.039.394c-.355.355-1.262.039-1.38-.079l-.552-.2-.552-.355-.631.276-.2.2h-.67l-.039.552,1.222.118.079,1.1-.473-.158h-.315l-.118-.276-.276-.039v.986l.276.2.2.2.473.039.079.552,1.1.039.118.2.67.039,1.3,1.3-.079.394-.2.118c.079.315-.591.118-.591.118v.276l.315.039.315.2.473-.789c.473-.315.71.118.749.394s-.2.2-.2.2v.631l.276.079a.527.527,0,0,1-.2.867l-.118.473c-.118.394-.631.315-.631.315l-.2.276-.552.118,1.025.118c.118-.355.355-.473.513-.276a1.19,1.19,0,0,1,.118.513l.276.039-.039.513.276.079v1.459l.315.355c.552-.2.552.118.276.315s-.079.986-.079.986l-.2.2v.355l-.276.2v.513a1.279,1.279,0,0,0-1.1,0c-.394-.276-1.262-.2-1.262.039.276.355-.315.473-.315.473l-.315.355c.2.473-.2.513-.2.513v.867l-.552.513.039,1.183c0,.315.67.355.789.2.118-.2.67.355.67.355h.394l.079-.789-.276-.118v-1.3l.473-.513c.552-.2.355,1.183.355,1.3.039.513.276.473.473.355.473-.2.079.513-.276.473s-.118.473-.118.473l.2.079-.394.315-.355.394-.473-.118-.552-.039-.2-.315-.315-.039-.039.631-.2.276-.552.552c.71,0-.079.513-.276.513.394.118-.039.552-1.065.2v.315l-.355.039.315.355.355.039-.118.789c0,.591-1.459.2-1.617.039l-.039.789-.276.039.039.552-.039.789.473-.079v.315l1.222.039,1.735-1.853,1.025-.2c.079-.473.552.079.552.079.473-.039.552.276.552.276l.591.079c.473.118.2.2.2.355a.207.207,0,0,0,.276.2l.079-.591.276.039-.276-.315-.473-.2-.552-.2c-.355-.513.079-.394.473-.355h.591a5.4,5.4,0,0,1,.67,1.1c0,.2.315.276.315.276l.394-.039.118.315h.394l.118.276h.789l.039-.394-.749-.118-.039-.473-.552-.118c-.2-.789.118-.986.355-.631l.276.039-.079-.67.315-.079-.079-.946-.276-.079V121.1l1.1.039a1.8,1.8,0,0,1,.039-.867h.315l.039.2,1.38.118.946-1.1c-.039-.079.118-.118,0-.237s-.315,0-.552-.118c-.2-.118,0-.907-.039-1.065-.039-.2.749-.473.631-.039s0,.591,0,.591c.591-.552,1.065.039,1.025.2-.039.118.315.276.552.118s.473.394.394.67-.867.2-.946-.039c-.039-.276-.2-.2-.276-.039s-.473.2-.71.079l-.079-.079-.946,1.1h.039c.552.315.276.71.079.789a1.523,1.523,0,0,1-.473.079l-.079.2-1.143.079-.079.473a.648.648,0,0,0-.67.867.858.858,0,0,1,0,.591l.473.2.631-.2c.079-.473.473-.552.867-.789.355-.276.946.513.749.867a1.26,1.26,0,0,0-.2.513l.039.394-.473.2-.355.2-.039.2h-1.222l-.2.2-.591.039-.2.276-.394.039s-.67.315-.394.67-1.1.315-1.419-.2c-.079.473-.591.039-.591.039l-.473-.118-.039-.67c-.079-.473-.946-.473-.867-.118.039.315-1.617.118-1.617.118l-.552.276-.473.276-.039.2-.789.079-.355.2-.118-.276h-.355l-.355.513c-.946.039-1.814.591-1.735.789s-.355.473-.355.473l-.394.118-.276.394-.552.2-.079.946-.276.2v.394l-.315.079v.2l-.473.039.276.67.355.2c.631.079.355.867.355.867l.355.039.2.513.355.71c.118.552.552.394.71.355.2-.039.355.552.355.552l1.774.039s-.079.2.2.276a8.56,8.56,0,0,0,2.445.039c-.079-.394,1.1-.513,1.617-.118a1.36,1.36,0,0,0,1.143.118l.67.789.473.986.749.2.552.118.2.789.394.039.118.513c.473.355-.118,1.1-.118,1.1v.986l.355.2-.039.355.591.591.67.039,1.7,1.774,1.341.394.2.71.355-.039.276-.2,1.065-.039.552-.513.591-.079,4.929-4.18-.473-.276v-.986c.789-.591.867-1.617.079-1.7-.552-.079-.315-.67.2-.789l.315-.118v-.394l1.025-.946v-.71l-2.326-1.893c-.986-.355,0-2.524.67-2.484s-.039-3.352-.039-3.352l-.355-.2.079-1.1h-.473l-.789,1.025-.2.71c-.079.946-2.839.789-2.957.631a9.394,9.394,0,0,0-1.065-.552s-.71-.591-.867-.394-.749-.2-.749-.079-.591-.315-.591-.315l-.867-.315.67-.118-.118-.552,1.143.591c.118.2.71.118.71.118l.2.2a.79.79,0,0,1,.591.2c.2.276,1.38.039,1.38.039l.315.276.473.2,1.38.039.039-.867.276-.276-.039-.552.315-.276v-.473l.276-.079.039-.986.2-.039v-2.169l-.67-.631c-.039.2-.749.2-.749.2s-.2.315-.315.315.2.394.079.67c-.079.276-.473.276-.473.276l-.67.2-.2.2h-.71l-.079-.591.789-.2.473-.2.2-.473c.039-.473.591-.394.591-.394s1.025-.867,1.065-1.262.394-1.538,1.025-1.538h1.143c.473-.2.315-.789.315-.789l.591-.079.079.315s.789.079.867-.039.276-.473.473-.315c.2.118.946-.315.946-.315.039-.315,1.143-.2,1.143-.2l.118-.394a6.663,6.663,0,0,0-.867-1.025c-.118,0-.867-.631-.946-.394-.71-.2-.67-1.183-.67-1.183l-.276-.631c0-.355-.67-1.1-.789-1.025-.67-.513-.2-1.065,0-1.1s.631-.67.631-.67l.2-.631.749-.2.079-.591-.394-.039s.473-.789.67-.789a13.365,13.365,0,0,0,1.814-.079,2.536,2.536,0,0,0,.394-.946c0-.158.355-.2.473-.2a1.614,1.614,0,0,0,.552-.591c.276-.394,0-1.538-.2-1.341Z" transform="translate(-135.531 -68.622)" fill="#009edb"/>
            <path id="path245_9_" d="M184.648,149.539c.039-.039.118.2.276.158.118-.039.2.237.039.237-.118,0-.118.158-.118.237a.477.477,0,0,1-.118.355c-.118.118-.2.039-.315-.039a.53.53,0,0,0-.355-.079c-.158,0-.039.276-.039.276s-.71-.039-.552-.118c.118-.118.276-.118.158-.2s0-.118,0-.276.315-.079.237-.158c-.118-.118,0-.473.158-.276l.118-.237c-.118-.118-.039-.118-.237-.2s-.039-.473-.039-.473l.039-.276c.039-.355.71-.355.789-.079a1.87,1.87,0,0,1,0,.513l.2.079s-.039.2-.2.2,0,.118-.118.2l.079.158Z" transform="translate(-144.461 -98.122)" fill="#009edb"/>
            <path id="path247_9_" d="M181,151.206c.118-.2.315-1.065.591-.789s.434,0,.434,0,.118.118.039.394c-.039.276-.118.552-.276.591a4.094,4.094,0,0,1-.513.158c-.2,0-.276-.355-.276-.355Z" transform="translate(-142.981 -99.434)" fill="#009edb"/>
          </g>
        </g>
      </g>
    </g>
    <g id="Group_9" data-name="Group 9" transform="translate(0 114.068)">
      <path id="Path_20" data-name="Path 20" d="M16.029,312.89a5.258,5.258,0,0,1-3.667-1.183,4.4,4.4,0,0,1-1.262-3.352V301.1h2.445v7.058a3.02,3.02,0,0,0,.67,2.09,2.473,2.473,0,0,0,1.932.71,2.59,2.59,0,0,0,2.011-.749,3.02,3.02,0,0,0,.71-2.129V301.1h2.445v7.137a4.425,4.425,0,0,1-1.38,3.43A5.653,5.653,0,0,1,16.029,312.89Z" transform="translate(-11.1 -300.903)" fill="#009edb"/>
      <path id="Path_21" data-name="Path 21" d="M49.258,312.793l-5.047-8.911a15.789,15.789,0,0,1,.158,2.09v6.821H42.2V301.2h2.76l5.126,8.99a15.793,15.793,0,0,1-.158-2.248V301.2H52.1v11.593H49.258Z" transform="translate(-29.937 -300.963)" fill="#009edb"/>
      <path id="Path_22" data-name="Path 22" d="M73.1,312.793V301.2h2.445v11.593Z" transform="translate(-48.653 -300.963)" fill="#009edb"/>
      <path id="Path_23" data-name="Path 23" d="M88.691,302.993v9.7H86.246v-9.7H82.5V301.1h9.936v1.893Z" transform="translate(-54.347 -300.903)" fill="#009edb"/>
      <path id="Path_24" data-name="Path 24" d="M111,312.793V301.2h9.108v1.893h-6.7v2.918H119.6V307.9h-6.191v3.036h7.058v1.893H111Z" transform="translate(-71.609 -300.963)" fill="#009edb"/>
      <path id="Path_25" data-name="Path 25" d="M149.831,306.817a6.488,6.488,0,0,1-.71,3.115,5.2,5.2,0,0,1-1.972,2.05,6.074,6.074,0,0,1-2.957.71H139.5V301.1h4.18a6.4,6.4,0,0,1,4.534,1.459A5.5,5.5,0,0,1,149.831,306.817Zm-2.445,0a3.712,3.712,0,0,0-.986-2.839,3.64,3.64,0,0,0-2.76-.986h-1.735v7.847h2.05a3.164,3.164,0,0,0,2.484-1.065A4.175,4.175,0,0,0,147.386,306.817Z" transform="translate(-88.871 -300.903)" fill="#009edb"/>
      <path id="Path_26" data-name="Path 26" d="M189.358,312.793l-5.047-8.911a15.784,15.784,0,0,1,.158,2.09v6.821H182.3V301.2h2.76l5.126,8.99a15.791,15.791,0,0,1-.158-2.248V301.2H192.2v11.593h-2.839Z" transform="translate(-114.795 -300.963)" fill="#009edb"/>
      <path id="Path_27" data-name="Path 27" d="M220.211,312.793l-1.025-2.957H214.77l-1.025,2.957H211.3l4.219-11.593H218.4l4.219,11.593Zm-3.233-9.818-.039.2a6.086,6.086,0,0,1-.2.67c-.079.237-.552,1.656-1.419,4.18h3.312l-1.143-3.352-.355-1.1Z" transform="translate(-132.36 -300.963)" fill="#009edb"/>
      <path id="Path_28" data-name="Path 28" d="M247.691,302.993v9.7h-2.445v-9.7H241.5V301.1h9.936v1.893Z" transform="translate(-150.652 -300.903)" fill="#009edb"/>
      <path id="Path_29" data-name="Path 29" d="M270.1,312.793V301.2h2.445v11.593Z" transform="translate(-167.975 -300.963)" fill="#009edb"/>
      <path id="Path_30" data-name="Path 30" d="M292.511,306.554a6.813,6.813,0,0,1-.71,3.194,4.773,4.773,0,0,1-2.05,2.09,6.6,6.6,0,0,1-3.115.71,5.8,5.8,0,0,1-4.3-1.617,6.081,6.081,0,0,1-1.538-4.416,5.4,5.4,0,0,1,5.836-5.915,5.657,5.657,0,0,1,4.3,1.577A6.131,6.131,0,0,1,292.511,306.554Zm-2.484,0a4.491,4.491,0,0,0-.907-2.957,3.476,3.476,0,0,0-5.008,0,4.491,4.491,0,0,0-.907,2.957,4.606,4.606,0,0,0,.907,3,2.971,2.971,0,0,0,2.484,1.1,3.083,3.083,0,0,0,2.524-1.065A4.37,4.37,0,0,0,290.027,306.554Z" transform="translate(-174.456 -300.6)" fill="#009edb"/>
      <path id="Path_31" data-name="Path 31" d="M322.258,312.793l-5.047-8.911a15.789,15.789,0,0,1,.158,2.09v6.821H315.2V301.2h2.76l5.126,8.99a15.8,15.8,0,0,1-.158-2.248V301.2H325.1v11.593h-2.839Z" transform="translate(-195.292 -300.963)" fill="#009edb"/>
      <path id="Path_32" data-name="Path 32" d="M354.494,309.2a3.01,3.01,0,0,1-1.262,2.6,6.421,6.421,0,0,1-3.706.907,6.8,6.8,0,0,1-3.509-.789,3.52,3.52,0,0,1-1.617-2.405l2.326-.394a2.024,2.024,0,0,0,.946,1.341,3.789,3.789,0,0,0,1.932.434c1.7,0,2.524-.513,2.524-1.538a1.238,1.238,0,0,0-.276-.828,2.749,2.749,0,0,0-.828-.552,11.352,11.352,0,0,0-2.05-.513c-.867-.2-1.459-.355-1.814-.473a4.848,4.848,0,0,1-.907-.434,2.581,2.581,0,0,1-.71-.591,2.086,2.086,0,0,1-.434-.828,3.11,3.11,0,0,1-.158-1.1,2.737,2.737,0,0,1,1.183-2.405,5.956,5.956,0,0,1,3.43-.828,6.379,6.379,0,0,1,3.233.67,3.151,3.151,0,0,1,1.38,2.248l-2.366.315a1.794,1.794,0,0,0-.749-1.143,2.9,2.9,0,0,0-1.577-.394c-1.459,0-2.208.473-2.208,1.38a1.137,1.137,0,0,0,.237.749,1.6,1.6,0,0,0,.71.473,14.307,14.307,0,0,0,1.853.513,16.694,16.694,0,0,1,2.405.67,3.545,3.545,0,0,1,1.143.71,2.5,2.5,0,0,1,.631.946A3.134,3.134,0,0,1,354.494,309.2Z" transform="translate(-212.978 -300.721)" fill="#009edb"/>
    </g>
  </g>
</svg>
